<svg xmlns="http://www.w3.org/2000/svg" style="isolation:isolate" viewBox="0 0 291.262 400" width="291.262pt"
     height="400pt">
    <g>
        <g>
            <path d=" M 291.262 145.631 C 291.262 65.291 225.971 0 145.631 0 C 65.291 0 0 65.291 0 145.631 C 0 230.34 87.864 344.417 126.942 391.262 C 136.65 402.913 154.369 402.913 164.078 391.262 C 203.398 344.417 291.262 230.34 291.262 145.631 Z "
                  fill="rgb(35,116,171)"/>
        </g>
        <g>
            <path d=" M 82.473 181.157 C 82.473 188.105 85.552 194.342 90.368 198.684 L 90.368 208.789 C 90.368 215.342 95.657 220.631 102.21 220.631 C 108.763 220.631 114.052 215.342 114.052 208.789 L 114.052 204.842 L 177.21 204.842 L 177.21 208.789 C 177.21 215.263 182.499 220.631 189.052 220.631 C 195.526 220.631 200.894 215.342 200.894 208.789 L 200.894 198.684 C 205.71 194.342 208.789 188.105 208.789 181.157 L 208.789 102.21 C 208.789 74.578 180.526 70.631 145.631 70.631 C 110.736 70.631 82.473 74.578 82.473 102.21 L 82.473 181.157 Z  M 110.105 189.052 C 103.552 189.052 98.263 183.763 98.263 177.21 C 98.263 170.657 103.552 165.368 110.105 165.368 C 116.657 165.368 121.947 170.657 121.947 177.21 C 121.947 183.763 116.657 189.052 110.105 189.052 Z  M 181.157 189.052 C 174.605 189.052 169.315 183.763 169.315 177.21 C 169.315 170.657 174.605 165.368 181.157 165.368 C 187.71 165.368 192.999 170.657 192.999 177.21 C 192.999 183.763 187.71 189.052 181.157 189.052 Z  M 192.999 141.684 L 98.263 141.684 L 98.263 102.21 L 192.999 102.21 L 192.999 141.684 Z "
                  fill="rgb(255,255,255)"/>
        </g>
    </g>
</svg>