<svg xmlns="http://www.w3.org/2000/svg" style="isolation:isolate" viewBox="0 0 295.012 403.722">
    <path fill="#2374ab" class="pin"
          d="M293.137 147.506c0-80.34-65.291-145.631-145.631-145.631S1.875 67.166 1.875 147.506c0 84.709 87.864 198.786 126.942 245.631 9.708 11.651 27.427 11.651 37.136 0 39.32-46.845 127.184-160.922 127.184-245.631z"/>
    <path fill="#fff" class="bus"
          d="M84.348 183.032c0 6.948 3.079 13.185 7.895 17.527v10.105a11.826 11.826 0 0011.842 11.842 11.826 11.826 0 0011.842-11.842v-3.947h63.158v3.947c0 6.474 5.289 11.842 11.842 11.842 6.474 0 11.842-5.289 11.842-11.842v-10.105c4.816-4.342 7.895-10.579 7.895-17.527v-78.947c0-27.632-28.263-31.579-63.158-31.579-34.895 0-63.158 3.947-63.158 31.579zm27.632 7.895a11.826 11.826 0 01-11.842-11.842 11.826 11.826 0 0111.842-11.842 11.826 11.826 0 0111.842 11.842c0 6.553-5.29 11.842-11.842 11.842zm71.052 0a11.826 11.826 0 01-11.842-11.842c0-6.553 5.29-11.842 11.842-11.842a11.826 11.826 0 0111.842 11.842 11.826 11.826 0 01-11.842 11.842zm11.842-47.368h-94.736v-39.474h94.736z"/>
</svg>