<?xml version="1.0" encoding="UTF-8" standalone="no"?>
<svg
   xmlns:dc="http://purl.org/dc/elements/1.1/"
   xmlns:cc="http://creativecommons.org/ns#"
   xmlns:rdf="http://www.w3.org/1999/02/22-rdf-syntax-ns#"
   xmlns:svg="http://www.w3.org/2000/svg"
   xmlns="http://www.w3.org/2000/svg"
   style="display:inline"
   version="1.0"
   id="svg2"
   height="1511.0286"
   width="1666.5906">
  <defs
     id="defs4" />
  <metadata
     id="metadata7">
    <rdf:RDF>
      <cc:Work
         rdf:about="">
        <dc:format>image/svg+xml</dc:format>
        <dc:type
           rdf:resource="http://purl.org/dc/dcmitype/StillImage" />
        <dc:title></dc:title>
      </cc:Work>
    </rdf:RDF>
  </metadata>
  <g
     transform="translate(-87.466599,-171.00908)"
     style="display:inline"
     id="layer16">
    <path
       id="path5215-4"
       transform="translate(87.466599,171.00908)"
       d="M 1343.0332 33.646484 L 1330.6582 44.646484 L 1336.6582 51.521484 L 1335.7832 52.896484 L 1341.2832 58.396484 L 1337.6582 61.771484 L 1333.4082 57.646484 L 1328.0332 63.771484 L 1331.4082 66.771484 L 1330.1582 68.896484 L 1327.6582 70.396484 L 1331.4082 75.021484 L 1320.2832 86.646484 L 1328.6582 94.646484 L 1317.5332 113.52148 L 1296.4082 133.64648 L 1298.9082 136.77148 L 1293.0332 143.39648 L 1290.1582 140.64648 L 1288.0332 143.02148 L 1290.9082 145.77148 L 1286.5957 150.74023 L 1243.127 105.83398 L 1243.127 110.58398 L 1238.877 114.83398 L 1201.752 77.177734 C 1201.752 77.177734 1193.2931 150.09563 1192.9395 150.80273 C 1192.5861 151.50984 1192.5841 151.5224 1191.877 152.05273 C 1191.1697 152.58306 1190.1986 152.76704 1189.3145 153.20898 C 1188.4306 153.65092 1187.4574 153.73043 1185.6895 154.08398 C 1183.9217 154.43754 1184.2769 155.0492 1183.6582 156.02148 C 1183.0395 156.99375 1182.3968 157.35635 1181.6895 158.24023 C 1180.9824 159.12412 1180.8968 159.2992 1180.1895 160.27148 C 1179.4824 161.24375 1179.2233 161.31346 1177.7207 161.49023 C 1176.2181 161.66701 1176.4741 162.04828 1175.502 162.49023 C 1174.5297 162.93217 1171.4411 164.77148 1169.4082 164.77148 C 1167.3753 164.77148 1167.9082 166.89648 1167.9082 166.89648 C 1167.9082 166.89648 1167.3827 167.16441 1167.4707 168.49023 C 1167.5587 169.81606 1167.6537 169.45545 1168.0957 170.42773 C 1168.5376 171.4 1169.2303 173.70454 1168.877 174.14648 C 1168.5234 174.58842 1166.9259 176.27683 1165.1582 176.36523 C 1163.3904 176.45363 1160.7403 176.62494 1160.0332 176.27148 C 1159.3261 175.91792 1158.3546 175.99283 1157.4707 174.49023 C 1156.5868 172.98763 1157.302 173.45086 1156.0645 171.77148 C 1154.8272 170.0921 1155.1064 169.55089 1155.2832 168.49023 C 1155.4599 167.42957 1155.2732 166.80181 1156.1582 166.27148 C 1157.0421 165.74115 1158.6386 166.18568 1159.3457 164.77148 C 1160.0528 163.35727 1160.4962 163.18125 1160.4082 162.20898 C 1160.3202 161.23671 1160.2148 161.42053 1160.127 160.27148 C 1160.039 159.12243 1156.5957 157.36523 1156.5957 157.36523 C 1156.5957 157.36523 1156.3013 156.74886 1155.6582 156.74023 C 1155.2724 156.73523 1154.7566 156.95232 1154.127 157.61523 C 1152.4476 159.38299 1155.0954 158.94565 1152.002 160.27148 C 1148.9084 161.5973 1150.2429 161.58214 1148.0332 160.52148 C 1145.8235 159.46082 1141.392 157.60543 1141.127 157.95898 C 1140.8617 158.31253 1141.8457 163.61523 1141.8457 163.61523 L 1100.2832 204.39648 L 1110.0332 214.39648 C 1110.0332 214.39648 1109.0421 215.60988 1108.1582 215.52148 C 1107.2743 215.43308 1106.4082 214.70898 1106.4082 214.70898 C 1106.4082 214.70898 1105.9556 215.87688 1106.2207 216.58398 C 1106.4859 217.29109 1107.193 217.97507 1106.2207 218.24023 C 1105.2485 218.5054 1103.8305 215.33214 1104.0957 214.27148 C 1104.3609 213.21082 1105.0609 212.76703 1102.9395 213.20898 C 1100.818 213.65092 1100.1332 215.34103 1100.752 213.39648 C 1101.3706 211.45194 1100.2832 211.17773 1100.2832 211.17773 L 1098.7832 213.02148 L 1104.627 218.95898 L 1102.252 221.86523 L 1094.5645 213.64648 L 1092.7832 215.14648 L 1096.0645 218.67773 L 1094.2832 220.20898 L 1096.4082 221.86523 L 1095.1582 223.74023 L 1093.752 222.14648 L 1092.002 223.99023 L 1100.752 232.64648 L 1095.4395 234.77148 L 1094.7832 271.02148 L 1090.2832 270.02148 L 1087.4082 268.27148 L 1086.1582 267.14648 L 1081.6582 267.77148 L 1079.2832 269.89648 C 1079.2832 269.89648 1070.9082 278.52148 1070.9082 279.02148 C 1070.9082 279.52148 1070.7832 281.27148 1070.7832 281.27148 L 1065.7832 281.14648 L 1063.6582 302.52148 L 1059.2832 302.02148 L 1059.5332 299.77148 L 1040.627 296.45898 L 1038.4707 309.30273 L 1037.1895 316.89648 L 1023.127 315.92773 L 1023.127 323.70898 L 1020.3145 323.70898 L 984.93945 355.17773 L 950.2207 322.14648 L 941.2207 337.70898 L 941.4707 351.27148 L 938.5332 352.45898 L 938.7207 354.14648 L 934.0957 359.58398 L 927.7832 362.39648 C 927.7832 362.39648 929.2832 363.95898 929.5332 363.95898 C 929.7832 363.95898 914.6582 373.89648 914.6582 373.89648 L 913.8457 373.20898 L 914.8457 371.14648 L 895.4082 360.95898 L 894.00195 358.36523 L 891.06445 358.36523 L 875.56445 352.52148 L 878.93945 339.33398 L 822.1582 336.20898 L 811.37695 328.30273 L 803.4707 327.58398 L 802.2832 322.80273 L 785.25195 315.61523 L 783.5957 327.83398 L 775.43945 328.55273 L 770.1582 317.05273 L 747.87695 296.45898 L 735.9082 306.99023 L 711.62695 313.70898 L 652.7832 329.99023 L 664.2832 342.92773 L 594.31445 409.30273 L 570.8457 387.24023 L 548.93945 362.70898 L 447.7207 265.80273 L 428.18945 272.64648 L 431.2207 279.08398 L 435.62695 277.55273 L 438.8457 283.30273 L 437.6582 283.64648 L 438.8457 288.39648 L 434.93945 289.08398 L 435.12695 292.61523 L 437.1582 292.45898 L 437.6582 294.67773 L 443.4082 294.14648 L 444.0957 297.02148 L 451.0332 296.17773 L 449.8457 301.95898 L 446.9707 307.70898 L 446.12695 309.05273 L 444.93945 307.70898 L 444.43945 305.17773 L 443.0957 305.17773 L 442.75195 303.80273 L 413.0957 308.39648 L 412.0957 310.08398 C 412.0957 310.08398 409.5332 305.4967 409.5332 303.80273 C 409.5332 302.10877 406.67285 299.91609 404.4707 298.05273 C 402.26854 296.18937 403.93945 287.89799 403.93945 285.86523 C 403.93945 283.83247 395.32587 274.15295 393.9707 272.45898 C 393.1576 271.4426 392.97197 271.18028 392.93945 271.11523 L 393.43945 255.02148 L 391.4082 254.67773 L 389.0332 248.24023 L 359.75195 251.80273 L 361.7832 265.70898 L 356.68945 266.20898 L 356.8457 268.92773 L 355.8457 268.92773 L 356.00195 271.80273 L 354.1582 272.30273 L 356.00195 273.64648 L 355.50195 283.83398 L 358.0332 283.99023 L 358.37695 286.17773 L 338.7207 287.89648 L 336.0332 282.30273 L 315.5332 284.33398 L 315.68945 281.80273 L 311.81445 282.30273 L 291.4707 302.95898 L 324.00195 321.08398 L 324.3457 332.77148 L 318.56445 333.27148 L 317.9082 334.64648 L 324.8457 338.70898 L 324.68945 342.08398 L 324.00195 343.11523 L 326.37695 348.02148 L 328.56445 348.36523 L 331.12695 352.92773 L 338.56445 359.36523 L 339.4082 361.74023 L 339.25195 365.14648 L 340.43945 368.17773 L 340.7832 372.08398 L 318.93945 376.77148 L 236.18945 349.14648 L 234.43945 357.08398 L 71.439453 289.92773 L 63.626953 350.89648 L 43.314453 424.42773 L 44.314453 435.27148 L 40.939453 454.58398 L 204.56445 519.95898 L 198.1582 554.49023 L 197.8457 554.70898 L 194.9707 552.55273 L 189.93945 553.02148 L 194.25195 528.58398 L 179.4082 529.08398 L 173.9082 551.58398 L 163.3457 534.58398 L 155.2207 535.30273 L 153.2832 536.99023 L 157.5957 543.92773 L 153.06445 546.55273 L 155.93945 553.52148 L 143.7207 560.20898 L 137.7207 550.64648 L 122.1582 563.08398 L 138.18945 589.42773 L 137.4707 594.95898 L 140.8457 595.42773 L 143.2207 626.80273 L 124.7832 623.45898 L 117.5957 656.52148 L 177.50195 669.45898 L 166.9707 718.49023 L 164.93945 736.45898 L 150.0332 809.11523 C 145.43457 806.74758 141.83678 802.7038 132.06445 808.95898 L 121.06445 810.14648 L 114.9707 815.05273 L 115.31445 821.30273 L 105.12695 821.64648 L 97.501953 862.64648 L 114.71484 862.08203 C 124.48299 858.02816 135.65851 853.65044 145.8125 858.46875 C 148.43486 861.09111 157.44757 861.43479 163.28125 863.625 C 169.41233 865.92688 172.48381 870.03174 180.5 870.75 C 198.45914 872.35915 218.5644 863.86597 227.84375 863.65625 C 235.97822 863.47241 242.579 880.02561 247.59375 894.53125 C 252.32937 908.2295 243.92013 923.65809 244.75 924.65625 C 249.42673 925.75348 250.78415 923.82733 255.46875 925.875 C 259.1046 926.6021 259.93692 920.34365 263.4375 922.09375 C 266.741 923.7454 271.94641 923.038 275.84375 923.6875 C 279.7222 924.3338 288.58151 925.17535 291.5 928.09375 C 295.08428 931.67815 293.17963 933.2816 292.25 937 C 292.31574 938.38424 290.18367 942.42756 288.78125 944.3125 C 288.06557 945.27444 293.41215 947.01506 293.34375 951.6875 C 293.31387 953.72872 294.97728 956.40922 295.375 958 C 296.62301 962.9922 301.02841 964.9339 304.125 969.0625 C 307.71919 973.8549 312.89919 977.0121 318.125 979.625 C 322.35918 981.64598 331.1481 987.9525 340.78125 988.1875 L 347.84375 991.90625 C 350.715 993.41375 356.80415 986.49695 364.8125 985.40625 C 370.36511 983.18517 375.13466 981.63585 379.84375 979.28125 C 382.60545 977.90045 389.97029 980.5031 392.0625 984.6875 C 393.04997 986.66235 399.96608 996.78125 401.71875 996.78125 C 405.61316 996.78125 406.43226 992.90625 409.4375 992.15625 C 413.22937 991.20835 414.04718 989.19715 416.1875 986.34375 C 420.24367 980.93521 419.05536 983.375 425.8125 983.375 C 429.6036 980.5317 435.01465 979.2271 439.34375 977.0625 C 443.31685 975.0759 445.19234 970.04445 448.96875 968.15625 C 452.19406 966.54365 457.66352 962.96875 461.5625 962.96875 C 464.91152 962.96875 472.98883 960.03625 476.21875 960.84375 C 485.64933 961.80996 481.82759 966.43475 491 955.21875 C 493.32755 952.89105 491.22776 947.58465 493.21875 945.59375 C 496.24757 942.56475 499.29138 939.38275 502.84375 936.71875 C 506.56479 933.92795 511.64241 932.70495 513.96875 928.5625 C 517.3951 922.46128 526.59166 923.85362 527.53125 922.34375 C 529.32612 919.45949 523.70944 914.15126 527.3125 910.78125 C 530.05999 907.11825 532.89685 902.4751 533.96875 898.1875 C 534.78961 894.90408 537.45686 894.60495 538.59375 892.53125 C 539.11634 891.57803 537.21725 889.00151 538.40625 887.8125 C 541.50909 884.7097 546.38037 880.6549 550.25 879.6875 C 554.42592 878.64305 555.84617 879.78125 561.34375 879.78125 C 566.60045 879.78125 570.26529 875.4259 573.96875 874.5 C 578.97499 873.2485 575.18219 869.1915 578.6875 866.5625 C 582.178 863.9446 585.51337 862.0558 590.25 859.6875 C 593.30093 858.16289 597.00742 859.59375 601.34375 859.59375 C 605.99966 859.59375 610.12252 861.1418 613.78125 859.3125 C 615.47677 858.4646 620.19338 858.5508 621.65625 855.625 C 623.12075 852.6962 626.38796 854.80763 626.84375 850.53125 C 627.08448 848.27263 617 838.02212 617 831.78125 L 617 819.9375 C 617 817.12388 620.77665 812.98659 620.625 807.09375 C 620.58336 805.47585 626.09897 798.1875 627.28125 798.1875 C 631.55152 798.1875 631.09133 797.47716 635.125 796.46875 C 636.59614 796.10097 640.28179 791.80465 642.09375 789.96875 C 643.72021 788.3205 648.24382 790.21017 649.21875 788.3125 C 650.30241 786.20321 649.27073 784.30919 650.09375 782.9375 C 652.68074 778.62585 657.70272 779.7348 661.25 776.1875 C 662.76994 774.66755 661.19399 770.65399 662.125 766.8125 C 662.67738 764.53332 664.94875 764.41626 665.90625 763.9375 C 667.58482 763.09821 676.61465 764.01521 677.53125 762.96875 C 680.52993 759.54523 682.8988 759.71089 686.5625 755.96875 C 688.18456 754.31196 691.72146 752.46466 692.375 750.46875 C 692.88905 748.89885 690.21036 745.42071 689.3125 743.625 C 687.34551 739.69104 686.90177 736.6036 690.78125 733.5 C 693.14129 731.61198 697.78994 731.0115 697.3125 726.96875 C 696.8721 723.23955 696.15813 710.24795 698.78125 707.90625 C 699.61835 707.15896 701.68472 708.84545 703.28125 708.4375 C 704.39157 708.15379 705.89171 706.37875 706.59375 705.78125 C 709.07996 703.66527 710.49033 700.86421 713.03125 699.59375 C 715.00492 698.45345 716.31852 700.69452 719.1875 698.34375 C 722.97568 695.23982 725.58715 690.51595 728.40625 690.90625 C 732.1616 690.90625 734.73088 694.30035 736.96875 692.0625 C 740.6975 688.33405 744.93843 686.96502 746.25 681.71875 C 747.0208 678.63559 749.09338 676.69643 750.03125 673.9375 C 750.30726 673.12555 747.09047 672.73989 747.3125 670.96875 C 747.61887 668.5249 752.1129 669.08496 752.46875 668.40625 C 753.4451 666.54412 755.11295 665.31373 757.65625 663.40625 C 760.57725 661.2155 758.28116 661.54692 761.1875 660.09375 C 764.34922 658.5129 760.5 654.97219 760.5 650.34375 C 760.5 645.85266 773.92196 640.21842 775 635.90625 C 775.83996 632.54642 775.9068 629.84321 778.53125 627.21875 C 780.29937 625.45065 783.54397 619.27931 785.15625 617.75 C 787.29946 615.71706 793.58726 612.37298 795.96875 610.78125 C 798.22907 609.27051 801.88968 607.69963 802.34375 602.15625 C 802.45205 600.83401 805.63009 598.85466 805.90625 597.75 C 806.59045 595.01318 809.94928 593.31427 811.5 591.53125 C 812.4488 590.44032 814.31612 585.08323 815.59375 584.125 C 819.43442 581.24448 815.84846 584.75285 819.09375 582.6875 C 822.86241 580.28907 825.27516 576.65833 831 575.25 C 834.89202 574.29255 834.72924 571.40356 839.875 571.5625 L 847.96875 571.8125 C 851.31618 571.9159 853.86383 574.24499 857.09375 573.4375 C 861.32529 572.37962 868.80166 569.83736 871.09375 566.78125 C 873.92031 563.01249 877.69067 556.68433 881.34375 553.03125 C 885.33899 549.03601 886.95419 548.76012 893.21875 548.59375 L 906.53125 548.21875 C 911.11181 548.0971 913.74405 548.70943 917.65625 549.6875 C 920.40775 550.3754 924.0951 550.3125 925.75 550.3125 C 930.5484 550.3125 936.13335 544.38073 940.78125 543.21875 C 943.49995 542.53908 944.9884 547.97879 950.125 551.65625 C 953.8909 554.35245 958.46655 555.28125 960.65625 555.28125 C 965.33925 555.28125 964.6521 550.59292 969.5 551.5625 C 972.578 552.17815 981.76875 550.52879 985.46875 549.90625 C 991.25135 548.93331 992.44415 553.50449 996.03125 554.53125 C 1000.0616 555.68491 1000.9923 557.53316 1005 556.53125 C 1008.6109 555.62846 1019.4799 549.90062 1022.9688 548.15625 C 1027.533 545.87406 1031.0204 547.44565 1035.4062 544.15625 C 1038.3864 541.9211 1041.7523 542.14685 1045.0312 539.6875 C 1048.8137 536.85083 1051.9614 536.75 1056.9062 536.75 C 1060.4995 536.75 1065.305 535.88915 1068.75 536.75 C 1072.7117 537.74077 1074.9653 538.11656 1078.375 538.96875 C 1081.7681 539.81709 1085.6699 539.6875 1089.5 539.6875 C 1094.8659 539.6875 1095.9768 539.84357 1099.8438 536.75 C 1101.0779 535.76242 1102.3279 534.76884 1103.5625 533.78125 C 1109.8291 533.78125 1120.4858 535.1522 1124.3125 532.28125 C 1128.1271 529.42096 1133.5559 523.2215 1139.125 520.4375 C 1143.1537 518.42235 1151.4139 516 1156.875 516 C 1167.0942 516 1170.6981 516.98784 1177.625 510.0625 C 1182.0092 505.67626 1184.3809 498.86886 1189.4688 493.78125 C 1193.8791 489.37075 1197.5077 487.05174 1201.3438 481.9375 C 1205.8298 475.95595 1212.9372 472.48974 1216.1562 467.125 C 1220.2885 460.23832 1224.7079 451.22282 1229.4688 444.875 C 1234.8883 437.6485 1235.1225 427.48251 1239.8438 421.1875 C 1243.7114 416.0303 1247.9269 408.66843 1253.1875 403.40625 C 1261.1623 395.43271 1263.8539 390.29677 1266.5 379.71875 C 1268.8496 370.3203 1274.1535 372.49316 1279.8438 364.90625 C 1283.2506 360.36358 1292.1494 355.10724 1294.6562 350.09375 C 1298.3701 342.66613 1307.3945 336.1708 1309.4688 327.875 C 1311.135 321.20944 1313.1019 305.625 1319.8438 305.625 C 1328.7319 305.625 1337.6114 290.09375 1346.5 290.09375 C 1361.357 290.09375 1371.1327 270.64842 1380.5938 261.1875 L 1386.5 253.0625 L 1385.4375 252.0625 C 1388.6087 249.3138 1396.8415 246.38125 1399.6875 240.6875 C 1406.962 226.13869 1416.8693 229.33435 1421.25 207.4375 C 1424.1168 193.09339 1449.1562 186.64655 1449.1562 168.21875 C 1449.1562 160.07205 1452.7631 153.21763 1457.0137 146.58789 L 1343.0332 33.646484 z M 1412.125 278.5625 C 1402.4635 279.67644 1397.1583 283.03361 1395.625 284.46875 C 1392.9175 287.00285 1392.3989 293.22282 1389.625 294.90625 C 1371.8396 305.69972 1364.2146 311.42745 1350.375 320.3125 C 1335.0451 332.33965 1321.0274 343.5077 1312.125 361.3125 C 1311.2824 362.99771 1305.0406 373.97807 1306.125 375.0625 C 1311.9094 378.07499 1314.1653 377.86035 1317.8438 375.96875 C 1321.3781 374.15023 1326.3691 370.7838 1330.5312 367.28125 C 1336.6653 362.12168 1340.0711 352.60409 1346.2812 346.65625 C 1355.9731 337.37426 1368.1087 331.07859 1377.375 321.8125 C 1383.8432 315.34443 1392.7904 308.07036 1395.5 301.40625 C 1396.2049 299.67242 1390.7697 302.56292 1391.0312 300.65625 C 1391.2389 299.16094 1394.4044 298.19505 1395.7812 296.375 C 1397.9216 293.54709 1398.7743 289.87973 1400.75 288.5625 C 1402.2508 287.56193 1412.596 279.03347 1412.125 278.5625 z M 1401.7754 330.71875 C 1395.7418 334.0616 1382.4015 337.41815 1380.5938 341.9375 C 1377.331 350.09455 1373.9189 347.11229 1368.7188 352.3125 C 1365.4235 355.60776 1360.5405 356.71551 1357.375 360.9375 C 1354.2894 365.04901 1355.0367 371.85411 1350.2188 373.78125 C 1345.1479 375.80954 1341.2307 378.66978 1336.875 381.9375 C 1332.5362 385.19126 1326.0827 386.07468 1322.8125 389.34375 C 1320.6078 391.54892 1317.8528 397.39021 1313.9062 398.96875 C 1310.1698 400.46335 1305.0996 408.01978 1303.125 411.96875 C 1300.6105 416.99687 1295.4403 417.6545 1291.6875 422.65625 C 1288.8216 426.47767 1287.3318 429.26321 1283.5625 433.03125 C 1281.1649 435.42967 1277.8229 438.60479 1276.1562 441.9375 C 1273.7635 446.72325 1270.5806 450.83763 1268 456 C 1265.3442 461.31106 1255.9345 464.78621 1253.375 471.1875 C 1250.9317 477.29323 1247.0552 482.80987 1243 488.21875 C 1240.1431 492.0275 1237.0942 495.35316 1234.125 499.3125 C 1231.6005 502.67816 1226.1857 507.13329 1224.8125 512.625 C 1224.0536 515.6602 1226 518.20194 1226 522.375 C 1226 530.27776 1220.0553 533.54754 1216.8125 540.03125 C 1215.3062 543.04531 1215.2077 546.79287 1214.3125 550.375 C 1213.4351 553.88236 1210.4804 561.64445 1211.4375 565.46875 C 1212.7908 570.88512 1210.9688 575.83141 1210.9688 581.78125 C 1210.9686 589.77501 1212.5312 597.39776 1212.5312 605.125 C 1212.5312 611.6903 1207.2812 616.88406 1207.2812 622.65625 C 1207.2812 627.74515 1210.8566 631.69396 1208.5 636.40625 C 1207.2346 638.93846 1205.4688 645.91286 1205.4688 649.84375 C 1205.4688 653.06345 1203.5489 659.45109 1201.375 661.625 C 1194.8056 668.45192 1192.8066 700.87271 1192.2188 713.65625 C 1192.2188 718.4904 1190.5666 725.6077 1189.5938 730.46875 C 1187.9507 738.83666 1182.2219 745.37936 1178.6875 752.375 C 1176.6645 754.39766 1173.6689 758.86237 1172.0312 760.5 C 1169.8191 762.71229 1167.8582 768.8924 1165.0312 771.71875 C 1163.5188 773.23259 1158.0679 777.9886 1156.5 781.125 C 1154.9048 784.31426 1149.4846 789.31165 1148 792.28125 C 1142.326 798.97094 1144.7464 800.5974 1139.25 807.1875 C 1136.9755 811.7363 1132.2188 817.32627 1130.4688 822.0625 C 1129.1889 825.52546 1123.4524 832.43776 1122.3438 834.125 C 1120.0209 837.65914 1114.5341 844.08572 1110.625 844.4375 C 1106.9791 850.56165 1111.7811 854.0888 1104.3125 855.375 C 1101.0879 855.93848 1099.9814 854.98059 1099.7812 855.78125 C 1097.1342 866.63454 1104.93 868.80437 1102.125 878.9375 L 1102.125 882.625 C 1104.0766 886.5285 1106.375 890.0992 1106.375 894.5 C 1106.375 898.7248 1107.5466 903.15435 1108.5312 907.09375 C 1110.1436 912.6507 1116.6249 922.10051 1116.9062 930.78125 C 1119.6847 941.1842 1118.6214 936.90989 1123.6875 952.78125 C 1124.6526 956.64095 1131.6285 963.28435 1134.3125 965.96875 C 1136.0069 967.66275 1138.1562 979.2464 1138.1562 983.125 C 1138.1562 987.15755 1139.625 990.96285 1139.625 994.96875 C 1139.625 1000.2459 1140.375 1004.626 1140.375 1009.7812 C 1140.1802 1018.8981 1140.7862 1026.0666 1141.5625 1036.7188 L 1146.1562 1044.5312 C 1148.3043 1048.1861 1145.7808 1053.4375 1143.9375 1057.125 C 1142.0981 1060.8034 1141.0187 1063.7144 1139.5 1066.75 C 1137.8913 1069.9675 1135.686 1074.6572 1133.4375 1076.9062 C 1131.4079 1078.9361 1129.0577 1080.9664 1127.5 1083.5625 C 1124.9612 1087.7926 1123.6019 1089.2453 1120.0938 1091 C 1117.5673 1092.2624 1118.0025 1093.2713 1115.4062 1095.2188 C 1112.2733 1097.5684 1108.8347 1099.5704 1105.7812 1102.625 C 1102.6593 1105.7452 1100.1941 1105.5938 1094.6875 1105.5938 C 1090.1477 1105.5938 1088.9688 1102.5938 1084.3438 1102.5938 C 1080.7166 1102.5938 1073.803 1105.5031 1070.2188 1105.3438 C 1062.2784 1104.9907 1058.3103 1102.0883 1051.7188 1099.6562 C 1048.0439 1098.3006 1047.5972 1095.6458 1045.4375 1094.125 C 1042.7061 1092.2003 1042.4345 1087.2188 1037 1087.2188 C 1032.0661 1087.2187 1022.5833 1087.6068 1018.125 1088.5 L 1014.4062 1089.25 L 1008.5 1089.25 L 989.71875 1093 C 985.43375 1093 971.35595 1093.8528 967.625 1095.7188 C 961.32793 1101.3367 962.95577 1100.2383 943.125 1097.2188 C 940.15199 1096.7659 937.22225 1093.8173 934.46875 1091.0625 C 931.23975 1087.8345 927.0955 1082.924 921.125 1079.9375 C 917.9556 1078.3533 913.20666 1077 909.28125 1077 C 904.74587 1077 897.87835 1075.2188 893.9375 1075.2188 C 891.07791 1075.2187 891.46684 1079.0345 889.5625 1080.9375 C 886.63277 1083.8678 878.77907 1087.0014 875.65625 1089.3438 C 871.7347 1092.2848 867.74936 1090.64 864.03125 1092.5 C 859.76629 1094.4317 854.08654 1091.6162 850.78125 1097.6562 C 848.90217 1104.148 844.82087 1108.3569 839.875 1109.0625 C 836.07719 1109.6051 832.3613 1107.9656 828.75 1107.0625 C 824.65422 1106.0399 823.64483 1103.0938 818.65625 1103.0938 C 813.39998 1103.0938 807.41419 1107.0938 801.84375 1107.0938 C 796.3699 1107.0937 793.83766 1101.8877 790.25 1108.5625 C 788.2596 1112.5435 784.92524 1114.7745 782.84375 1118.9375 C 780.72119 1123.183 777.55671 1130.9934 773.90625 1134.5 C 770.65625 1137.621 780.18645 1135.6888 780.15625 1137.0625 C 780.0815 1140.4656 777.93932 1143.2577 776.1875 1145.5938 C 774.72203 1147.5476 770.25 1152.9053 770.25 1155.9688 C 770.25 1160.007 764.98036 1162.3388 762.5625 1165.5625 C 759.46595 1169.6923 757.74315 1172.077 755.4375 1176.6875 C 754.84582 1177.8714 746.7457 1180.783 746.03125 1182.6562 C 745.3311 1184.4922 752.02117 1185.2917 751 1186.3125 C 743.51202 1193.6614 739.67641 1193.8982 733.21875 1201.125 C 730.12793 1207.4076 727.93303 1212.2971 723.125 1215.875 C 721.06272 1219.9977 714.7713 1222.6137 712.9375 1226.2812 C 709.46933 1233.1885 706.36233 1235.7844 703.84375 1237.625 C 700.94981 1239.7391 698.34893 1240.5341 688.78125 1240.3438 L 677.21875 1244.0938 C 673.79295 1244.158 669.11347 1245.0374 667.59375 1247.0625 C 667.06131 1247.7743 666.53794 1248.7793 666 1249.8438 C 666.37502 1250.4641 666.93175 1250.9778 667.40625 1251.5312 C 668.30749 1252.5829 669.78633 1253.2378 670.28125 1254.5312 C 670.72815 1255.6996 670.80838 1257.2142 670.15625 1258.2812 C 669.70889 1259.0133 668.61053 1259.0412 667.90625 1259.5312 C 666.96024 1260.1897 666.35092 1261.3523 665.28125 1261.7812 C 663.84822 1262.3558 658.76783 1263.5095 657.40625 1262.7812 C 656.25299 1262.1647 656.65852 1259.7831 655.40625 1259.4062 C 655.1153 1259.3193 654.84157 1259.3453 654.5625 1259.4062 C 653.2992 1260.3981 652.05086 1261.3053 650.75 1261.6875 C 650.7174 1261.6965 650.68925 1261.7088 650.65625 1261.7188 C 649.42181 1262.3601 648.21958 1263.0811 646.90625 1263.5312 C 644.81135 1264.2495 641.65625 1264.9062 640.40625 1264.9062 C 639.15625 1264.9062 637.24767 1263.3203 634.03125 1264.0312 C 632.66361 1264.3337 630.15625 1266.2812 630.15625 1265.6562 C 630.15625 1265.224 629.71986 1262.4635 628.59375 1260.5938 C 628.58475 1260.6008 628.5705 1260.615 628.5625 1260.625 C 627.221 1261.9646 625.83934 1262.6906 624.1875 1263.0938 C 623.96174 1263.5784 623.63862 1263.9897 623.15625 1264.2812 C 622.28204 1264.8093 621.1708 1265.0249 620.15625 1264.9062 C 619.15419 1264.7892 618.32448 1264.1164 617.4375 1263.5938 C 617.1922 1263.5938 616.97246 1263.5608 616.71875 1263.5938 L 607.03125 1264.8438 C 606.43445 1265.5034 606.27606 1266.7224 605.4375 1267.0312 C 602.36442 1268.1636 599.13288 1264.3144 596.5625 1266.3438 C 594.97877 1267.5941 599.92571 1270.1454 600.09375 1272.1562 C 600.26409 1274.1946 601.34375 1278.1562 601.34375 1278.1562 C 601.34375 1278.1563 598.29403 1288.0643 595.46875 1291.875 C 593.6316 1294.3514 590.90298 1296.0404 588.75 1298.25 C 587.08992 1299.9518 585.20618 1302.856 583.96875 1303.5625 C 582.73131 1304.2709 578.04293 1308.549 575.84375 1311.6875 C 574.16502 1314.0853 573.57812 1317.0851 572.125 1319.625 C 570.37536 1324.3451 564.35178 1332.4928 562.09375 1337.0625 C 554.95441 1351.5121 546.04274 1364.6691 536.03906 1376.8555 L 567.50195 1371.8652 L 583.7832 1350.0527 L 600.06445 1361.8027 L 622.5957 1385.7402 L 633.37695 1362.7402 L 673.62695 1407.084 L 704.2832 1344.5527 L 707.4082 1344.3027 L 706.68945 1338.3027 L 698.7832 1339.2715 L 697.0957 1337.584 L 703.3457 1328.4902 L 701.18945 1324.4277 L 700.93945 1318.6777 L 708.12695 1305.4902 L 709.06445 1297.584 L 717.93945 1284.1777 L 716.6582 1273.7715 L 718.18945 1272.084 L 717.2207 1270.9902 L 719.06445 1269.2715 L 736.9707 1288.8652 L 821.1582 1380.8027 L 868.93945 1433.0215 L 891.6582 1403.8652 L 882.8457 1400.834 L 896.7207 1360.4902 L 933.56445 1295.6777 L 940.93945 1302.7402 L 956.93945 1270.584 L 980.9707 1281.5527 L 1023.877 1297.834 L 1042.752 1307.334 L 1071.877 1318.6777 L 1073.252 1316.1152 L 1083.4082 1320.1777 L 1087.127 1317.4902 L 1086.627 1312.5527 L 1091.0332 1315.459 L 1091.0332 1311.209 L 1115.377 1325.9902 L 1112.502 1329.584 L 1113.8145 1330.3027 L 1111.6582 1334.3652 L 1113.4707 1335.084 L 1112.377 1337.834 L 1121.8457 1343.2402 L 1125.8145 1338.9277 L 1123.2832 1336.7715 L 1124.377 1330.7715 L 1129.0332 1327.6465 L 1132.877 1328.1465 L 1145.3457 1303.709 L 1145.5645 1314.584 L 1153.002 1311.959 L 1155.1582 1316.5215 L 1163.2832 1310.5215 L 1165.6895 1311.959 L 1167.377 1316.0215 L 1163.0645 1319.1465 L 1164.7207 1323.209 L 1167.127 1322.9902 L 1168.5645 1325.8652 L 1164.002 1328.0215 L 1169.5332 1335.4277 L 1187.9707 1321.7715 L 1184.377 1311.4902 L 1210.7207 1293.5215 L 1210.002 1291.3652 L 1212.877 1284.1777 L 1211.4395 1282.2715 L 1236.252 1264.3965 C 1236.252 1264.3965 1237.5541 1264.6519 1238.0332 1264.7715 C 1238.5123 1264.8913 1238.0332 1267.3965 1238.0332 1267.3965 L 1243.3145 1270.3965 L 1243.9082 1266.084 L 1257.3145 1246.5527 L 1257.4395 1239.7402 L 1262.2207 1230.6152 L 1262.002 1225.1152 L 1263.7832 1222.6152 L 1263.6582 1212.6777 L 1269.5332 1208.3652 L 1276.6895 1207.3652 L 1283.3457 1196.209 L 1287.1895 1189.7402 L 1281.4395 1186.709 L 1277.9082 1161.8652 L 1275.2832 1159.1152 L 1288.3457 1140.5527 L 1290.127 1113.1152 L 1294.2207 1111.459 L 1295.7832 1106.6465 L 1282.4707 1091.334 L 1289.1895 1091.209 L 1288.8145 1086.5215 L 1300.3145 1096.1152 L 1341.2832 1138.2715 L 1341.5332 1130.8652 L 1352.0645 1138.0527 L 1369.0645 1143.3027 L 1373.1582 1134.209 L 1372.9082 1127.7402 L 1396.5957 1102.8652 L 1418.1895 1124.7402 L 1438.5645 1144.8652 L 1463.3457 1145.1152 L 1468.2832 1140.459 L 1469.6406 1143.1816 C 1468.7348 1139.6087 1467.7046 1135.0837 1466.6562 1128.5625 L 1463.5312 1117.4375 C 1462.3139 1113.0949 1462.3798 1110.0403 1460.5312 1106.3438 C 1459.1284 1103.5376 1461.9738 1097.524 1462.75 1095.9688 C 1463.8678 1093.7359 1468.9975 1090.2847 1470.7188 1088.5625 C 1473.6951 1085.5861 1471.0694 1082.2857 1471.9062 1078.9375 C 1472.9234 1074.8696 1472.3438 1071.3723 1472.3438 1067.0625 C 1472.3437 1063.0666 1469.3827 1058.6635 1468.7812 1055.6562 C 1468.31 1053.2994 1467.7668 1050.2111 1465.9688 1047.8125 C 1463.3322 1044.2983 1459.1703 1041.1531 1457.3125 1037.4375 C 1456.0183 1034.8485 1457.4067 1033.563 1455.375 1031.5312 C 1452.3976 1028.555 1449.2717 1018.9226 1446.5 1016.8438 C 1444.7427 1015.5271 1437.0892 1013.7943 1435.4062 1013.375 C 1431.6241 1012.4293 1425.0195 1015.3383 1422.7812 1014.2188 C 1419.01 1012.3338 1420.1175 1010.5254 1417.625 1008.0312 C 1415.221 1005.6278 1416.125 998.74095 1416.125 995.4375 C 1416.125 990.4674 1416.6255 987.03025 1418.3438 983.59375 C 1420.2882 979.7038 1424.5516 977.3475 1427.25 973.75 C 1429.5181 970.7253 1432.6711 968.58245 1434.6562 967.09375 C 1438.0221 964.56925 1440.1205 960.8798 1442.8125 958.1875 C 1445.0347 955.9665 1445.6277 950.33815 1447.25 947.09375 C 1449.2152 943.16085 1448.5598 939.84715 1451.6875 936.71875 C 1454.2953 934.11165 1457.7606 930.82015 1459.625 927.09375 C 1461.1076 924.12635 1461.6606 919.58225 1462.5625 915.96875 C 1463.5779 911.90815 1466.4561 908.3088 1469.0312 904.875 C 1471.0028 902.2464 1472.7421 900.384 1474.9375 898.1875 C 1477.7011 895.4244 1477.531 892.8753 1480.3438 890.0625 C 1482.3902 888.0159 1482.522 883.57315 1483.3125 880.40625 C 1484.3317 876.33395 1485.8068 873.9461 1487.75 870.0625 L 1492.9375 859.6875 C 1494.6368 856.2909 1496.9724 852.2981 1497.9062 848.5625 C 1498.7109 845.3434 1502.3145 842.8047 1503.0938 839.6875 C 1503.5666 837.7963 1508.8197 833.96075 1510.5 832.28125 C 1513.8684 828.91191 1517.1999 828.51758 1520.125 825.59375 C 1523.3515 822.36504 1526.2876 823.16185 1527.5312 818.1875 C 1528.329 814.99691 1528.3247 810.2377 1530.7188 807.84375 C 1532.8871 805.67525 1534.5159 800.02976 1535.1562 797.46875 C 1536.0984 793.70052 1538.125 790.26033 1538.125 785.625 C 1538.125 781.23399 1539.9993 778.18907 1541.8438 774.5 C 1543.5411 771.10476 1544.841 767.75587 1546.2812 764.875 C 1548.0693 761.29903 1548.4688 756.03129 1549.9688 752.28125 C 1551.2822 748.99794 1549.9688 741.84371 1549.9688 738.21875 C 1549.9688 732.93528 1551.7729 729.53949 1552.9375 724.875 C 1553.7944 721.44968 1552.9375 716.55591 1552.9375 713.03125 C 1552.9375 709.18125 1553.6875 705.20938 1553.6875 701.15625 C 1553.6875 696.97406 1557.0579 693.21294 1556.6562 689.3125 C 1556.6094 688.858 1556.5983 688.68663 1556.5547 688.25391 L 1537.002 669.08398 L 1536.0645 677.77148 L 1534.502 682.49023 L 1524.1582 667.83398 L 1523.6582 669.86523 L 1524.002 673.08398 L 1521.4707 677.83398 L 1518.4082 680.05273 L 1509.4395 666.33398 L 1497.0645 663.42773 L 1489.0957 670.05273 L 1449.627 628.67773 L 1456.0645 622.61523 L 1462.1582 604.64648 L 1462.8457 589.42773 L 1422.1895 550.11523 L 1428.627 546.39648 L 1433.0332 550.11523 L 1457.7832 521.30273 L 1405.252 462.70898 L 1407.627 461.67773 L 1399.502 448.14648 L 1408.127 440.42773 L 1395.9082 427.49023 L 1409.3145 413.83398 L 1405.252 410.02148 L 1406.4395 408.08398 L 1411.4707 412.64648 L 1414.3457 410.74023 L 1405.502 402.33398 L 1409.3145 400.42773 L 1407.1582 397.30273 L 1411.002 396.11523 L 1410.2832 389.39648 L 1417.002 386.05273 L 1418.9082 387.49023 L 1425.127 384.14648 L 1428.9707 387.95898 L 1435.6895 379.11523 L 1433.0332 375.02148 L 1435.1895 371.67773 L 1433.752 369.52148 L 1434.4707 368.55273 L 1436.627 370.49023 L 1438.5332 368.55273 L 1401.7754 330.71875 z M 1329 372.125 C 1328.984 372.1238 1328.9562 372.1413 1328.9062 372.1875 C 1320.5584 380.00003 1304.5988 383.32337 1300 375.03125 C 1294.4205 387.54102 1285.8868 399.92575 1277.375 408.4375 C 1271.2014 414.61115 1268.1898 428.21566 1261.4688 434.9375 C 1257.8874 438.51646 1248.6098 448.12545 1251.5625 455.5 C 1253.2373 450.58174 1257.5838 450.60365 1260.625 447.5625 C 1263.0854 445.10206 1262.638 440.29948 1265.125 437.8125 C 1269.6003 433.33719 1275.4538 430.73367 1279.625 426.5625 C 1283.4705 422.71695 1287.5064 414.54964 1290.125 409.3125 C 1291.7067 406.14906 1303.9348 392.75266 1306.625 390.0625 C 1313.2673 383.42024 1320.0068 383.76318 1325.7188 377.4375 C 1325.9452 377.1845 1329.2409 372.1433 1329 372.125 z M 1164.7812 518.5625 C 1161.9338 518.57447 1146.3808 522.84958 1147.7812 526.40625 C 1145.151 527.15772 1152.5829 527.08272 1153.1562 527.65625 C 1154.7224 529.22241 1156.1872 531.25075 1156.2812 531.15625 C 1157.2713 530.16647 1160.0126 530.5499 1161.0312 529.53125 C 1162.6806 527.88203 1165.0258 526.66197 1166.6562 525.03125 C 1167.5093 524.17823 1167.486 522.7016 1168.2812 521.90625 C 1168.4117 521.77605 1169.7486 520.24858 1169.1562 519.65625 C 1168.1771 518.67705 1166.1354 519.63541 1165.1562 518.65625 C 1165.0991 518.59885 1164.9713 518.5617 1164.7812 518.5625 z M 1185.8438 524.3125 C 1185.5157 524.34357 1185.2394 524.44832 1185.0312 524.65625 C 1182.6693 527.01815 1177.3945 527.702 1176.6562 530.15625 C 1176.6562 532.07099 1173.6202 535.99521 1175.2812 537.65625 C 1175.6409 538.01578 1180.6461 535.29165 1181.1562 534.78125 C 1183.3259 532.61154 1189.2414 533.69622 1189.6562 533.28125 C 1190.7867 532.15101 1191.0928 530.34482 1192.2812 529.15625 C 1192.4724 528.96512 1192.1562 527.65889 1192.1562 527.28125 C 1192.1562 526.81377 1192.8871 525.38681 1192.5312 525.03125 C 1192.2115 524.71142 1190.4171 525.40625 1190.1562 525.40625 C 1189.5367 525.40625 1187.2658 524.17788 1185.8438 524.3125 z M 1148 531.28125 C 1147.0256 531.25915 1145.6191 531.82225 1145.0312 531.90625 C 1144.2646 533.66081 1139.1562 533.20438 1139.1562 534.90625 C 1139.1562 536.15882 1138.2479 536.87293 1139.5312 538.15625 C 1140.0348 538.65951 1149.7307 532.48071 1148.7812 531.53125 C 1148.6011 531.35115 1148.323 531.28825 1148 531.28125 z M 1166.625 533.03125 C 1165.4799 533.11315 1163.8943 533.78125 1162.8125 533.78125 L 1162.0625 534.5 C 1160.1359 536.42754 1155.1169 539.21297 1150.2188 540.4375 C 1145.8738 541.52369 1144.0059 541.46295 1140.5938 544.875 C 1137.9773 547.49119 1134.1658 541.73322 1132.4375 540.4375 C 1128.7482 537.67034 1122.4289 540.61358 1119.8438 541.90625 C 1115.8002 543.92803 1114.3157 545.24678 1110.9688 548.59375 C 1107.6887 551.87363 1107.0577 553.41568 1105.0312 557.46875 C 1103.3144 560.90266 1103.0539 563.16468 1099.8438 566.375 C 1096.9322 569.28649 1095.1742 573.07129 1092.4375 576.71875 C 1090.3252 579.53553 1087.4124 582.36311 1085.7812 585.625 C 1083.9841 589.2197 1079.1345 591.36026 1076.9062 593.03125 C 1073.5979 595.51267 1070.8931 595.32494 1068.75 597.46875 C 1065.8152 600.40288 1061.0567 602.94227 1057.625 606.375 C 1053.9873 610.01239 1051.3204 612.16557 1047.2812 613.78125 C 1042.5156 615.68756 1041.3641 615.229 1037.625 618.96875 C 1034.7276 621.86414 1032.4023 624.18243 1030.2188 627.09375 C 1029.1273 628.54866 1018.5879 633.04103 1016.1562 634.5 C 1012.1137 636.92562 1009.6391 638.79832 1006.5312 641.90625 C 1003.5914 644.84623 1002.125 647.812 999.125 650.8125 C 996.283 653.65422 993.26785 657.33924 991.71875 660.4375 C 990.04865 663.77769 985.8587 666.29783 983.5625 668.59375 C 980.83005 671.32726 978.8932 671.22985 974.6875 672.28125 C 970.7907 673.25552 968.18445 678.23313 966.53125 680.4375 C 964.21185 683.53 962.96915 686.81171 961.34375 690.0625 C 959.33885 694.07226 957.10235 696.6533 956.15625 700.4375 C 955.42475 703.36368 955.5761 707.97762 954.6875 711.53125 C 953.7301 715.36133 953.35655 717.6049 952.46875 721.15625 C 951.59655 724.64502 948.66155 727.93221 945.78125 730.8125 C 942.77135 733.82239 940.1104 736.49528 939.125 740.4375 C 937.7898 745.77806 938.30465 747.98453 936.15625 752.28125 C 934.68215 755.22939 930.5164 758.67089 928.75 760.4375 C 925.6258 763.56168 923.11755 765.21714 922.09375 769.3125 C 921.38525 772.1464 918.20985 776.13392 916.15625 778.1875 C 914.26275 780.0811 914.6875 785.00869 914.6875 787.84375 C 914.6875 791.99282 914.5965 795.36814 913.1875 798.1875 C 911.57826 801.40623 907.58136 803.49349 905.78125 807.09375 C 904.1335 810.38922 900.07102 814.24905 897.65625 817.46875 C 893.94495 822.41714 891.65914 822.84303 886.53125 824.125 C 881.7823 825.31223 878.63024 830.043 874.6875 833 C 871.57365 835.3354 867.93515 835.31425 865.0625 837.46875 C 861.70451 839.98725 859.55449 842.2267 856.90625 844.875 C 854.08163 847.6996 851.09268 850.7039 848.03125 853 C 844.85336 855.3834 841.2596 854.97715 836.90625 856.71875 C 833.85584 857.93885 832.4496 859.42943 828.9375 860.8125 C 824.34845 862.61968 821.28519 864.08975 817.78125 867.59375 C 815.0724 870.30255 811.57405 873.95325 809.5 876.71875 C 806.94423 880.12635 804.58864 883.09855 802.09375 885.59375 C 799.07067 888.61665 797.67543 890.9465 793.9375 893.75 C 792.2867 894.9881 784.33982 896.625 782.09375 896.625 C 778.77513 896.625 775.8276 896.21875 771.21875 896.21875 C 766.91503 896.21875 762.97614 895.4628 759.125 894.5 C 756.50868 893.846 757.24248 894.1758 754.6875 893.75 L 751.71875 893 C 748.48885 892.1925 743.97402 893 740.625 893 C 738.05873 893 731.64773 889.8494 729.5 889.3125 C 726.24271 888.4985 721.88868 888.5625 719.125 888.5625 L 708.03125 888.5625 L 696.90625 888.5625 C 692.83139 888.5625 688.52172 887.02105 685.8125 886.34375 C 681.62652 885.29715 679.85632 884.50935 676.1875 886.34375 C 674.45727 887.20875 671.48968 893.56565 670.25 895.21875 C 667.92269 898.32155 666.68786 901.7809 664.34375 904.125 C 661.60836 906.8604 659.40597 909.7512 658.40625 913.75 C 657.40962 917.7365 665.8125 917.8382 665.8125 922.625 C 665.8125 928.4822 665.26447 932.2668 662.21875 935.3125 C 659.2146 938.3166 653.39014 939.4849 650.25 942.625 C 646.33975 946.5353 645.88705 943.48325 644.65625 948.40625 C 643.56811 952.75895 642.48928 955.2919 639.53125 958.25 C 637.55986 960.2213 636.96391 966.72355 634.34375 969.34375 C 632.42265 971.26485 623.77669 974.31685 621.375 976.71875 C 618.37081 979.72285 612.63475 980.55265 609.59375 983.59375 C 605.27076 987.91665 604.94729 988.72325 598.40625 990.03125 C 594.55414 990.80195 589.75123 990.03125 585.8125 990.03125 C 580.59613 990.03125 578.31444 988.37885 576.1875 984.125 C 574.01821 979.7864 574.59124 973.90375 571.21875 970.53125 C 567.39776 966.71025 560.45789 969.6097 556.9375 972.25 C 552.30312 975.7258 550.25 975.29955 550.25 981.90625 C 550.25 984.00853 545.90989 984.25429 545.125 986.28125 C 544.37269 988.22395 549.37421 989.94535 549.21875 991.90625 C 549.10479 993.34385 544.02096 995.23955 542.9375 995.78125 C 539.93385 997.28305 547.87541 998.03195 550.25 1000.4062 C 553.13805 1003.2944 556 1005.648 556 1010.25 C 556 1014.7726 542.31611 1013.5625 538.53125 1013.5625 C 536.23871 1013.5625 538.26871 1019.2694 535.375 1020.2812 C 532.02567 1021.4526 526.68212 1018.2712 525.53125 1020.4688 C 525.11468 1021.264 528.16052 1023.8234 526.40625 1024.9688 C 523.51433 1026.8568 515.45405 1027.317 515.46875 1027.625 C 515.81848 1034.9324 511.48078 1036.1687 509.53125 1036.7188 C 508.43031 1041.1224 506.5625 1044.4922 506.5625 1049.2812 C 506.5625 1051.5245 504.79386 1055.9457 506.03125 1058.1875 C 506.98872 1059.9231 511.03125 1059.5135 511.03125 1061.125 C 511.03125 1063.432 511.76307 1066.8914 513.21875 1068.5625 C 517.3108 1073.2609 519.65693 1072.8854 518.75 1079.1562 C 518.43521 1081.3331 521.25962 1081.0922 522.0625 1082.25 C 523.47659 1084.2882 524.14395 1087.0923 527.5625 1089.6562 C 535.3446 1095.3391 532.66898 1099.3777 538.125 1100.75 C 542.89714 1100.75 547.34557 1103.4356 550 1100.7812 C 553.89941 1100.2903 555.70606 1098.7251 559.75 1098.3438 C 563.47769 1099.2754 566.64723 1099.4296 570.59375 1099.8125 C 577.57798 1100.4911 577.29803 1097.1068 578.84375 1094.0312 C 581.94322 1090.9319 588.64076 1090.401 592.34375 1087.625 C 593.99454 1086.3856 601.22268 1084.875 603.46875 1084.875 C 608.28121 1084.875 608.35068 1081.2622 611.5625 1079.6562 C 613.52737 1078.674 620.7088 1080.2642 622.96875 1079.5 C 624.91908 1078.8401 625.02443 1076.3823 627.3125 1077.6875 C 634.85063 1081.9892 631.32108 1080.7118 634.5625 1074.75 C 637.0359 1070.2 639.20773 1068.6273 644.84375 1067.2188 C 651.47947 1065.5593 656.71513 1063.0333 662.625 1059.6562 C 666.67421 1057.3428 669.99003 1055.0412 673 1052.0312 C 676.19614 1048.8352 680.13741 1052.6906 682.75 1053.3438 C 686.58053 1054.3012 687.50785 1059.4676 690.71875 1056.9688 C 699.68055 1049.9942 702.07358 1055.3012 702.6875 1057.7188 C 703.17379 1059.6332 706.78268 1056.7093 708.0625 1055.75 C 709.50681 1054.6657 707.51438 1051.9096 709.1875 1050.1875 C 710.99161 1048.3315 714.96809 1045.8909 716.6875 1045.0312 C 719.79652 1043.477 724.94455 1041.5932 728.03125 1041.5312 C 730.43876 1041.4793 730.95396 1043.4773 732.4375 1041.5 C 732.58568 1037.5471 731.85464 1034.6991 732.375 1029.2812 C 732.73888 1025.4926 735.23962 1021.9792 737.5625 1019.6562 C 740.82059 1016.3984 743.71508 1015.9375 747.9375 1015.9375 C 751.46345 1015.9375 755.55279 1018.7867 759.03125 1019.6562 C 764.21552 1020.9524 765.64783 1023.7701 768.65625 1027.7812 C 771.72895 1031.8782 774.50707 1030.7812 779.125 1030.7812 C 783.00643 1030.7814 788.27308 1034.375 792.4375 1034.375 C 794.19499 1034.375 794.46242 1037.7626 796.0625 1037.9062 C 798.34305 1038.1111 798.42025 1034.4688 800.8125 1034.4688 C 802.85735 1034.4688 803.14325 1039.4158 804.9375 1038.1875 C 808.91138 1035.4674 815.35874 1035.6806 816.875 1035.8438 L 829.9375 1037.25 C 835.17144 1037.8152 834.80187 1033.9688 840.0625 1033.9688 C 844.59919 1033.9688 851.23251 1038.2087 855.875 1039.3125 L 867.78125 1042.1562 C 871.76709 1043.1046 876.61977 1042.1554 879.625 1042.9062 C 883.8794 1043.9698 886.93273 1045.0604 890.6875 1046 C 901.69113 1048.6175 907.19848 1046.1567 913.375 1045.375 C 919.55151 1044.5921 924.9486 1039.1494 926 1038.625 C 927.259 1037.9937 931.09855 1032.7722 931.71875 1031.5312 C 933.11005 1028.749 941.5819 1025.6105 943.5625 1024.125 C 946.4303 1021.9737 949.56285 1018.8981 952.46875 1016.7188 C 955.96835 1014.0938 959.69105 1011.7156 962.09375 1009.3125 C 964.71405 1006.694 967.7536 1003.7785 970.25 1001.9062 C 973.2815 999.63285 975.9502 997.64285 978.375 995.21875 C 980.8367 992.75675 984.33795 990.7559 986.53125 988.5625 C 989.84295 985.251 991.4856 982.10845 993.9375 979.65625 C 996.5281 977.06605 998.44535 975.9237 1001.3438 973.75 C 1005.0824 970.9459 1007.812 970.25045 1010.9688 967.09375 C 1013.261 964.80125 1015.9891 963.8178 1018.375 962.625 C 1022.5072 960.5582 1023.3043 957.71305 1027.2812 956.71875 C 1030.5203 955.90895 1034.4469 951.0221 1036.1562 949.3125 C 1038.7088 946.7601 1041.3732 944.07565 1043.5625 941.15625 C 1045.4422 938.65305 1049.9224 935.5464 1051.7188 933.75 C 1055.0407 930.4281 1055.6431 928.5168 1058.375 924.875 C 1060.8641 921.5555 1061.3587 918.92345 1063.5625 916.71875 C 1066.773 913.51035 1068.9507 912.16435 1070.2188 907.09375 C 1071.3081 902.73605 1070.0784 897.4513 1070.9688 893 C 1071.8961 888.3635 1075.8394 882.82125 1077.625 877.46875 C 1079.0293 873.24895 1078.7849 869.1093 1079.8438 864.875 C 1081.1497 859.6502 1081.4357 855.78635 1083.5625 851.53125 C 1085.1069 848.44425 1089.9484 845.14555 1092.4375 842.65625 C 1096.0547 839.04125 1097.2412 835.63415 1100.5938 832.28125 C 1103.1567 829.71885 1105.5296 823.12545 1107.25 819.6875 C 1109.151 815.88243 1109.5 812.43638 1109.5 807.84375 C 1109.5 803.27034 1109.3863 799.13367 1110.9688 795.96875 C 1112.99 791.92649 1116.2117 787.69979 1117.625 784.875 C 1119.7951 780.53259 1121.7539 776.51957 1122.8125 772.28125 C 1123.8917 767.96784 1127.25 764.73258 1127.25 760.4375 C 1127.25 756.5332 1128.75 752.26982 1128.75 747.84375 C 1128.75 743.59496 1126.0846 739.46258 1125.0312 735.25 C 1124.0959 731.50873 1124.3125 727.4479 1124.3125 723.40625 C 1124.3125 719.12418 1124.0213 714.85268 1125.0312 710.8125 C 1126.3143 705.68024 1127.8027 700.67642 1130.9688 696.71875 C 1134.6783 692.08168 1135.4411 688.4928 1137.625 684.125 C 1139.5471 680.28029 1141.0562 677.77597 1142.0625 673.75 C 1143.0328 669.87326 1146.0498 666.82488 1148.75 664.125 C 1150.9139 661.96022 1152.2503 657.87676 1153.9375 654.5 C 1155.1051 652.16558 1153.9375 646.085 1153.9375 643.40625 L 1153.9375 636.71875 L 1153.9375 631.53125 C 1153.9375 626.81741 1150.2188 622.1738 1150.2188 616.71875 L 1150.2188 603.40625 L 1150.2188 590.8125 C 1150.2188 586.18896 1149.8022 582.05124 1151.7188 578.21875 C 1153.4854 574.68469 1151.4828 567.22739 1152.4375 563.40625 C 1153.4194 559.48177 1156.0876 555.32934 1158.375 552.28125 C 1160.9964 548.78314 1162.3392 545.34806 1165.0312 542.65625 C 1167.7301 539.95761 1168.872 537.27355 1168 533.78125 C 1167.8412 533.1525 1167.3104 532.98215 1166.625 533.03125 z M 1189.0625 538.125 C 1186.5716 538.11718 1181.231 543.39421 1176.5625 547.1875 C 1172.4339 550.28443 1173.7083 547.10357 1170.0625 550.75 C 1166.5688 554.24318 1161.5519 565.54603 1160.4375 570 C 1159.5835 573.42089 1159.5625 577.9108 1159.5625 581.46875 C 1159.5625 586.19742 1158.9194 590.63782 1158.0625 594.0625 C 1157.0897 597.95409 1158.8438 601.44301 1158.8438 605.90625 C 1158.8436 611.0672 1163.1531 620.57988 1165.6875 619.3125 C 1170.0394 617.13697 1175.4307 610.85621 1177.2188 607.28125 C 1179.1318 603.45525 1181.3463 593.24816 1184.0938 591.1875 C 1186.6236 589.29013 1188.4062 582.09464 1189.2812 578.59375 C 1190.5808 573.3951 1187.6875 565.38965 1187.6875 560 C 1187.6875 555.22143 1188.1024 551.74851 1189.1875 547.40625 C 1190.4105 542.7501 1190.6728 540.18812 1190.2812 539.0625 C 1190.0557 538.4143 1189.6377 538.127 1189.0625 538.125 z M 1062.25 542.09375 C 1058.0439 542.20793 1055.0168 544.0488 1050.2812 546.375 C 1048.3167 547.35739 1042.5423 548.87325 1041 550.03125 C 1038.2101 550.54556 1034.7708 552.15459 1030.875 553.375 C 1027.4019 553.375 1024.6953 554.96875 1021.0312 557.21875 C 1016.505 559.99822 1014.3125 559.1719 1010.2812 561.1875 C 1007.6237 562.51625 1002.786 563.3125 999.8125 563.3125 C 995.9312 563.3125 987.01025 555.6875 982.84375 555.6875 C 978.96315 555.6875 976.4929 555.14717 971.5 555.96875 C 968.9354 556.39075 968.83005 560.47421 963.15625 560.9375 C 958.83405 561.29043 951.60105 559.58754 948.53125 560.65625 C 943.55445 562.38884 946.1728 563.09375 940.125 563.09375 C 935.5443 563.09375 934.90725 567.74943 931.78125 569.3125 C 926.68975 571.85824 923.79395 572.98158 920.65625 569.84375 C 920.06505 569.25254 918.9461 566.28106 918.3125 565.65625 C 915.9954 563.37145 912.23027 568.10638 909.6875 569.34375 C 905.39124 571.43441 902.54579 570.65023 897.46875 569.6875 C 889.904 568.25302 887.1904 567.89093 883.625 573.03125 C 881.62945 575.90829 873.5055 575.48162 871.03125 576.71875 C 866.9822 578.74328 865.41836 579.34603 860.03125 579.59375 L 848.5 580.125 C 844.19565 580.32293 837.98756 578.84996 834.4375 580.625 C 831.87394 581.90679 827.75947 584.41154 826.09375 586.625 C 825.05172 588.00969 826.22982 588.94662 825.5 590.40625 C 823.98329 593.43968 823.37093 594.28939 821.90625 597.21875 C 819.98041 601.07041 815.20068 600.11617 812.96875 601.9375 C 807.91175 606.06416 808.24535 609.25435 803.59375 612.9375 C 799.18054 616.43188 797.3377 619.53019 794.6875 623.125 C 792.51591 626.0706 789.16303 630.31052 787.28125 632.28125 C 785.28829 634.36841 780.98324 636.4907 780.03125 638.75 C 779.48298 640.05117 782.61503 641.08115 782.25 642.90625 C 782.01058 644.10333 778.47684 643.488 777.1875 643.96875 C 774.86913 644.83318 773.63205 646.44057 773.09375 648.59375 C 772.62045 650.48694 775.65038 652.9108 775.28125 655.96875 C 775.01397 658.18293 769.95816 659.17744 769.46875 660.15625 C 768.90898 661.27577 770.59567 663.59807 769.28125 664.5625 C 766.33247 666.72612 762.09566 668.38233 759.375 669.0625 C 757.43197 669.54826 757.7462 676.92144 757.3125 678.65625 C 756.79733 680.71979 757.03144 682.75646 757.28125 684.375 C 757.49195 685.74014 758.96448 686.70456 758.53125 688.4375 C 757.55176 692.35546 756.40522 694.12602 754.4375 696.09375 C 751.6848 698.84645 752.44091 703.71875 748.3125 703.71875 C 742.63466 703.71875 742.28028 712.12598 738.90625 715.5 C 738.35793 716.04832 735.45519 713.67149 734.46875 714.34375 C 732.89379 715.4171 729.65776 714.90315 728.59375 715.84375 C 726.50443 717.69074 726.41529 718.96713 725.21875 720.5625 C 724.21939 721.89498 725.27191 723.62093 723.78125 725.21875 C 722.59702 726.4881 720.48657 726.32594 719.40625 727.40625 C 719.02519 727.78731 717.48485 732.15487 715.625 731.90625 C 713.6277 731.63925 712.54297 729.36578 711.34375 728.53125 C 709.38071 727.1652 712.49069 725.00787 711.03125 723.875 C 709.09517 722.37215 709.73239 723.70114 708.84375 722.8125 C 707.32461 721.29336 707.88885 714.96425 706.90625 715.03125 C 705.01904 715.15985 707.51222 722.91986 706.75 725.96875 C 705.68973 730.20983 708.76844 735.98034 704.96875 738.28125 C 701.60947 740.31546 700.80261 742.86736 698.40625 746.0625 C 696.05873 749.19252 698.84879 752.86897 699.46875 755.96875 C 700.01531 758.70158 698.37379 756.62295 698.15625 759.375 C 697.92074 762.35445 699.51024 767.09119 696.75 767.78125 C 691.87085 769.00104 687.53736 769.84069 683.65625 771.78125 C 680.08797 773.56538 674.8061 772.25639 672.1875 774.875 C 670.56151 776.50098 669.53652 778.87368 670.03125 782.1875 C 670.49031 784.77533 670.18651 787.69242 669.65625 790.5 C 668.6523 790.9938 667.6602 791.47497 666.65625 791.96875 C 662.68339 793.92282 661.08697 792.86787 660.21875 795.21875 C 658.74163 799.21835 653.53024 799.49206 650.25 804.875 C 647.92326 807.97731 645.82575 808.5625 641.375 808.5625 C 639.1412 808.5625 636.82126 807.19392 636.03125 808.3125 C 632.30716 813.58546 628.42562 808.11419 627.78125 809.84375 C 626.92748 812.13536 630.69123 812.084 631.9375 814.8125 C 633.19547 817.56818 631.70426 821.41078 631.96875 822.46875 C 632.35855 824.02795 630.08895 824.9178 630.625 826.40625 C 631.26688 828.18853 633.1875 831.1033 633.1875 833.5 C 633.1875 835.5648 631.83455 837.18865 631.90625 838.21875 C 632.00952 839.70305 632.00495 838.53335 630.375 840.15625 C 629.54215 840.98555 630.89623 842.20335 629.90625 845.15625 C 629.29166 846.98935 633.4563 850.45265 633.4375 850.84375 C 633.07811 858.32215 629.24037 857.86905 628 858.96875 C 625.02737 861.60435 623.17353 867.52125 625.25 869.59375 C 627.63984 871.97905 632.56695 874.84205 636.875 875.96875 C 641.15139 877.08715 649.65048 877.4861 653.59375 876.5 C 657.49244 875.5254 655.10832 870.78125 659.15625 870.78125 C 661.96475 870.78125 664.56815 868.5625 668.78125 868.5625 C 674.09172 868.5625 672.95591 870.4487 673.96875 874.5 C 674.83627 877.9701 675.50766 879.35082 680.53125 879.96875 L 690.25 881.15625 C 694.8453 881.7215 698.34757 881.1259 702.34375 882.125 C 705.74182 882.9745 710.8779 881.90625 714.6875 881.90625 C 719.07682 881.90625 721.95656 883.161 725.8125 884.125 C 729.71154 885.0997 732.64309 885.59375 736.90625 885.59375 C 741.1228 885.59375 744.27635 886.8738 748.03125 887.8125 C 752.78156 889.0001 759.35447 887.8125 764.3125 887.8125 C 769.38618 887.8125 773.56002 888.8509 778.40625 890.0625 C 782.03956 890.9708 786.66808 889.9785 789.5 888.5625 C 793.15105 886.737 796.76585 880.5779 798.40625 878.9375 C 800.87158 876.4722 802.40658 875.5545 805.8125 873 C 808.26077 871.1638 810.73524 864.38995 813.21875 861.90625 C 816.79505 858.33025 817.88304 855.1053 822.09375 853 C 824.42817 851.8328 829.54 852.125 832.21875 852.125 C 838.00784 852.125 837.66874 849.7375 840.71875 846.6875 C 844.03466 843.3716 850.12232 842.0339 853.21875 838.9375 C 857.11312 835.0431 858.66688 834.1449 859.875 829.3125 C 860.99159 824.84609 867.48201 825.59375 870.96875 825.59375 C 875.2783 825.59375 877.72747 824.05378 880.625 821.15625 C 883.9763 817.80495 888.54683 815.33596 891.71875 813.75 C 895.92325 811.64775 898.68071 811.12089 899.875 806.34375 C 900.62742 803.33403 900.67164 799.4072 901.34375 796.71875 C 902.13091 793.57007 906.7947 790.45082 908.75 787.84375 C 910.16549 785.95643 909.5 777.03122 909.5 774.5 C 909.5 771.23938 916.10895 766.56443 916.90625 763.375 C 918.12415 758.50296 918.38485 756.7402 922.09375 753.03125 C 924.98225 750.14272 928.52565 747.38252 930.96875 744.125 C 933.86535 740.26297 934.32755 736.10267 936.15625 731.53125 C 937.96945 726.99829 941.8668 725.10222 945.0625 721.90625 L 947.28125 719.6875 C 949.41915 717.54957 949.6537 708.6057 950.25 705.625 C 951.0688 701.52968 950.25 696.46095 950.25 692.28125 C 950.25 687.25783 951.33725 684.21339 952.46875 679.6875 C 953.35685 676.1348 955.9865 673.91944 958.375 671.53125 C 961.9261 667.97999 963.68625 666.25121 966.53125 663.40625 C 969.26455 660.67282 971.8487 658.08901 974.6875 655.25 C 978.3747 651.56303 979.78595 648.65278 983.5625 644.875 C 987.198 641.24003 989.38845 639.08029 992.46875 636 C 996.34825 632.12052 998.577 631.02073 1002.8125 627.84375 C 1006.3538 625.18804 1009.4488 623.45755 1012.4688 620.4375 C 1016.7843 616.12202 1024.2959 615.23408 1028 611.53125 C 1029.9463 609.58383 1034.9653 607.70406 1037.625 606.375 C 1041.4764 604.44919 1046.2108 600.7566 1048.75 598.21875 C 1052.0833 594.88464 1057.0666 594.33953 1060.5938 590.8125 C 1063.5132 587.89293 1065.9583 586.73917 1068 582.65625 C 1070.1096 578.43581 1070.9688 576.01598 1070.9688 570.8125 C 1070.9688 565.91 1070.3234 566.79132 1071.8125 563.8125 C 1074.5671 558.88812 1090.0689 550.21694 1094.9375 543.90625 C 1093.7041 544.40005 1088.2346 544.7562 1087 545.25 C 1084.3059 546.32712 1085.0079 546.22797 1082.125 545.625 L 1073.1562 543.75 C 1069.7008 543.75 1067.8992 542.15625 1064.125 542.15625 C 1063.4664 542.09875 1062.8505 542.07745 1062.25 542.09375 z M 940.96875 545.96875 C 937.98141 546.1586 933.82487 548.819 933.40625 549.65625 C 932.18066 552.10743 930.03645 553.73612 927.53125 555.40625 C 928.37222 562.76985 937.9809 560.3316 941.40625 556.90625 C 942.72565 555.58685 947.15283 557.53467 948.53125 556.15625 C 949.61871 555.06879 945.9341 552.3091 945.65625 552.03125 C 944.36459 550.73958 944.57292 547.94791 943.28125 546.65625 C 942.8459 546.2209 942.25363 546.00765 941.5625 545.96875 C 941.37532 545.95825 941.16791 545.95605 940.96875 545.96875 z M 902.25 551.8125 C 899.30291 551.69702 895.74886 553.65625 893.65625 553.65625 C 890.42539 553.65625 887.81472 554.38417 886.40625 556.65625 C 888.0811 558.33109 888.38833 560.38833 889.78125 561.78125 C 891.48325 563.48324 902.22969 569.70781 905.65625 566.28125 C 906.53288 565.40462 909.45636 566.73114 910.28125 565.90625 C 912.15969 564.02781 913.99728 561.42323 916.53125 560.15625 C 920.3654 558.23918 921.34102 563.59648 924.90625 560.03125 C 926.40386 558.53364 920.32539 556.15625 919.40625 556.15625 C 916.24901 556.15625 907.06552 553.73588 904.15625 552.28125 C 903.56435 551.9853 902.9301 551.8392 902.25 551.8125 z M 926.65625 560.03125 C 925.74507 560.94243 924.15625 563.52775 924.15625 565.40625 C 924.15625 566.27484 924.08289 568.08289 924.53125 568.53125 C 924.57151 568.57151 932.4464 563.86154 931.53125 562.03125 C 931.1865 561.34175 930.0344 561.72032 929.40625 561.40625 C 928.19269 560.79947 926.98437 559.93165 926.65625 560.03125 z M 883.11523 562.95898 C 882.97193 562.9537 882.82937 562.95666 882.6875 562.96875 C 879.5892 563.23264 877.19946 567.93254 874.6875 569.25 C 870.98467 571.19204 868.16582 570.75892 866.1875 575.375 C 872.75005 574.37041 879.505 572.4325 883.3125 568.625 C 884.24129 567.69621 881.10638 566.83112 881.6875 566.25 C 882.02266 565.91484 887.1485 565.461 886.1875 564.5 C 885.15439 563.46689 884.1184 562.99595 883.11523 562.95898 z M 844.53516 575.86914 C 844.36786 575.86567 844.1988 575.869 844.03125 575.875 C 843.02594 575.9112 842.00202 576.10514 841.03125 575.90625 C 840.40949 580.88037 858.62598 577.84835 845.03125 575.90625 C 844.86798 575.88295 844.70245 575.87262 844.53516 575.86914 z M 1201.0625 590.03125 C 1196.3354 590.70673 1199.3514 593.67835 1197 596.03125 C 1195.8204 597.20976 1193.7421 597.50899 1192.5625 598.6875 C 1189.2292 602.02108 1190.3709 610.59777 1187.0938 613.875 C 1185.8531 615.11551 1185.894 617.9178 1184.625 619.1875 C 1182.4592 621.35254 1168.5182 631.39172 1175.0625 637.9375 C 1177.6205 640.49486 1177.9946 631.30861 1178.25 631.5625 C 1181.4565 634.76915 1181.4414 639.49752 1187.4375 633.5 C 1192.1676 628.77045 1192.3816 614.43212 1197.6875 609.125 C 1201.6277 605.18627 1200.2763 597.1053 1201.0625 590.03125 z M 794.28125 615.59375 C 793.47977 615.55399 791.86036 617.2417 790.46875 617.9375 C 789.44201 618.45087 787.88673 619.14452 787.21875 619.8125 C 786.82756 620.20369 783.14268 624.17392 784.03125 625.0625 C 784.72859 625.75983 787.95324 625.453 788.59375 624.8125 C 789.67866 623.72759 791.16476 621.36649 792.59375 619.9375 C 794.77665 617.75458 795.40717 616.62184 794.5625 615.71875 C 794.48471 615.63555 794.39575 615.59975 794.28125 615.59375 z M 1189.3438 648.125 C 1188.1618 648.0474 1180.0851 652.76662 1179 654.9375 C 1176.6322 659.67012 1176.5169 662.28969 1175.4062 667.84375 C 1174.6881 671.43359 1173.2812 675.81263 1173.2812 679.5 C 1173.2814 684.58088 1172.82 686.6356 1170.3125 690.8125 C 1168.481 693.86611 1164.6422 697.82591 1163 699.46875 C 1160.5254 701.94144 1161.6073 707.60303 1160.7188 711.15625 C 1159.9116 714.38618 1158.25 724.90097 1158.25 728.25 C 1158.25 732.81861 1170.9375 725.43761 1173.1875 724.875 C 1177.3986 723.82251 1183.2582 718.64633 1183.8125 715.875 C 1184.6636 711.62901 1184.2812 707.48751 1184.2812 702.65625 L 1184.2812 690.8125 C 1184.2812 686.05721 1185.498 682.35111 1186.5312 678.21875 C 1187.5972 673.95552 1188.7486 670.7838 1190.9688 666.34375 C 1192.7629 662.75459 1194.1082 659.34589 1196.1562 655.25 C 1198.7432 650.07663 1193.2387 647.08572 1189.4688 648.59375 C 1189.5466 648.28128 1189.5128 648.1361 1189.3438 648.125 z M 1168.0938 665.84375 C 1166.9295 666.18721 1157.9463 688.76226 1157.5 691 C 1157.728 690.53998 1156.0611 697.62624 1150.0938 703.59375 C 1146.3571 707.33077 1144.25 716.57279 1144.25 721.625 L 1144.25 734.21875 C 1144.25 741.87587 1149.4375 730.64147 1149.4375 726.8125 C 1149.4375 722.75257 1151.4106 712.39402 1152.3125 708.78125 C 1153.3243 704.73496 1156.39 699.65368 1158.9688 697.6875 C 1162.2533 695.18291 1170.8614 676.78991 1169 668.875 C 1168.4498 666.54373 1168.6454 665.84375 1168.0938 665.84375 z M 1560.5059 676.08008 C 1561.5784 681.3961 1561.5326 685.83191 1560.3438 690.8125 C 1559.4648 694.49458 1558.875 698.5763 1558.875 702.65625 C 1558.875 706.43226 1559.7817 711.62013 1558.875 715.25 C 1558.0079 718.71195 1558.125 722.47881 1558.125 726.34375 C 1558.125 731.15444 1558.1979 735.01986 1557.3438 739.25 L 1555.1562 750.0625 C 1554.172 754.93754 1553.0692 757.50294 1552.1875 761.90625 C 1551.2428 766.63482 1551.7382 769.83486 1549.625 774.0625 C 1548.2461 776.81823 1545.8125 780.13823 1545.8125 784.75 C 1545.8125 789.66373 1543.2332 792.44022 1541.0938 796.71875 C 1539.1362 800.63383 1538.4583 802.38291 1537.375 806.71875 C 1536.5406 810.05249 1535.5175 815.6398 1533.3125 817.84375 C 1528.7455 824.16091 1529.9259 830.7998 1521.5938 833.75 C 1519.1876 836.1563 1516.1164 837.75865 1512.7188 841.15625 C 1510.4209 843.45405 1507.5638 844.8122 1505.3125 847.8125 C 1502.7455 851.2361 1501.9764 855.8015 1499.625 858.9375 C 1496.5326 863.0603 1495.1341 864.1698 1492.9375 868.5625 C 1491.0553 872.3269 1490.4354 875.0644 1488.5 878.9375 C 1486.5326 882.8709 1487.4536 884.6232 1486.2812 889.3125 C 1485.0287 894.323 1485.9778 894.5532 1482.3438 898.1875 C 1480.7059 899.8252 1476.3318 903.02305 1475.6875 905.59375 C 1474.8995 908.74585 1469.9688 912.12085 1469.9688 915.96875 C 1469.9687 920.83555 1468.7385 922.92975 1467.0312 926.34375 C 1465.0577 930.29055 1461.5756 933.9737 1459.8438 937.4375 C 1458.3112 940.5023 1454.9849 942.68685 1453.1562 946.34375 C 1451.8293 948.99755 1451.2124 951.99375 1450.2188 955.96875 C 1449.1718 960.15615 1444.6499 962.24955 1445.4688 966.34375 C 1446.2338 970.17015 1445.9357 974.9285 1446.9375 978.9375 C 1447.5862 981.08962 1458.612 994.09127 1452.4375 997.4375 C 1448.7891 998.3501 1446.0232 999.9405 1447.25 1004.8438 C 1448.1483 1008.4407 1448.2908 1010.3514 1450.9375 1013 C 1453.7183 1015.7787 1456.9036 1018.2767 1458.3438 1021.1562 C 1459.9128 1024.2948 1460.853 1026.4606 1463.5312 1030.0312 C 1465.3202 1032.4166 1467.0031 1036.0673 1468.4375 1038.9375 C 1469.9105 1041.8804 1477.0938 1044.8016 1477.0938 1048.5625 C 1477.0937 1054.1023 1478.2232 1056.0449 1479.3125 1060.4062 C 1479.9837 1063.0895 1481.6227 1068.1472 1482.2812 1070.7812 C 1482.5765 1071.9618 1483.5646 1077.5298 1481.6875 1080.0312 C 1479.9866 1082.302 1482.9172 1087.4579 1480.3438 1090.0312 C 1479.5231 1090.8519 1473.875 1095.6331 1473.875 1097.4375 C 1463.5836 1102.0333 1468.2385 1107.4394 1470.9375 1114.4688 L 1473.4375 1125.5938 C 1476.2882 1138.3035 1477.2059 1141.333 1476.9395 1147.4023 L 1477.4082 1147.2402 L 1512.6582 1184.834 L 1513.1582 1182.459 L 1510.7832 1161.8027 L 1515.0332 1157.7402 L 1525.6895 1167.5527 L 1539.6582 1154.084 L 1540.127 1106.8965 L 1549.7207 1104.2715 L 1544.1895 1091.334 L 1525.502 1071.6777 L 1534.627 1069.5215 L 1536.0645 1049.3965 L 1531.252 1049.1465 L 1535.5645 1046.7715 L 1535.8145 1043.8965 L 1537.502 1040.7715 L 1531.0332 1033.1152 L 1531.1582 1030.5215 L 1531.252 1028.5527 L 1536.2832 1028.5527 L 1540.127 1014.1777 L 1533.6582 1007.959 L 1541.5645 998.14648 L 1538.6895 994.05273 L 1544.1895 987.58398 L 1543.9707 975.61523 L 1554.252 977.30273 L 1558.3457 973.70898 L 1555.4707 971.30273 L 1556.1895 969.39648 L 1558.0957 969.39648 L 1561.4395 972.99023 L 1571.252 976.33398 L 1572.9395 972.74023 L 1579.4082 968.89648 L 1580.5957 968.89648 L 1580.127 960.52148 L 1581.5645 960.52148 L 1580.5957 952.61523 L 1577.252 948.05273 L 1583.252 941.11523 L 1555.9395 915.24023 L 1544.1582 901.77148 C 1550.5839 885.25408 1561.071 879.29948 1571.9395 874.33398 L 1575.3145 868.58398 L 1590.5645 883.14648 L 1616.3145 860.86523 L 1609.8457 855.58398 L 1619.9082 845.52148 L 1626.127 844.08398 L 1633.3145 831.86523 L 1634.2832 814.14648 L 1618.2207 798.11523 L 1625.877 751.61523 L 1629.9707 755.20898 L 1633.0645 753.05273 L 1560.5059 676.08008 z M 732.03125 692.84375 C 731.37301 692.80865 730.71382 692.87715 730.28125 693.0625 C 727.81195 693.66261 730.08909 698.78375 732.75 696.59375 C 735.96015 693.95171 734.00598 692.94898 732.03125 692.84375 z M 737.71875 698.4375 C 736.62028 698.5209 732.76184 700.08971 731.09375 699.4375 C 730.03413 701.02693 731.66348 707.52401 733.90625 705.28125 C 734.8148 704.37268 733.87715 701.68538 734.875 700.6875 C 735.58003 699.98247 737.00704 699.7117 737.71875 699 C 738.15377 698.56498 738.08491 698.4097 737.71875 698.4375 z M 722.53125 700.78125 C 721.636 702.12412 720.44122 702.84747 721.90625 704.3125 C 725.19874 707.60499 726.98978 700.67973 722.53125 700.78125 z M 719.5 703.34375 C 717.04258 703.58875 717.8096 710.65915 719.53125 708.9375 C 720.40254 708.06629 721.31479 704.12151 719.5 703.34375 z M 715.65625 703.9375 C 715.23433 703.9768 714.6406 704.1719 714.5625 704.25 C 713.38898 705.23425 711.91271 703.81074 710.1875 705.15625 C 707.89467 707.44908 710.46839 712.87536 713.46875 709.875 C 714.30917 709.03458 715.37474 708.59401 716.09375 707.875 C 716.4014 707.71768 716.4827 704.14595 716 703.96875 C 715.9253 703.94155 715.79689 703.9244 715.65625 703.9375 z M 741.09375 705.40625 C 740.86911 705.37235 740.50471 705.58904 739.9375 706.15625 C 738.98204 707.11171 737.2176 708.03027 737.1875 709 C 736.61325 710.33993 737.81663 714.55837 738.59375 713.78125 C 739.15844 713.21656 742.30683 705.58932 741.09375 705.40625 z M 700.6875 710.15625 C 700.6875 710.56608 699.53771 715.43104 699 715.96875 C 698.54425 716.4245 699.26462 718.68549 699.375 718.90625 C 700.4792 721.11463 697.8895 727.952 699.96875 730.03125 C 701.25003 731.31253 702.19823 728.36428 702.375 728.1875 C 703.93228 726.63023 701.46875 720.81842 701.46875 719.5 C 701.46875 717.46312 702.90516 711.84266 702.71875 711.65625 C 702.10107 711.03858 701.65354 710.5348 700.6875 710.15625 z M 720.98242 713.24805 C 720.8665 713.2377 720.73618 713.23845 720.59375 713.25 C 719.45432 713.3424 717.59742 714.06066 716.78125 714.46875 C 713.90835 716.15657 714.39951 716.36167 714.84375 719.78125 C 714.84375 722.72404 718.52846 720.31529 719.34375 719.5 C 720.14455 718.69921 719.30315 716.54058 720.03125 715.8125 C 721.87184 713.97192 721.79386 713.32044 720.98242 713.24805 z M 1182.8125 724 C 1181.5924 723.9541 1178.8241 725.75973 1176.1562 727.09375 C 1172.5204 728.91179 1172.1682 731.2484 1168 733.75 C 1168 733.13152 1160.3315 738.48073 1159.125 739.6875 C 1156.8333 741.97879 1151.2188 745.10316 1151.2188 749.125 C 1151.2188 753.70869 1150.5432 756.44079 1148.25 759.5 C 1145.6123 763.01649 1149.125 766.21371 1149.125 769.59375 C 1149.125 773.00994 1157.8315 769.26391 1157.625 764.875 C 1160.8016 761.69795 1162.9977 758.75209 1165.7812 755.96875 C 1169.1236 752.62617 1170.1316 747.9513 1172.4375 744.875 C 1174.9395 741.541 1177.4055 739.84289 1178.375 735.96875 C 1179.1022 733.05467 1180.9611 730.76744 1182.0625 728.5625 C 1183.7575 725.17543 1183.7627 724.0357 1182.8125 724 z M 666.65625 765.46875 C 662.89844 765.72277 663.7527 772.27854 665.78125 770.25 C 666.25546 769.77578 666.18139 768.41236 666.65625 767.9375 C 667.46643 767.10283 666.67965 765.53395 666.65625 765.46875 z M 669.90625 767.5 C 668.72465 767.6695 666.47324 770.41073 667.3125 771.25 C 667.62531 771.5628 669.05367 774.63383 670.03125 773.65625 C 671.20814 772.47936 671.12319 769.5354 670.5 767.875 C 670.39115 767.585 670.17893 767.4609 669.90625 767.5 z M 1148.8438 777.65625 C 1144.0763 779.01837 1143.6915 786.30853 1140.0938 789.90625 C 1139.3937 790.60607 1139.3555 792.45695 1138.5938 793.21875 C 1137.3474 794.46508 1136.3964 796.16588 1135.2188 797.34375 C 1134.7251 797.83771 1134.9515 799.06621 1134.6562 799.65625 C 1134.5617 799.84555 1133.8438 800.65425 1133.8438 800.71875 C 1133.8438 801.52347 1135.3737 800.20363 1136.0938 799.84375 C 1138.4763 798.65247 1139.1255 796.4998 1140.9062 794.71875 C 1144.0518 791.57323 1143.8798 783.37042 1147.6562 779.59375 C 1148.1255 779.12447 1148.2105 778.56255 1148.6562 777.96875 L 1148.8438 777.65625 z M 1089.2812 859.84375 C 1086.87 860.04525 1084.6875 866.44405 1084.6875 869.40625 C 1084.6875 873.58575 1083.9231 883.44118 1084.8125 888.03125 C 1085.7827 893.02163 1086.3274 899.74147 1087.2812 903.6875 C 1088.4127 908.36657 1091.42 902.7036 1092.5 901.625 C 1094.5478 899.5777 1095.0394 886.92265 1094.4688 885.78125 C 1093.0519 882.94745 1092.4062 877.72355 1092.4062 874.34375 C 1091.9883 870.59817 1094.076 864.32346 1089.2812 859.84375 z M 1097.5938 873.46875 C 1096.8576 873.6149 1097.8741 901.89878 1095.8125 912.09375 C 1095.1017 915.61499 1097.599 919.92415 1099.4375 920.84375 C 1102.9031 922.57655 1103.0586 925.72865 1104.375 920.46875 C 1101.853 913.13469 1100.6513 893.98713 1098.125 875.875 C 1097.888 874.18932 1097.7142 873.44485 1097.5938 873.46875 z M 668.375 877 C 665.67495 877.02209 657.28006 879.60447 655.78125 879.78125 C 656.429 880.75287 662.39263 887.60737 664.84375 885.15625 C 665.37953 884.62048 665.36418 883.76082 665.84375 883.28125 C 666.11802 883.00698 668.09375 880.70708 668.09375 880.53125 C 668.09375 879.71785 670.77429 878.77428 669.15625 877.15625 C 669.04015 877.0402 668.76072 876.997 668.375 877 z M 672.15625 879.15625 C 671.86498 880.33782 670.90625 881.0562 670.90625 882.15625 C 670.90625 889.69347 675.33369 879.15625 672.15625 879.15625 z M 621.375 879.6875 C 617.01312 879.6875 614.65795 883.0461 611 884.875 C 606.44511 887.1525 605.73319 884.954 601.375 889.3125 C 598.87294 891.8146 597.64631 895.7562 596.1875 898.1875 C 594.36209 901.2299 590.40341 901.6307 588.78125 904.875 C 586.94029 908.5569 588.9748 911.8423 584.34375 913 C 580.81481 913.8823 578.46553 918.1735 575.4375 919.6875 C 570.97489 921.9188 569.12546 922.56105 567.3125 927.09375 C 565.66354 931.21595 562.53602 932.28125 558.40625 932.28125 C 555.42033 932.28125 552.28592 940.4813 551.75 942.625 C 551.53194 943.49726 550.41632 947.18558 550.6875 948.78125 C 551.21862 951.90639 553.53125 953.48841 553.53125 955.5625 C 553.53125 958.1091 545.17454 957.85847 546.4375 962 C 547.52015 965.55026 553.47754 964.13385 557.03125 963.0625 L 565.8125 960.40625 C 569.60077 959.26419 573.76094 962.74045 574.9375 965.09375 C 576.70927 968.63705 576.69187 969.17405 579.65625 970.65625 C 583.15425 972.40525 586.77512 977.34375 590.875 977.34375 L 602 977.34375 C 606.37491 977.34375 604.78097 972.25 609.53125 972.25 C 614.63091 972.25 616.37382 969.12625 619.15625 966.34375 C 621.98815 963.51165 626.367 961.5785 627.5625 959.1875 C 629.61098 955.0905 635.62783 954.1135 636.59375 950.25 C 637.39558 947.0425 637.75175 945.1866 640.5 943.8125 C 644.01204 942.0566 643.72164 941.0285 646.5625 938.1875 C 649.98279 934.7672 649.28376 931.38215 654.6875 930.03125 C 656.26657 929.63655 653.125 916.65105 653.125 915.21875 L 657.375 907.625 C 657.375 902.3598 662.93752 901.2096 662.9375 897.75 C 662.31376 884.86245 659.65267 896.61802 654.34375 886.8125 C 652.45849 883.33044 647.14051 882.39341 642.65625 881.8125 L 631.75 880.40625 C 628.8989 880.03691 624.75275 879.6875 621.375 879.6875 z M 143.07422 895.70508 L 143.2207 898.58398 C 145.04104 897.95919 145.79728 897.17228 144.8125 896.1875 C 144.48705 895.86206 143.87771 895.75911 143.07422 895.70508 z M 1076.1875 904.3125 C 1072.7926 912.0088 1079.284 914.84129 1070.1562 921.6875 C 1068.1126 924.4122 1064.2559 923.46045 1062.0938 926.34375 C 1059.4556 929.86095 1058.3229 931.32925 1055.4062 935.21875 C 1052.6181 938.93625 1051.1793 940.9451 1048.75 943.375 C 1046.163 945.9615 1042.9416 949.18345 1040.5938 951.53125 C 1037.8782 954.24685 1035.5229 955.8534 1033.1875 958.1875 C 1029.9568 961.4194 1026.7521 961.4059 1022.8125 963.375 C 1018.8762 965.3437 1017.4079 966.5933 1014.6875 969.3125 C 1011.8491 972.1532 1009.4715 974.51345 1006.5312 976.71875 C 1003.7647 978.79385 1002.0371 980.45005 999.125 981.90625 C 995.124 983.90665 993.36985 984.66235 990.21875 987.8125 C 987.23865 990.7926 985.5087 992.82705 983.5625 996.71875 C 981.89185 1000.0621 978.55745 1002.4425 975.40625 1005.5938 C 972.37925 1008.6207 970.1142 1009.4171 968 1011.5312 C 966.0288 1013.5028 960.7364 1016.2582 958.375 1017.4375 C 955.7373 1018.7574 954.07285 1020.8584 951.71875 1022.625 C 948.69085 1024.8958 947.2445 1027.1 944.3125 1030.0312 C 941.1309 1033.2135 938.4189 1034.8528 934.6875 1036.7188 C 931.4126 1038.3558 929.49055 1039.6646 926.53125 1042.625 C 923.82835 1045.3267 917.47055 1046.622 914.34375 1049.75 C 911.73225 1052.3614 922.84605 1057.5045 923.40625 1058.625 C 939.06855 1074.1863 933.22924 1067.3529 940.96875 1073.375 C 948.70827 1079.3958 958.58265 1079.6562 962.84375 1079.6562 C 967.22265 1079.6562 971.0582 1080.003 974.6875 1078.1875 C 978.6708 1076.1966 981.58245 1076.625 986.53125 1076.625 C 992.79445 1076.625 992.43795 1074.9298 996.96875 1071.5312 C 1001.293 1068.2879 1005.009 1063.3963 1008.75 1059.6562 C 1011.9495 1056.4548 1013.4755 1053.6825 1017.3438 1050.7812 C 1020.2304 1048.6162 1021.0242 1044.8487 1023.25 1042.625 C 1026.6674 1039.2056 1029.9319 1034.7471 1032.9062 1030.7812 C 1035.2325 1027.6798 1038.7604 1024.9343 1041.0312 1021.9062 C 1043.6156 1018.4612 1045.437 1013.8338 1047.7188 1010.0312 C 1049.7731 1006.6073 1052.2328 1002.0077 1053.1875 998.1875 C 1054.336 993.6024 1053.1363 993.8515 1055.0938 989.9375 C 1056.7569 986.6106 1055.7195 981.4375 1056.5625 978.0625 C 1057.3831 974.7866 1062.3814 973.0437 1065.3438 971.5625 C 1070.1256 969.1716 1075.1365 965.8624 1078.375 962.625 C 1081.7835 959.216 1083.1757 956.8974 1085.125 953 C 1086.7941 949.6589 1084.375 944.29815 1084.375 941.15625 C 1084.375 937.28195 1079.1562 935.6449 1079.1562 931.8125 L 1079.1562 919.96875 C 1079.1562 917.91585 1077.6802 905.0582 1076.1875 904.3125 z M 182.18164 946.00391 C 182.06012 946.02469 181.92941 946.10185 181.78125 946.25 C 181.47836 946.56192 181.22724 946.87774 180.99609 947.19336 L 175.7832 970.14648 L 160.4707 1037.584 L 142.0332 1118.8652 L 206.93945 1130.6777 L 240.6582 1190.2715 L 240.37695 1190.2109 L 203.37695 1210.8672 L 206.9707 1218.0547 L 184.9082 1229.5547 L 170.7832 1214.4609 L 157.37695 1227.8672 L 171.50195 1243.2109 C 171.50195 1243.2109 169.34546 1246.815 166.4707 1249.2109 C 163.59595 1251.6064 165.7517 1249.2113 162.87695 1252.8047 C 160.00219 1256.3982 161.21008 1256.1382 158.81445 1258.0547 C 156.41882 1259.9712 155.93914 1260.4611 152.3457 1262.6172 C 148.75226 1264.7733 150.64758 1264.7734 148.25195 1264.7734 C 145.85632 1264.7734 147.06427 1262.6277 144.9082 1266.4609 C 142.75213 1270.2938 142.99139 1271.482 141.31445 1273.3984 C 139.6375 1275.3151 140.11639 1274.8361 138.43945 1276.2734 C 136.76251 1277.711 136.2727 1276.2738 135.31445 1279.1484 C 134.3562 1282.0234 135.33515 1282.7319 133.6582 1283.9297 C 131.98126 1285.1275 131.26226 1285.867 130.06445 1286.5859 C 128.86663 1287.3043 127.9082 1289.6797 127.9082 1289.6797 L 126.2207 1292.8047 L 134.50195 1301.7734 L 112.93945 1322.2109 L 118.3457 1333.5859 L 115.9082 1334.2422 L 110.1582 1356.7109 L 109.18945 1355.4297 L 101.56445 1352.0234 L 100.56445 1353.2109 L 92.939453 1352.9297 L 84.189453 1344.1797 L 82.158203 1345.9922 L 80.345703 1343.7109 L 64.658203 1357.8047 L 48.064453 1339.8359 L 48.720703 1337.8047 L 46.783203 1335.8047 L 35.189453 1395.7422 L 57.939453 1432.6484 L 56.595703 1433.4609 L 70.761719 1457.8184 C 74.990666 1452.6617 79.69752 1446.9329 83.4375 1445.0625 C 89.24847 1442.1589 99.2659 1443.2595 106.65625 1441.7812 C 111.59162 1440.7944 110.60225 1426.2153 116.46875 1424.75 C 121.82381 1423.4112 126.89879 1418.9044 131.5625 1415.4062 C 136.71357 1411.5431 144.84302 1406.5194 150.6875 1401.8438 C 156.3255 1397.3332 167.06812 1396.0425 172 1389.0312 C 173.41115 1387.0251 180.65135 1380.9751 182.0625 1378.9688 C 188.00193 1375.9992 207.97381 1379.2651 214.59375 1370.5 C 224.18653 1357.7971 209.68152 1355.5684 215.78125 1349.4688 C 216.43193 1348.8182 219.12228 1346.3199 222.58008 1342.4648 C 222.67904 1341.9562 223.02187 1341.515 223.69727 1341.2148 C 227.4496 1336.9025 231.91987 1331.121 235.78125 1324.25 C 244.66985 1308.4318 253.93505 1294.0975 256.5625 1293.5938 C 265.77711 1291.8261 267.8857 1299.7896 273.6875 1296.25 C 280.34546 1289.8351 286.91973 1284.6866 290.78125 1284.0625 C 295.27124 1284.0625 310.3925 1276.3003 314.71875 1275.2188 C 320.82062 1273.693 323.10386 1277.1875 329.65625 1277.1875 C 337.14576 1277.0707 349.32947 1271.8207 358.65625 1276.5625 C 376.32777 1281.0798 374.68033 1283.1622 376 1283.375 C 377.02293 1283.5396 379.82497 1282.5825 394.8125 1280.75 C 398.92939 1283.8358 400.12816 1289.7957 405.4375 1288.4688 C 409.32493 1287.4966 418.01988 1284.2244 421.40625 1282.5312 C 425.33567 1280.5666 430.55125 1278.1308 434.875 1275.9688 C 437.85026 1274.4808 444.87955 1271.5252 446.5625 1269.2812 C 450.69202 1266.7613 453.01223 1267.6345 456.9375 1265.5938 C 460.67938 1263.6481 464.82735 1268.9453 468.53125 1267.0938 C 471.20747 1265.7556 479.89331 1266.8054 485.18555 1266.1895 L 489.73633 1263.6094 C 490.79056 1260.9998 490.50124 1256.7694 492.25 1254.5938 C 493.38732 1252.3189 495.78758 1248.5299 498.15625 1247.9375 C 501.66514 1247.0598 502.11711 1246.9688 506.6875 1246.9688 C 510.03652 1246.9688 512.95759 1240.317 516.1875 1241.125 C 518.94952 1241.8152 518.32363 1239.75 522.1875 1239.75 C 529.9709 1239.75 527.09387 1240.9121 534.09375 1240.25 C 539.1088 1240.25 539.67632 1233.4112 536.625 1232.625 C 534.84748 1232.1656 534.37239 1229.5143 524.96875 1231.375 C 521.1031 1231.375 519.08809 1232.2289 515.4375 1231.5 C 510.06425 1230.4248 506.95492 1226.7355 502.84375 1222.625 C 499.35546 1219.1348 500.15237 1217.1526 496.71875 1213.7188 C 493.90946 1210.909 491.50241 1202.0023 487.84375 1198.3438 C 483.59116 1197.4543 475.25229 1190.6291 473.1875 1183.9688 C 471.69129 1180.7215 461.96 1176.7375 462.1875 1163.8438 L 459.9375 1155 C 459.40774 1152.9175 462.98726 1150.1371 462.78125 1149.0625 C 462.11117 1145.5671 457.13136 1145.1745 458.40625 1142.625 C 459.70781 1140.0217 467.25965 1134.519 465.625 1131.25 C 464.06745 1128.133 460.78987 1126.7695 456.9375 1124.8438 C 454.10857 1123.4291 451.42056 1124.7606 449.28125 1123.1562 C 448.43974 1122.5252 441.19948 1117.1173 440.625 1115.9688 C 439.16915 1113.0568 439.6911 1111.1803 441.375 1107.8125 C 442.79817 1104.9665 444.21374 1101.8336 445.09375 1098.3125 C 445.84567 1095.3053 445.99238 1091.2029 447.3125 1088.5625 C 448.87215 1085.4451 449.4709 1082.6853 452.5 1079.6562 C 454.78186 1077.3747 454.1259 1079.0938 458.875 1079.0938 C 462.19256 1079.0936 465.71703 1069.4688 461.96875 1068.5312 C 459.23775 1067.8488 457.37757 1061.5625 454.5625 1061.5625 C 452.62947 1061.5625 450.18669 1065.7416 448.28125 1066.1562 C 446.78063 1066.483 444.39848 1061.0919 442.90625 1060.7188 C 438.77009 1059.6834 436.37262 1058.9216 431.5625 1057.7188 C 429.33002 1057.1618 423.94508 1055.4932 421.90625 1057.5312 C 420.03849 1059.399 421.63093 1062.4176 418.71875 1063.875 C 415.6339 1065.4158 414.34969 1064.4606 412.375 1067.0938 C 409.72078 1070.6328 410.9759 1071.3641 405.65625 1067.375 C 403.15547 1065.4976 399.94014 1064.8465 397.1875 1062.0938 C 394.04334 1058.9495 392.0226 1059.4153 389.4375 1055.9688 C 386.42252 1051.9486 386.75659 1052.4817 384.53125 1048.0312 C 383.15375 1045.2761 380.8125 1041.2116 380.8125 1037.3438 C 380.8125 1034.1979 381.77463 1028.4688 378.59375 1028.4688 C 374.75745 1028.4688 369.6738 1032.1528 366.0625 1031.25 C 362.11295 1030.2626 358.60969 1029.7812 354.21875 1029.7812 C 349.709 1029.7812 345.08646 1025.3967 341 1024.375 C 338.39129 1023.7228 333.24818 1022.8401 331.78125 1019.9062 C 330.33317 1017.0102 331.48925 1012.9794 329.03125 1011.75 C 325.91832 1010.1934 312.78732 1004.0687 309.46875 1000.75 C 306.92631 998.2074 314.27434 993.65625 311.0625 993.65625 C 305.27734 993.65625 301.59777 997.5957 296.78125 995.1875 C 293.22371 993.4086 288.23172 988 283.1875 988 C 278.4095 988 272.89013 985.17945 268.90625 983.1875 C 265.87403 981.6714 261.93663 981.1869 258.5625 979.5 C 254.84075 977.639 252.38357 973.89275 248.1875 972.84375 C 244.31267 971.87505 240.0095 971.3536 236.3125 969.875 C 233.21688 968.6367 228.52769 965.5147 225.21875 964.6875 C 220.73096 963.5656 217.04096 961.71875 211.875 961.71875 C 205.42664 961.71875 207.34593 957.471 202.875 953 C 199.06843 949.1935 202.29898 948.94194 196.90625 947.59375 C 195.70224 947.29275 188.6281 949.86702 185.8125 949.125 C 183.40943 948.49169 183.03231 945.85842 182.18164 946.00391 z M 1083.0625 966.03125 C 1080.5688 966.15605 1077.3555 971.8346 1076.6562 973 C 1079.9505 976.294 1071.2932 974.4562 1068 977.75 C 1064.5543 981.1957 1062.3222 979.23695 1061.125 984.03125 C 1060.2623 987.47495 1058.2812 997.25055 1058.2812 1000.8438 C 1058.2812 1005.7822 1057.0689 1005.2061 1054.9688 1009.4062 C 1052.7902 1013.7633 1051.9146 1020.4792 1057.625 1021.9062 C 1062.8659 1023.2169 1062.188 1018.4149 1065.1562 1016.1875 C 1068.7356 1013.5046 1073.7903 1011.7176 1076.1562 1008.5625 C 1078.4767 1005.4688 1080.5938 1002.2695 1080.5938 997.4375 C 1080.5938 992.3112 1082.5613 989.96865 1085.75 986.78125 C 1088.9882 983.54299 1090.1875 982.89355 1090.1875 977.90625 C 1090.1875 972.07195 1088.1386 969.40025 1084.0625 966.34375 C 1083.7437 966.10515 1083.4194 966.01325 1083.0625 966.03125 z M 454.8125 1036.7812 C 454.55095 1036.7682 454.28895 1036.7885 454.03125 1036.8125 C 450.42354 1037.1424 446.97089 1040.1853 445.15625 1042 C 443.97313 1043.1829 440.63186 1040.6807 439.15625 1042.1562 C 438.44156 1042.8709 438.84774 1044.9337 438.09375 1045.6875 C 436.62653 1047.1549 426.40716 1047.3756 430.75 1051.7188 C 434.16965 1055.1381 446.3176 1045.5884 447.8125 1044.0938 C 450.52465 1041.3814 456.39739 1043.3009 455.59375 1036.875 C 455.33514 1036.838 455.07405 1036.7932 454.8125 1036.7812 z M 810.96875 1043.9062 C 809.63695 1044.0466 808.67432 1045.2369 809.59375 1046.1562 C 810.02757 1046.5902 816.21796 1049.7821 816.90625 1049.0938 C 817.43228 1048.5678 821.47672 1045.6643 820.40625 1044.5938 C 818.71859 1042.906 812.85996 1045.6555 811.21875 1043.9062 C 811.13294 1043.8942 811.05755 1043.8963 810.96875 1043.9062 z M 469.90625 1063.25 C 469.90625 1068.2092 465.86617 1069.4909 470.25 1073.875 C 471.28867 1074.9136 473.16002 1071.75 473.78125 1071.75 C 480.14277 1071.75 481.71335 1072.4742 485.28125 1068.9062 C 485.36955 1068.818 485.74861 1067.2486 485.46875 1066.9688 C 481.01256 1062.5124 471.70748 1071.8379 469.90625 1063.25 z M 887.14062 1076.7402 C 887.068 1076.735 886.969 1076.7385 886.84375 1076.75 C 883.08625 1077.0879 857.5099 1084.4445 854.53125 1086.2812 C 856.57919 1085.6961 864.11139 1089.9514 867.03125 1087.0312 C 868.24193 1085.8205 890.49369 1079.9936 887.28125 1076.7812 C 887.2595 1076.7597 887.21325 1076.7455 887.14062 1076.7402 z M 611.6875 1092.4375 C 611.44864 1092.4695 611.23033 1092.5822 611.03125 1092.7812 C 610.04608 1093.7665 610.17101 1094.0649 610.78125 1094.7812 C 609.47072 1099.3682 606.29884 1097.5139 605.53125 1098.2812 C 604.35231 1099.4603 603.25158 1100.6861 601.90625 1102.0312 C 599.50922 1104.4282 606.5413 1107.5365 607.53125 1108.0312 C 610.14263 1109.3369 616.59495 1108.9678 618.15625 1107.4062 C 618.92721 1106.6355 618.02948 1104.0331 618.78125 1103.2812 C 619.70527 1102.3573 621.55249 1101.8853 622.53125 1100.9062 C 623.94636 1099.4913 615.67258 1101.4062 614.65625 1101.4062 C 614.04995 1101.4062 612.6167 1100.6166 612.28125 1100.2812 C 611.8598 1099.86 614.23438 1095.7034 614.53125 1095.4062 C 615.0804 1094.8572 613.36085 1092.5305 611.9375 1092.4375 C 611.85538 1092.4275 611.7671 1092.4275 611.6875 1092.4375 z M 1052.2812 1093.7812 C 1052.2812 1094.936 1062.2867 1102.6509 1064.9062 1100.0312 C 1065.0658 1099.8717 1064.2452 1098.7452 1064.1562 1098.6562 C 1063.3358 1097.8358 1063.6909 1095.5659 1062.7812 1094.6562 C 1061.0164 1092.8914 1054.5633 1095.0801 1052.2812 1093.7812 z M 477.875 1101.7812 C 477.20163 1101.9736 471.7117 1103.4306 472.71875 1104.4375 C 473.70538 1105.4244 480.63489 1111.7404 482.09375 1110.2812 C 483.0443 1109.3309 481.96679 1106.5331 483 1105.5 C 483.18413 1105.3155 485.63242 1103.7574 485.09375 1103.2188 C 483.74584 1101.8701 479.82548 1102.3663 477.875 1101.7812 z M 519.625 1103.9688 C 514.96777 1103.9687 514.32453 1106.0444 510.25 1107.0625 C 506.44094 1108.0154 505.10126 1109.85 501.375 1110.7812 C 491.45971 1111.9104 488.95026 1117.5607 485.71875 1119.5625 C 481.91739 1121.918 481.10523 1118.3307 475.625 1124.4375 C 473.72649 1126.3361 474.125 1131.8207 474.125 1134.8125 C 474.125 1138.7627 470.49361 1139.5157 472.4375 1142.8438 C 473.28251 1144.2902 475.92554 1145.2532 477.90625 1147.5312 C 481.17947 1151.2964 481.85853 1155.7662 479.84375 1158.7812 C 477.35661 1162.5032 477.1875 1164.3422 477.1875 1168.7812 C 477.1875 1173.0657 477.40309 1175.8374 478.6875 1178.4062 C 480.21604 1181.4635 486.08741 1183.8718 488.03125 1184.8438 C 494.78287 1186.4885 493.9717 1191.918 496.03125 1192.9062 C 498.64355 1194.1601 503.62814 1191.2396 510.25 1193.7188 C 516.5971 1196.095 520.07362 1198.0607 523.375 1199.8125 C 526.41382 1201.4258 531.9193 1199.2283 533.75 1198.3125 C 537.02671 1196.6759 538.79278 1194.6644 542.25 1193.2812 C 545.83904 1191.8455 549.33378 1189.2812 553.21875 1189.2812 L 563.1875 1187.9062 C 569.61436 1187.9063 573.50117 1189.1371 576.9375 1193.7188 C 579.31148 1196.8835 584.32576 1198.1789 587.28125 1199.6562 C 590.43166 1201.2314 592.41546 1207.4903 595.5625 1209.0625 C 599.69096 1211.1279 601.31179 1204.1567 603.59375 1201.875 C 608.189 1197.2787 607.36992 1198.9864 613.34375 1196 C 617.45386 1193.9447 618.63825 1191.9732 624.4375 1190.8125 C 630.30359 1189.6395 632.15984 1187.0262 636.0625 1183.125 C 639.23222 1179.9547 641.66382 1179.4375 646.4375 1179.4375 C 650.5332 1179.4375 656.07737 1176.7577 659.15625 1175.2188 C 660.54869 1174.5223 666.85365 1173.2029 666.90625 1171.1875 C 666.952 1169.4334 660.56191 1168.0551 662.8125 1163.3125 C 664.08401 1160.7713 661.95319 1160.063 661.375 1158.9062 C 659.84177 1155.8402 656.56204 1154.8438 653 1154.8438 C 648.716 1154.8436 646.66257 1158.1531 644.09375 1159.4375 C 640.73425 1161.1178 639.04102 1162.3882 635.96875 1163.1562 C 631.96843 1164.1564 627.83858 1163.1562 625.59375 1160.9062 C 623.00521 1158.3179 620.38615 1156.4474 617.4375 1153.5 C 614.08279 1150.1449 610.76128 1146.8039 608.5625 1142.4062 C 605.83698 1136.9555 604.05187 1135.5824 602.625 1129.875 C 601.91486 1127.0344 604.11731 1125.4582 607.125 1124.4062 C 610.61692 1123.1848 609.65782 1120.5635 608.8125 1118.4375 C 608.01645 1116.4358 603.0631 1116.4688 602.09375 1116.4688 C 597.50227 1116.4686 597.08579 1117.1769 593.8125 1118.8125 C 590.89164 1120.2744 588.79071 1126.0028 585.78125 1126.3438 C 584.79268 1126.4556 579.23847 1121.2376 578.0625 1121.5312 C 574.46402 1122.4307 572.8607 1124.42 569.34375 1125.125 C 565.95798 1125.8016 564.30943 1125 562.46875 1122.875 C 561.63893 1121.9166 568.65732 1119.7092 566 1119 C 561.47954 1117.7932 538.44966 1120.7888 538 1116.6875 C 537.84716 1115.2942 541.53125 1112.3202 541.53125 1110.1562 C 541.53125 1105.8285 533.71684 1107.4605 530.25 1106.5938 C 529.03878 1106.2909 527.75879 1104.476 526.3125 1104.5 C 523.90202 1104.5389 521.71814 1103.9688 519.625 1103.9688 z M 609.375 1110.2812 C 604.12068 1110.1698 614.90625 1116.7206 614.90625 1113.1562 C 614.90625 1112.6773 615.1732 1112.0484 614.78125 1111.6562 C 613.91272 1110.7877 612.2886 1110.4923 610.65625 1110.4062 C 610.15552 1110.3343 609.72529 1110.2912 609.375 1110.2812 z M 693.64062 1193.4336 C 693.62265 1193.4297 693.59435 1193.4325 693.5625 1193.4375 C 693.49881 1193.4445 693.4213 1193.4588 693.375 1193.4688 C 690.49962 1193.9195 683.76844 1206.9503 683.25 1207.4688 C 677.69023 1213.0285 674.43988 1220.1536 669.125 1225.4688 C 660.87934 1233.0956 667.85255 1231.5326 671.09375 1231.0625 C 673.55903 1230.7047 675.23658 1231.9678 676.4375 1227.5 C 677.55015 1223.3613 679.40562 1221.2043 680.5 1217.4688 C 682.34323 1213.7822 685.175 1211.6688 687.875 1208.9688 C 688.96481 1206.4023 692.96729 1194.7767 693.65625 1193.4688 C 693.66631 1193.4483 693.6586 1193.4375 693.64062 1193.4336 z M 545.75 1231.1875 C 537.43609 1232.3762 543.76591 1247.2974 547.5 1243.5625 C 548.03033 1243.0338 547.50092 1241.4365 548.03125 1240.9062 C 548.69405 1240.2436 558.65828 1240.5643 554.59375 1236.5 C 551.72448 1233.6304 545.31393 1238.0184 545.75 1231.1875 z M 679.875 1232.0938 C 678.13693 1232.5901 670.89268 1236.7365 673.375 1239.2188 C 673.45279 1239.2966 683.61302 1232.8599 679.875 1232.0938 z M 665.375 1232.8438 C 663.52249 1234.6962 661.8151 1236.0285 660 1237.8438 C 659.9428 1237.9008 659.9582 1238.7597 660 1238.8438 C 662.25816 1243.36 682.76701 1233.2269 665.375 1232.8438 z M 528.84375 1245 C 527.99566 1245.003 527.0204 1245.0207 525.9375 1245.0938 C 525.03018 1246.4548 525.42634 1247.6137 526.28125 1248.4688 C 526.9425 1249.13 527.22465 1250.4746 527.875 1251.125 C 529.06483 1252.3143 541.56516 1244.962 528.84375 1245 z M 656.25 1245.0938 C 656.06894 1245.2142 650.83605 1253.1798 651.75 1254.0938 C 654.92036 1257.264 658.57801 1247.5039 656.25 1245.0938 z M 581.96875 1250.4355 C 581.24447 1250.3413 580.08936 1253.7947 579.4375 1254.4043 C 578.24399 1255.5204 578.18557 1256.1554 577.40625 1257.5918 C 576.72315 1258.8508 576.26746 1260.3265 575.28125 1261.3418 C 575.25269 1261.3208 575.2112 1261.3105 575.125 1261.3105 C 573.9106 1261.2817 572.95012 1260.0602 571.75 1259.873 C 568.41903 1259.3494 565.05762 1260.881 561.6875 1260.7793 C 558.88872 1260.6943 556.17475 1259.5703 553.375 1259.5293 C 550.88292 1259.4923 548.28838 1259.5765 545.9375 1260.4043 C 544.36445 1260.9586 543.08141 1262.1459 541.6875 1263.0605 C 539.9525 1264.2009 538.48461 1265.8099 536.5625 1266.5938 C 533.35119 1267.9033 529.66225 1269.2706 526.3125 1268.373 C 524.97894 1268.0152 523.5754 1265.0847 522.5 1264.2188 C 520.93009 1262.9544 519.72538 1263.4932 518.375 1261.998 C 517.63012 1261.1719 517.39989 1259.9521 516.59375 1259.1855 C 516.15386 1258.7695 515.55065 1258.0248 515 1258.2793 C 514.18187 1258.6581 514.46875 1260.229 514.46875 1260.9355 C 514.46875 1261.6444 515.42188 1264.3545 514.84375 1265.9043 C 514.69812 1266.2948 514.23796 1266.4906 513.9375 1266.7793 C 513.18576 1267.5016 512.63927 1268.5574 511.65625 1268.9043 C 510.82094 1269.1994 509.55215 1268.0258 509 1268.7188 C 508.23307 1269.6805 510.54684 1271.1155 510.0625 1272.248 C 509.4745 1273.6212 508.35749 1274.5326 506.99414 1275.209 L 513.7207 1286.8027 L 527.2832 1363.2168 C 529.8445 1359.5658 532.59046 1355.5792 534.4375 1353.4062 C 537.44271 1349.8709 548.9375 1331.375 548.9375 1331.375 C 548.9375 1331.375 559.38035 1312.3848 559.46875 1312.0312 C 561.45129 1307.4809 567.28194 1295.2264 575.1875 1284.625 L 584.75 1271.2812 L 588.09375 1263.1562 L 588.34375 1262.9375 C 588.30195 1262.9185 588.26055 1262.896 588.21875 1262.875 C 588.44602 1262.3795 588.62955 1261.8626 588.71875 1261.3125 C 589.23259 1257.8859 588.04835 1248.8555 586.59375 1251.8438 L 584.5625 1255.9688 C 584.14722 1256.7963 583.29179 1260.3435 581.65625 1260.5938 C 579.95553 1258.8483 581.78023 1256.0664 582.1875 1253.9375 C 582.33268 1253.1821 582.73829 1251.0767 582.09375 1250.5 C 582.04945 1250.46 582.01705 1250.4475 581.96875 1250.4375 L 581.96875 1250.4355 z M 575.28125 1261.3438 C 575.42405 1261.4517 574.95898 1261.7552 574.84375 1261.7812 C 574.86095 1261.7596 574.8791 1261.7043 574.9375 1261.6562 C 575.05687 1261.5584 575.175 1261.4532 575.28125 1261.3438 z M 438.78125 1280.8125 C 438.75496 1280.8118 438.71845 1280.8204 438.69141 1280.8203 C 438.94699 1280.8619 439.20129 1280.8999 439.46289 1280.9434 C 439.27993 1280.865 439.05551 1280.82 438.78125 1280.8125 z M 423.12695 1286.8164 C 420.92237 1287.842 419.10427 1288.6562 418.625 1288.6562 C 415.15172 1288.6562 410.43388 1291.0439 408.3125 1291.5625 C 409.64976 1292.454 415.39965 1291.3644 420.80273 1289.9434 C 421.37515 1289.1455 421.92837 1288.361 422.56445 1287.5215 C 422.75562 1287.2692 422.93911 1287.0523 423.12695 1286.8164 z M 389.4375 1289.75 C 386.65219 1289.8469 381.27001 1290.7658 378 1290.5938 C 382.07826 1291.9493 386.44961 1293.8025 390.09375 1295.625 C 393.17748 1297.1664 395.74657 1294.0312 398.125 1294.0312 C 400.21875 1294.0312 404.38188 1294.7741 405.65625 1293.5 C 406.4166 1292.7391 403.54404 1292.9688 402.46875 1292.9688 C 401.63293 1292.9688 399.26159 1292.3438 397.5 1292.3438 C 396.39585 1292.3438 391.87417 1290.6868 391.15625 1289.9688 C 390.95292 1289.7649 390.32875 1289.719 389.4375 1289.75 z M 378 1290.5938 C 377.12365 1290.3024 376.24536 1290.0212 375.40625 1289.7812 C 375.76415 1290.2895 376.73583 1290.5277 378 1290.5938 z M 403.0625 1296.125 C 402.62511 1296.1413 402.17386 1296.197 401.75 1296.25 C 400.11414 1298.7036 402.45511 1300.48 405.30273 1301.4375 C 407.41197 1301.5332 409.16581 1301.2192 410.69922 1300.5703 C 410.56053 1300.5368 410.43139 1300.4939 410.34375 1300.4062 C 409.9156 1299.978 409.96571 1298.9033 409.53125 1298.4688 C 408.72111 1297.6585 407.0997 1297.7246 406.25 1296.875 C 405.62892 1296.2536 404.37466 1296.075 403.0625 1296.125 z M 387.57227 1301.5391 C 386.54914 1301.4841 385.67113 1302.2767 384.80664 1303.1523 C 386.62188 1305.1004 388.41327 1305.6053 389.88086 1305.1953 C 389.80649 1305.0585 389.74656 1304.9203 389.71875 1304.7812 C 389.3652 1303.0134 389.11552 1301.8845 387.9375 1301.5938 C 387.81353 1301.5632 387.69209 1301.5455 387.57227 1301.5391 z M 246.3125 1324.3125 C 232.95283 1324.2899 241.17869 1335.6653 242.9375 1333.9062 C 241.80118 1332.8183 248.24738 1324.2477 247.6875 1324.3438 C 247.21071 1324.3227 246.74346 1324.3125 246.3125 1324.3125 z M 241.19141 1335.0195 C 240.99961 1335.0098 240.80096 1335.0131 240.59375 1335.0312 C 240.37986 1335.0502 240.13677 1335.074 239.90625 1335.125 C 240.08875 1336.4041 239.30437 1342.1171 240.09375 1342.9062 C 240.62996 1343.4425 241.12699 1343.8053 241.58398 1344.0273 L 243.75 1343.9043 C 243.8005 1343.8642 243.85077 1343.8248 243.89844 1343.7793 L 244.82422 1338.5977 C 244.38657 1336.7429 243.22538 1335.1229 241.19141 1335.0195 z M 230.44727 1353.7383 C 230.17826 1353.8511 229.91223 1354.0093 229.65625 1354.2188 C 229.27058 1356.9184 231.33097 1362.4335 234.2207 1363.5488 L 234.2207 1358.4609 L 230.44727 1353.7383 z "
       style="color:#000000;fill:#303633;fill-opacity:1;stroke:none;stroke-width:3;marker:none;visibility:visible;display:inline;overflow:visible;enable-background:accumulate" />
  </g>
  <g
     transform="translate(-87.466599,-171.00908)"
     style="display:inline"
     id="layer12" />
</svg>
