<?xml version="1.0" encoding="UTF-8" standalone="no"?><!-- Generator: Gravit.io --><svg xmlns="http://www.w3.org/2000/svg" xmlns:xlink="http://www.w3.org/1999/xlink" style="isolation:isolate" viewBox="0 0 150 150" width="150pt" height="150pt"><defs><clipPath id="_clipPath_Z15T69oLdH1fOIwxsbpK88rWLdCc414U"><rect width="150" height="150"/></clipPath></defs><g clip-path="url(#_clipPath_Z15T69oLdH1fOIwxsbpK88rWLdCc414U)"><rect x="0" y="120" width="150" height="12" transform="matrix(1,0,0,1,0,0)" fill="rgb(35,116,171)"/><rect x="-37.2" y="60" width="132" height="12" transform="matrix(0,-1,1,0,-37.2,94.8)" fill="rgb(35,116,171)"/><g><line x1="90" y1="0" x2="90" y2="150" vector-effect="non-scaling-stroke" stroke-width="3" stroke="rgb(239,160,11)" stroke-linejoin="miter" stroke-linecap="square" stroke-miterlimit="3"/><line x1="99" y1="0" x2="99" y2="150" vector-effect="non-scaling-stroke" stroke-width="3" stroke="rgb(239,160,11)" stroke-linejoin="miter" stroke-linecap="square" stroke-miterlimit="3"/><line x1="94.5" y1="2.1" x2="94.5" y2="152.1" vector-effect="non-scaling-stroke" stroke-width="15" stroke-dasharray="1.5,6" stroke="rgb(239,160,11)" stroke-linejoin="miter" stroke-linecap="butt" stroke-miterlimit="3"/></g><g><line x1="114.3" y1="0" x2="114.3" y2="150" vector-effect="non-scaling-stroke" stroke-width="3" stroke="rgb(239,160,11)" stroke-linejoin="miter" stroke-linecap="square" stroke-miterlimit="3"/><line x1="123.3" y1="0" x2="123.3" y2="150" vector-effect="non-scaling-stroke" stroke-width="3" stroke="rgb(239,160,11)" stroke-linejoin="miter" stroke-linecap="square" stroke-miterlimit="3"/><line x1="118.8" y1="2.1" x2="118.8" y2="152.1" vector-effect="non-scaling-stroke" stroke-width="15" stroke-dasharray="1.5,6" stroke="rgb(239,160,11)" stroke-linejoin="miter" stroke-linecap="butt" stroke-miterlimit="3"/></g><g><g><path d=" M 78 99.8 C 78 91.525 71.275 84.8 63 84.8 C 54.725 84.8 48 91.525 48 99.8 C 48 108.525 57.05 120.275 61.075 125.1 C 62.075 126.3 63.9 126.3 64.9 125.1 C 68.95 120.275 78 108.525 78 99.8 Z " fill="rgb(77,204,189)"/></g><g><path d=" M 56.495 103.459 C 56.495 104.175 56.812 104.817 57.308 105.264 L 57.308 106.305 C 57.308 106.98 57.853 107.525 58.528 107.525 C 59.203 107.525 59.747 106.98 59.747 106.305 L 59.747 105.899 L 66.253 105.899 L 66.253 106.305 C 66.253 106.972 66.797 107.525 67.472 107.525 C 68.139 107.525 68.692 106.98 68.692 106.305 L 68.692 105.264 C 69.188 104.817 69.505 104.175 69.505 103.459 L 69.505 95.328 C 69.505 92.482 66.594 92.075 63 92.075 C 59.406 92.075 56.495 92.482 56.495 95.328 L 56.495 103.459 Z  M 59.341 104.272 C 58.666 104.272 58.121 103.728 58.121 103.053 C 58.121 102.378 58.666 101.833 59.341 101.833 C 60.016 101.833 60.561 102.378 60.561 103.053 C 60.561 103.728 60.016 104.272 59.341 104.272 Z  M 66.659 104.272 C 65.984 104.272 65.439 103.728 65.439 103.053 C 65.439 102.378 65.984 101.833 66.659 101.833 C 67.334 101.833 67.879 102.378 67.879 103.053 C 67.879 103.728 67.334 104.272 66.659 104.272 Z  M 67.879 99.393 L 58.121 99.393 L 58.121 95.328 L 67.879 95.328 L 67.879 99.393 Z " fill="rgb(255,255,255)"/></g></g><g><g><path d=" M 109.5 53.1 C 109.5 44.825 102.775 38.1 94.5 38.1 C 86.225 38.1 79.5 44.825 79.5 53.1 C 79.5 61.825 88.55 73.575 92.575 78.4 C 93.575 79.6 95.4 79.6 96.4 78.4 C 100.45 73.575 109.5 61.825 109.5 53.1 Z " fill="rgb(255,90,95)"/></g><path d=" M 94.595 45.487 C 91.342 45.487 88.089 45.894 88.089 48.74 L 88.089 56.465 C 88.089 58.035 89.366 59.311 90.936 59.311 L 90 60.246 C 89.748 60.498 89.927 60.937 90.293 60.937 L 91.179 60.937 C 91.285 60.937 91.391 60.897 91.464 60.816 L 92.968 59.311 L 96.221 59.311 L 97.725 60.816 C 97.799 60.889 97.904 60.937 98.01 60.937 L 98.896 60.937 C 99.262 60.937 99.441 60.498 99.181 60.246 L 98.254 59.311 C 99.823 59.311 101.1 58.035 101.1 56.465 L 101.1 48.74 C 101.1 45.894 97.847 45.487 94.595 45.487 Z  M 90.936 57.685 C 90.261 57.685 89.716 57.14 89.716 56.465 C 89.716 55.79 90.261 55.245 90.936 55.245 C 91.61 55.245 92.155 55.79 92.155 56.465 C 92.155 57.14 91.61 57.685 90.936 57.685 Z  M 93.782 51.993 L 89.716 51.993 L 89.716 48.74 L 93.782 48.74 L 93.782 51.993 Z  M 98.254 57.685 C 97.579 57.685 97.034 57.14 97.034 56.465 C 97.034 55.79 97.579 55.245 98.254 55.245 C 98.929 55.245 99.474 55.79 99.474 56.465 C 99.474 57.14 98.929 57.685 98.254 57.685 Z  M 99.474 51.993 L 95.408 51.993 L 95.408 48.74 L 99.474 48.74 L 99.474 51.993 Z " fill="rgb(255,255,255)"/></g><g><g><path d=" M 43.8 25.2 C 43.8 16.925 37.075 10.2 28.8 10.2 C 20.525 10.2 13.8 16.925 13.8 25.2 C 13.8 33.925 22.85 45.675 26.875 50.5 C 27.875 51.7 29.7 51.7 30.7 50.5 C 34.75 45.675 43.8 33.925 43.8 25.2 Z " fill="rgb(77,204,189)"/></g><g><path d=" M 22.295 28.859 C 22.295 29.575 22.612 30.217 23.108 30.664 L 23.108 31.705 C 23.108 32.38 23.653 32.925 24.328 32.925 C 25.003 32.925 25.547 32.38 25.547 31.705 L 25.547 31.299 L 32.053 31.299 L 32.053 31.705 C 32.053 32.372 32.597 32.925 33.272 32.925 C 33.939 32.925 34.492 32.38 34.492 31.705 L 34.492 30.664 C 34.988 30.217 35.305 29.575 35.305 28.859 L 35.305 20.728 C 35.305 17.882 32.394 17.475 28.8 17.475 C 25.206 17.475 22.295 17.882 22.295 20.728 L 22.295 28.859 Z  M 25.141 29.672 C 24.466 29.672 23.921 29.128 23.921 28.453 C 23.921 27.778 24.466 27.233 25.141 27.233 C 25.816 27.233 26.361 27.778 26.361 28.453 C 26.361 29.128 25.816 29.672 25.141 29.672 Z  M 32.459 29.672 C 31.784 29.672 31.239 29.128 31.239 28.453 C 31.239 27.778 31.784 27.233 32.459 27.233 C 33.134 27.233 33.679 27.778 33.679 28.453 C 33.679 29.128 33.134 29.672 32.459 29.672 Z  M 33.679 24.793 L 23.921 24.793 L 23.921 20.728 L 33.679 20.728 L 33.679 24.793 Z " fill="rgb(255,255,255)"/></g></g></g></svg>