<?xml version="1.0" encoding="UTF-8" standalone="no"?><!-- Generator: Gravit.io --><svg xmlns="http://www.w3.org/2000/svg" xmlns:xlink="http://www.w3.org/1999/xlink" style="isolation:isolate" viewBox="0 0 650 487.5" width="650pt" height="487.5pt"><defs><clipPath id="_clipPath_CyOqzVv0HHaDIINfDGzwxk8qfiV7IHiQ"><rect width="650" height="487.5"/></clipPath></defs><g clip-path="url(#_clipPath_CyOqzVv0HHaDIINfDGzwxk8qfiV7IHiQ)"><path d=" M 20 343.75 L 60 143.75 L 100 143.75 L 60 343.75 L 20 343.75 Z " fill="rgb(35,116,171)"/><g><path d=" M 171.667 205.021 L 171.667 207.729 L 171.667 207.729 Q 171.667 216.688 168.5 223.438 L 168.5 223.438 L 168.5 223.438 Q 165.333 230.188 159.438 233.854 L 159.438 233.854 L 159.438 233.854 Q 153.542 237.521 145.917 237.521 L 145.917 237.521 L 145.917 237.521 Q 138.375 237.521 132.458 233.896 L 132.458 233.896 L 132.458 233.896 Q 126.542 230.271 123.292 223.542 L 123.292 223.542 L 123.292 223.542 Q 120.042 216.813 120 208.063 L 120 208.063 L 120 205.063 L 120 205.063 Q 120 196.104 123.229 189.292 L 123.229 189.292 L 123.229 189.292 Q 126.458 182.479 132.354 178.833 L 132.354 178.833 L 132.354 178.833 Q 138.25 175.188 145.833 175.188 L 145.833 175.188 L 145.833 175.188 Q 153.417 175.188 159.313 178.833 L 159.313 178.833 L 159.313 178.833 Q 165.208 182.479 168.438 189.292 L 168.438 189.292 L 168.438 189.292 Q 171.667 196.104 171.667 205.021 L 171.667 205.021 Z  M 159 207.938 L 159 204.979 L 159 204.979 Q 159 195.438 155.583 190.479 L 155.583 190.479 L 155.583 190.479 Q 152.167 185.521 145.833 185.521 L 145.833 185.521 L 145.833 185.521 Q 139.542 185.521 136.125 190.417 L 136.125 190.417 L 136.125 190.417 Q 132.708 195.313 132.667 204.771 L 132.667 204.771 L 132.667 207.729 L 132.667 207.729 Q 132.667 217.021 136.083 222.146 L 136.083 222.146 L 136.083 222.146 Q 139.5 227.271 145.917 227.271 L 145.917 227.271 L 145.917 227.271 Q 152.208 227.271 155.583 222.333 L 155.583 222.333 L 155.583 222.333 Q 158.958 217.396 159 207.938 L 159 207.938 Z  M 207.292 236.688 L 206.958 232.104 L 206.958 232.104 Q 202.5 237.521 194.625 237.521 L 194.625 237.521 L 194.625 237.521 Q 187.375 237.521 183.563 233.354 L 183.563 233.354 L 183.563 233.354 Q 179.75 229.188 179.667 221.146 L 179.667 221.146 L 179.667 191.604 L 191.708 191.604 L 191.708 220.729 L 191.708 220.729 Q 191.708 227.771 198.125 227.771 L 198.125 227.771 L 198.125 227.771 Q 204.25 227.771 206.542 223.521 L 206.542 223.521 L 206.542 191.604 L 218.625 191.604 L 218.625 236.688 L 207.292 236.688 Z  M 230.083 180.521 L 242.125 180.521 L 242.125 191.604 L 249.833 191.604 L 249.833 200.438 L 242.125 200.438 L 242.125 222.938 L 242.125 222.938 Q 242.125 225.438 243.083 226.521 L 243.083 226.521 L 243.083 226.521 Q 244.042 227.604 246.75 227.604 L 246.75 227.604 L 246.75 227.604 Q 248.75 227.604 250.292 227.313 L 250.292 227.313 L 250.292 236.438 L 250.292 236.438 Q 246.75 237.521 243 237.521 L 243 237.521 L 243 237.521 Q 230.333 237.521 230.083 224.729 L 230.083 224.729 L 230.083 200.438 L 223.5 200.438 L 223.5 191.604 L 230.083 191.604 L 230.083 180.521 Z  M 294.833 236.688 L 282.667 236.688 L 282.667 236.688 Q 281.833 235.063 281.458 232.646 L 281.458 232.646 L 281.458 232.646 Q 277.083 237.521 270.083 237.521 L 270.083 237.521 L 270.083 237.521 Q 263.458 237.521 259.104 233.688 L 259.104 233.688 L 259.104 233.688 Q 254.75 229.854 254.75 224.021 L 254.75 224.021 L 254.75 224.021 Q 254.75 216.854 260.063 213.021 L 260.063 213.021 L 260.063 213.021 Q 265.375 209.188 275.417 209.146 L 275.417 209.146 L 280.958 209.146 L 280.958 206.563 L 280.958 206.563 Q 280.958 203.438 279.354 201.563 L 279.354 201.563 L 279.354 201.563 Q 277.75 199.688 274.292 199.688 L 274.292 199.688 L 274.292 199.688 Q 271.25 199.688 269.521 201.146 L 269.521 201.146 L 269.521 201.146 Q 267.792 202.604 267.792 205.146 L 267.792 205.146 L 255.75 205.146 L 255.75 205.146 Q 255.75 201.229 258.167 197.896 L 258.167 197.896 L 258.167 197.896 Q 260.583 194.563 265 192.667 L 265 192.667 L 265 192.667 Q 269.417 190.771 274.917 190.771 L 274.917 190.771 L 274.917 190.771 Q 283.25 190.771 288.146 194.958 L 288.146 194.958 L 288.146 194.958 Q 293.042 199.146 293.042 206.729 L 293.042 206.729 L 293.042 226.271 L 293.042 226.271 Q 293.083 232.688 294.833 235.979 L 294.833 235.979 L 294.833 236.688 Z  M 272.708 228.313 L 272.708 228.313 L 272.708 228.313 Q 275.375 228.313 277.625 227.125 L 277.625 227.125 L 277.625 227.125 Q 279.875 225.938 280.958 223.938 L 280.958 223.938 L 280.958 216.188 L 276.458 216.188 L 276.458 216.188 Q 267.417 216.188 266.833 222.438 L 266.833 222.438 L 266.792 223.146 L 266.792 223.146 Q 266.792 225.396 268.375 226.854 L 268.375 226.854 L 268.375 226.854 Q 269.958 228.313 272.708 228.313 Z  M 300.417 214.271 L 300.417 213.729 L 300.417 213.729 Q 300.417 207.021 303 201.771 L 303 201.771 L 303 201.771 Q 305.583 196.521 310.438 193.646 L 310.438 193.646 L 310.438 193.646 Q 315.292 190.771 321.708 190.771 L 321.708 190.771 L 321.708 190.771 Q 330.833 190.771 336.604 196.354 L 336.604 196.354 L 336.604 196.354 Q 342.375 201.938 343.042 211.521 L 343.042 211.521 L 343.125 214.604 L 343.125 214.604 Q 343.125 224.979 337.333 231.25 L 337.333 231.25 L 337.333 231.25 Q 331.542 237.521 321.792 237.521 L 321.792 237.521 L 321.792 237.521 Q 312.042 237.521 306.229 231.271 L 306.229 231.271 L 306.229 231.271 Q 300.417 225.021 300.417 214.271 L 300.417 214.271 Z  M 312.458 214.604 L 312.458 214.604 L 312.458 214.604 Q 312.458 221.021 314.875 224.417 L 314.875 224.417 L 314.875 224.417 Q 317.292 227.813 321.792 227.813 L 321.792 227.813 L 321.792 227.813 Q 326.167 227.813 328.625 224.458 L 328.625 224.458 L 328.625 224.458 Q 331.083 221.104 331.083 213.729 L 331.083 213.729 L 331.083 213.729 Q 331.083 207.438 328.625 203.979 L 328.625 203.979 L 328.625 203.979 Q 326.167 200.521 321.708 200.521 L 321.708 200.521 L 321.708 200.521 Q 317.292 200.521 314.875 203.958 L 314.875 203.958 L 314.875 203.958 Q 312.458 207.396 312.458 214.604 Z  M 377.875 236.688 L 377.542 232.104 L 377.542 232.104 Q 373.083 237.521 365.208 237.521 L 365.208 237.521 L 365.208 237.521 Q 357.958 237.521 354.146 233.354 L 354.146 233.354 L 354.146 233.354 Q 350.333 229.188 350.25 221.146 L 350.25 221.146 L 350.25 191.604 L 362.292 191.604 L 362.292 220.729 L 362.292 220.729 Q 362.292 227.771 368.708 227.771 L 368.708 227.771 L 368.708 227.771 Q 374.833 227.771 377.125 223.521 L 377.125 223.521 L 377.125 191.604 L 389.208 191.604 L 389.208 236.688 L 377.875 236.688 Z  M 436.583 236.688 L 424.417 236.688 L 424.417 236.688 Q 423.583 235.063 423.208 232.646 L 423.208 232.646 L 423.208 232.646 Q 418.833 237.521 411.833 237.521 L 411.833 237.521 L 411.833 237.521 Q 405.208 237.521 400.854 233.688 L 400.854 233.688 L 400.854 233.688 Q 396.5 229.854 396.5 224.021 L 396.5 224.021 L 396.5 224.021 Q 396.5 216.854 401.813 213.021 L 401.813 213.021 L 401.813 213.021 Q 407.125 209.188 417.167 209.146 L 417.167 209.146 L 422.708 209.146 L 422.708 206.563 L 422.708 206.563 Q 422.708 203.438 421.104 201.563 L 421.104 201.563 L 421.104 201.563 Q 419.5 199.688 416.042 199.688 L 416.042 199.688 L 416.042 199.688 Q 413 199.688 411.271 201.146 L 411.271 201.146 L 411.271 201.146 Q 409.542 202.604 409.542 205.146 L 409.542 205.146 L 397.5 205.146 L 397.5 205.146 Q 397.5 201.229 399.917 197.896 L 399.917 197.896 L 399.917 197.896 Q 402.333 194.563 406.75 192.667 L 406.75 192.667 L 406.75 192.667 Q 411.167 190.771 416.667 190.771 L 416.667 190.771 L 416.667 190.771 Q 425 190.771 429.896 194.958 L 429.896 194.958 L 429.896 194.958 Q 434.792 199.146 434.792 206.729 L 434.792 206.729 L 434.792 226.271 L 434.792 226.271 Q 434.833 232.688 436.583 235.979 L 436.583 235.979 L 436.583 236.688 Z  M 414.458 228.313 L 414.458 228.313 L 414.458 228.313 Q 417.125 228.313 419.375 227.125 L 419.375 227.125 L 419.375 227.125 Q 421.625 225.938 422.708 223.938 L 422.708 223.938 L 422.708 216.188 L 418.208 216.188 L 418.208 216.188 Q 409.167 216.188 408.583 222.438 L 408.583 222.438 L 408.542 223.146 L 408.542 223.146 Q 408.542 225.396 410.125 226.854 L 410.125 226.854 L 410.125 226.854 Q 411.708 228.313 414.458 228.313 Z  M 456.75 191.604 L 456.75 236.688 L 444.667 236.688 L 444.667 191.604 L 456.75 191.604 Z  M 443.958 179.938 L 443.958 179.938 L 443.958 179.938 Q 443.958 177.229 445.771 175.479 L 445.771 175.479 L 445.771 175.479 Q 447.583 173.729 450.708 173.729 L 450.708 173.729 L 450.708 173.729 Q 453.792 173.729 455.625 175.479 L 455.625 175.479 L 455.625 175.479 Q 457.458 177.229 457.458 179.938 L 457.458 179.938 L 457.458 179.938 Q 457.458 182.688 455.604 184.438 L 455.604 184.438 L 455.604 184.438 Q 453.75 186.188 450.708 186.188 L 450.708 186.188 L 450.708 186.188 Q 447.667 186.188 445.813 184.438 L 445.813 184.438 L 445.813 184.438 Q 443.958 182.688 443.958 179.938 Z  M 491.083 224.229 L 491.083 224.229 L 491.083 224.229 Q 491.083 222.021 488.896 220.75 L 488.896 220.75 L 488.896 220.75 Q 486.708 219.479 481.875 218.479 L 481.875 218.479 L 481.875 218.479 Q 465.792 215.104 465.792 204.813 L 465.792 204.813 L 465.792 204.813 Q 465.792 198.813 470.771 194.792 L 470.771 194.792 L 470.771 194.792 Q 475.75 190.771 483.792 190.771 L 483.792 190.771 L 483.792 190.771 Q 492.375 190.771 497.521 194.813 L 497.521 194.813 L 497.521 194.813 Q 502.667 198.854 502.667 205.313 L 502.667 205.313 L 490.625 205.313 L 490.625 205.313 Q 490.625 202.729 488.958 201.042 L 488.958 201.042 L 488.958 201.042 Q 487.292 199.354 483.75 199.354 L 483.75 199.354 L 483.75 199.354 Q 480.708 199.354 479.042 200.729 L 479.042 200.729 L 479.042 200.729 Q 477.375 202.104 477.375 204.229 L 477.375 204.229 L 477.375 204.229 Q 477.375 206.229 479.271 207.458 L 479.271 207.458 L 479.271 207.458 Q 481.167 208.688 485.667 209.583 L 485.667 209.583 L 485.667 209.583 Q 490.167 210.479 493.25 211.604 L 493.25 211.604 L 493.25 211.604 Q 502.792 215.104 502.792 223.729 L 502.792 223.729 L 502.792 223.729 Q 502.792 229.896 497.5 233.708 L 497.5 233.708 L 497.5 233.708 Q 492.208 237.521 483.833 237.521 L 483.833 237.521 L 483.833 237.521 Q 478.167 237.521 473.771 235.5 L 473.771 235.5 L 473.771 235.5 Q 469.375 233.479 466.875 229.958 L 466.875 229.958 L 466.875 229.958 Q 464.375 226.438 464.375 222.354 L 464.375 222.354 L 475.792 222.354 L 475.792 222.354 Q 475.958 225.563 478.167 227.271 L 478.167 227.271 L 478.167 227.271 Q 480.375 228.979 484.083 228.979 L 484.083 228.979 L 484.083 228.979 Q 487.542 228.979 489.313 227.667 L 489.313 227.667 L 489.313 227.667 Q 491.083 226.354 491.083 224.229 Z " fill="rgb(0,0,0)"/><circle vector-effect="non-scaling-stroke" cx="146.8333333333333" cy="288.7708333333333" r="25.00000000000002" fill="rgb(0,127,137)"/><circle vector-effect="non-scaling-stroke" cx="321.81666666666655" cy="288.7708333333333" r="25" fill="rgb(25,60,86)"/><path d=" M 191.825 289.621 L 191.825 289.621 L 191.825 289.621 Q 187.708 288.438 185.833 286.713 L 185.833 286.713 L 185.833 286.713 Q 183.958 284.988 183.958 282.454 L 183.958 282.454 L 183.958 282.454 Q 183.958 279.588 186.25 277.713 L 186.25 277.713 L 186.25 277.713 Q 188.542 275.838 192.208 275.838 L 192.208 275.838 L 192.208 275.838 Q 194.708 275.838 196.667 276.804 L 196.667 276.804 L 196.667 276.804 Q 198.625 277.771 199.7 279.471 L 199.7 279.471 L 199.7 279.471 Q 200.775 281.171 200.775 283.188 L 200.775 283.188 L 197.558 283.188 L 197.558 283.188 Q 197.558 280.988 196.158 279.729 L 196.158 279.729 L 196.158 279.729 Q 194.758 278.471 192.208 278.471 L 192.208 278.471 L 192.208 278.471 Q 189.842 278.471 188.517 279.513 L 188.517 279.513 L 188.517 279.513 Q 187.192 280.554 187.192 282.404 L 187.192 282.404 L 187.192 282.404 Q 187.192 283.888 188.45 284.912 L 188.45 284.912 L 188.45 284.912 Q 189.708 285.938 192.733 286.787 L 192.733 286.787 L 192.733 286.787 Q 195.758 287.638 197.467 288.662 L 197.467 288.662 L 197.467 288.662 Q 199.175 289.688 200 291.054 L 200 291.054 L 200 291.054 Q 200.825 292.421 200.825 294.271 L 200.825 294.271 L 200.825 294.271 Q 200.825 297.221 198.525 298.996 L 198.525 298.996 L 198.525 298.996 Q 196.225 300.771 192.375 300.771 L 192.375 300.771 L 192.375 300.771 Q 189.875 300.771 187.708 299.813 L 187.708 299.813 L 187.708 299.813 Q 185.542 298.854 184.367 297.188 L 184.367 297.188 L 184.367 297.188 Q 183.192 295.521 183.192 293.404 L 183.192 293.404 L 186.408 293.404 L 186.408 293.404 Q 186.408 295.604 188.033 296.879 L 188.033 296.879 L 188.033 296.879 Q 189.658 298.154 192.375 298.154 L 192.375 298.154 L 192.375 298.154 Q 194.908 298.154 196.258 297.121 L 196.258 297.121 L 196.258 297.121 Q 197.608 296.088 197.608 294.304 L 197.608 294.304 L 197.608 294.304 Q 197.608 292.521 196.358 291.546 L 196.358 291.546 L 196.358 291.546 Q 195.108 290.571 191.825 289.621 Z  M 221.692 276.171 L 221.692 278.804 L 213.892 278.804 L 213.892 300.438 L 210.708 300.438 L 210.708 278.804 L 202.925 278.804 L 202.925 276.171 L 221.692 276.171 L 221.692 276.171 Z  M 243.492 287.554 L 243.492 289.088 L 243.492 289.088 Q 243.492 292.654 242.292 295.313 L 242.292 295.313 L 242.292 295.313 Q 241.092 297.971 238.892 299.371 L 238.892 299.371 L 238.892 299.371 Q 236.692 300.771 233.758 300.771 L 233.758 300.771 L 233.758 300.771 Q 230.892 300.771 228.675 299.363 L 228.675 299.363 L 228.675 299.363 Q 226.458 297.954 225.233 295.346 L 225.233 295.346 L 225.233 295.346 Q 224.008 292.738 223.975 289.304 L 223.975 289.304 L 223.975 287.554 L 223.975 287.554 Q 223.975 284.054 225.192 281.371 L 225.192 281.371 L 225.192 281.371 Q 226.408 278.688 228.633 277.263 L 228.633 277.263 L 228.633 277.263 Q 230.858 275.838 233.725 275.838 L 233.725 275.838 L 233.725 275.838 Q 236.642 275.838 238.867 277.246 L 238.867 277.246 L 238.867 277.246 Q 241.092 278.654 242.292 281.329 L 242.292 281.329 L 242.292 281.329 Q 243.492 284.004 243.492 287.554 L 243.492 287.554 L 243.492 287.554 Z  M 240.308 289.321 L 240.308 287.521 L 240.308 287.521 Q 240.308 283.204 238.575 280.896 L 238.575 280.896 L 238.575 280.896 Q 236.842 278.588 233.725 278.588 L 233.725 278.588 L 233.725 278.588 Q 230.692 278.588 228.95 280.896 L 228.95 280.896 L 228.95 280.896 Q 227.208 283.204 227.158 287.304 L 227.158 287.304 L 227.158 289.088 L 227.158 289.088 Q 227.158 293.271 228.917 295.663 L 228.917 295.663 L 228.917 295.663 Q 230.675 298.054 233.758 298.054 L 233.758 298.054 L 233.758 298.054 Q 236.858 298.054 238.558 295.796 L 238.558 295.796 L 238.558 295.796 Q 240.258 293.537 240.308 289.321 L 240.308 289.321 L 240.308 289.321 Z " fill="rgb(0,0,0)"/><path d=" M 376.425 276.171 L 376.425 278.804 L 368.625 278.804 L 368.625 300.438 L 365.442 300.438 L 365.442 278.804 L 357.658 278.804 L 357.658 276.171 L 376.425 276.171 L 376.425 276.171 Z  M 387.008 282.304 L 387.008 285.171 L 387.008 285.171 Q 386.308 285.054 385.492 285.054 L 385.492 285.054 L 385.492 285.054 Q 382.458 285.054 381.375 287.638 L 381.375 287.638 L 381.375 300.438 L 378.292 300.438 L 378.292 282.404 L 381.292 282.404 L 381.342 284.488 L 381.342 284.488 Q 382.858 282.071 385.642 282.071 L 385.642 282.071 L 385.642 282.071 Q 386.542 282.071 387.008 282.304 L 387.008 282.304 L 387.008 282.304 Z  M 403.542 300.438 L 400.308 300.438 L 400.308 300.438 Q 400.042 299.904 399.875 298.538 L 399.875 298.538 L 399.875 298.538 Q 397.725 300.771 394.742 300.771 L 394.742 300.771 L 394.742 300.771 Q 392.075 300.771 390.367 299.263 L 390.367 299.263 L 390.367 299.263 Q 388.658 297.754 388.658 295.438 L 388.658 295.438 L 388.658 295.438 Q 388.658 292.621 390.8 291.063 L 390.8 291.063 L 390.8 291.063 Q 392.942 289.504 396.825 289.504 L 396.825 289.504 L 399.825 289.504 L 399.825 288.088 L 399.825 288.088 Q 399.825 286.471 398.858 285.513 L 398.858 285.513 L 398.858 285.513 Q 397.892 284.554 396.008 284.554 L 396.008 284.554 L 396.008 284.554 Q 394.358 284.554 393.242 285.388 L 393.242 285.388 L 393.242 285.388 Q 392.125 286.221 392.125 287.404 L 392.125 287.404 L 389.025 287.404 L 389.025 287.404 Q 389.025 286.054 389.983 284.796 L 389.983 284.796 L 389.983 284.796 Q 390.942 283.537 392.583 282.804 L 392.583 282.804 L 392.583 282.804 Q 394.225 282.071 396.192 282.071 L 396.192 282.071 L 396.192 282.071 Q 399.308 282.071 401.075 283.629 L 401.075 283.629 L 401.075 283.629 Q 402.842 285.188 402.908 287.921 L 402.908 287.921 L 402.908 296.221 L 402.908 296.221 Q 402.908 298.704 403.542 300.171 L 403.542 300.171 L 403.542 300.438 L 403.542 300.438 Z  M 395.192 298.088 L 395.192 298.088 L 395.192 298.088 Q 396.642 298.088 397.942 297.338 L 397.942 297.338 L 397.942 297.338 Q 399.242 296.588 399.825 295.388 L 399.825 295.388 L 399.825 291.688 L 397.408 291.688 L 397.408 291.688 Q 391.742 291.688 391.742 295.004 L 391.742 295.004 L 391.742 295.004 Q 391.742 296.454 392.708 297.271 L 392.708 297.271 L 392.708 297.271 Q 393.675 298.088 395.192 298.088 Z  M 407.742 282.404 L 410.658 282.404 L 410.758 284.671 L 410.758 284.671 Q 412.825 282.071 416.158 282.071 L 416.158 282.071 L 416.158 282.071 Q 421.875 282.071 421.925 288.521 L 421.925 288.521 L 421.925 300.438 L 418.842 300.438 L 418.842 288.504 L 418.842 288.504 Q 418.825 286.554 417.95 285.621 L 417.95 285.621 L 417.95 285.621 Q 417.075 284.688 415.225 284.688 L 415.225 284.688 L 415.225 284.688 Q 413.725 284.688 412.592 285.488 L 412.592 285.488 L 412.592 285.488 Q 411.458 286.287 410.825 287.588 L 410.825 287.588 L 410.825 300.438 L 407.742 300.438 L 407.742 282.404 L 407.742 282.404 Z  M 437.075 295.654 L 437.075 295.654 L 437.075 295.654 Q 437.075 294.404 436.133 293.713 L 436.133 293.713 L 436.133 293.713 Q 435.192 293.021 432.85 292.521 L 432.85 292.521 L 432.85 292.521 Q 430.508 292.021 429.133 291.321 L 429.133 291.321 L 429.133 291.321 Q 427.758 290.621 427.1 289.654 L 427.1 289.654 L 427.1 289.654 Q 426.442 288.688 426.442 287.354 L 426.442 287.354 L 426.442 287.354 Q 426.442 285.138 428.317 283.604 L 428.317 283.604 L 428.317 283.604 Q 430.192 282.071 433.108 282.071 L 433.108 282.071 L 433.108 282.071 Q 436.175 282.071 438.083 283.654 L 438.083 283.654 L 438.083 283.654 Q 439.992 285.238 439.992 287.704 L 439.992 287.704 L 436.892 287.704 L 436.892 287.704 Q 436.892 286.438 435.817 285.521 L 435.817 285.521 L 435.817 285.521 Q 434.742 284.604 433.108 284.604 L 433.108 284.604 L 433.108 284.604 Q 431.425 284.604 430.475 285.338 L 430.475 285.338 L 430.475 285.338 Q 429.525 286.071 429.525 287.254 L 429.525 287.254 L 429.525 287.254 Q 429.525 288.371 430.408 288.938 L 430.408 288.938 L 430.408 288.938 Q 431.292 289.504 433.6 290.021 L 433.6 290.021 L 433.6 290.021 Q 435.908 290.537 437.342 291.254 L 437.342 291.254 L 437.342 291.254 Q 438.775 291.971 439.467 292.979 L 439.467 292.979 L 439.467 292.979 Q 440.158 293.988 440.158 295.438 L 440.158 295.438 L 440.158 295.438 Q 440.158 297.854 438.225 299.313 L 438.225 299.313 L 438.225 299.313 Q 436.292 300.771 433.208 300.771 L 433.208 300.771 L 433.208 300.771 Q 431.042 300.771 429.375 300.004 L 429.375 300.004 L 429.375 300.004 Q 427.708 299.238 426.767 297.863 L 426.767 297.863 L 426.767 297.863 Q 425.825 296.488 425.825 294.888 L 425.825 294.888 L 428.908 294.888 L 428.908 294.888 Q 428.992 296.438 430.15 297.346 L 430.15 297.346 L 430.15 297.346 Q 431.308 298.254 433.208 298.254 L 433.208 298.254 L 433.208 298.254 Q 434.958 298.254 436.017 297.546 L 436.017 297.546 L 436.017 297.546 Q 437.075 296.838 437.075 295.654 Z  M 451.408 298.254 L 451.408 298.254 L 451.408 298.254 Q 453.058 298.254 454.292 297.254 L 454.292 297.254 L 454.292 297.254 Q 455.525 296.254 455.658 294.754 L 455.658 294.754 L 458.575 294.754 L 458.575 294.754 Q 458.492 296.304 457.508 297.704 L 457.508 297.704 L 457.508 297.704 Q 456.525 299.104 454.883 299.938 L 454.883 299.938 L 454.883 299.938 Q 453.242 300.771 451.408 300.771 L 451.408 300.771 L 451.408 300.771 Q 447.725 300.771 445.55 298.313 L 445.55 298.313 L 445.55 298.313 Q 443.375 295.854 443.375 291.588 L 443.375 291.588 L 443.375 291.071 L 443.375 291.071 Q 443.375 288.438 444.342 286.388 L 444.342 286.388 L 444.342 286.388 Q 445.308 284.338 447.117 283.204 L 447.117 283.204 L 447.117 283.204 Q 448.925 282.071 451.392 282.071 L 451.392 282.071 L 451.392 282.071 Q 454.425 282.071 456.433 283.888 L 456.433 283.888 L 456.433 283.888 Q 458.442 285.704 458.575 288.604 L 458.575 288.604 L 455.658 288.604 L 455.658 288.604 Q 455.525 286.854 454.333 285.729 L 454.333 285.729 L 454.333 285.729 Q 453.142 284.604 451.392 284.604 L 451.392 284.604 L 451.392 284.604 Q 449.042 284.604 447.75 286.296 L 447.75 286.296 L 447.75 286.296 Q 446.458 287.988 446.458 291.188 L 446.458 291.188 L 446.458 291.771 L 446.458 291.771 Q 446.458 294.888 447.742 296.571 L 447.742 296.571 L 447.742 296.571 Q 449.025 298.254 451.408 298.254 Z  M 461.225 291.471 L 461.225 291.254 L 461.225 291.254 Q 461.225 288.604 462.267 286.488 L 462.267 286.488 L 462.267 286.488 Q 463.308 284.371 465.167 283.221 L 465.167 283.221 L 465.167 283.221 Q 467.025 282.071 469.408 282.071 L 469.408 282.071 L 469.408 282.071 Q 473.092 282.071 475.367 284.621 L 475.367 284.621 L 475.367 284.621 Q 477.642 287.171 477.642 291.404 L 477.642 291.404 L 477.642 291.621 L 477.642 291.621 Q 477.642 294.254 476.633 296.346 L 476.633 296.346 L 476.633 296.346 Q 475.625 298.438 473.75 299.604 L 473.75 299.604 L 473.75 299.604 Q 471.875 300.771 469.442 300.771 L 469.442 300.771 L 469.442 300.771 Q 465.775 300.771 463.5 298.221 L 463.5 298.221 L 463.5 298.221 Q 461.225 295.671 461.225 291.471 L 461.225 291.471 L 461.225 291.471 Z  M 464.325 291.621 L 464.325 291.621 L 464.325 291.621 Q 464.325 294.621 465.717 296.438 L 465.717 296.438 L 465.717 296.438 Q 467.108 298.254 469.442 298.254 L 469.442 298.254 L 469.442 298.254 Q 471.792 298.254 473.175 296.413 L 473.175 296.413 L 473.175 296.413 Q 474.558 294.571 474.558 291.254 L 474.558 291.254 L 474.558 291.254 Q 474.558 288.287 473.15 286.446 L 473.15 286.446 L 473.15 286.446 Q 471.742 284.604 469.408 284.604 L 469.408 284.604 L 469.408 284.604 Q 467.125 284.604 465.725 286.421 L 465.725 286.421 L 465.725 286.421 Q 464.325 288.238 464.325 291.621 Z  M 484.858 274.838 L 484.858 300.438 L 481.775 300.438 L 481.775 274.838 L 484.858 274.838 L 484.858 274.838 Z  M 493.142 274.838 L 493.142 300.438 L 490.058 300.438 L 490.058 274.838 L 493.142 274.838 L 493.142 274.838 Z  M 501.425 282.404 L 501.425 300.438 L 498.342 300.438 L 498.342 282.404 L 501.425 282.404 L 501.425 282.404 Z  M 498.092 277.621 L 498.092 277.621 L 498.092 277.621 Q 498.092 276.871 498.55 276.354 L 498.55 276.354 L 498.55 276.354 Q 499.008 275.838 499.908 275.838 L 499.908 275.838 L 499.908 275.838 Q 500.808 275.838 501.275 276.354 L 501.275 276.354 L 501.275 276.354 Q 501.742 276.871 501.742 277.621 L 501.742 277.621 L 501.742 277.621 Q 501.742 278.371 501.275 278.871 L 501.275 278.871 L 501.275 278.871 Q 500.808 279.371 499.908 279.371 L 499.908 279.371 L 499.908 279.371 Q 499.008 279.371 498.55 278.871 L 498.55 278.871 L 498.55 278.871 Q 498.092 278.371 498.092 277.621 Z  M 506.358 282.404 L 509.275 282.404 L 509.375 284.671 L 509.375 284.671 Q 511.442 282.071 514.775 282.071 L 514.775 282.071 L 514.775 282.071 Q 520.492 282.071 520.542 288.521 L 520.542 288.521 L 520.542 300.438 L 517.458 300.438 L 517.458 288.504 L 517.458 288.504 Q 517.442 286.554 516.567 285.621 L 516.567 285.621 L 516.567 285.621 Q 515.692 284.688 513.842 284.688 L 513.842 284.688 L 513.842 284.688 Q 512.342 284.688 511.208 285.488 L 511.208 285.488 L 511.208 285.488 Q 510.075 286.287 509.442 287.588 L 509.442 287.588 L 509.442 300.438 L 506.358 300.438 L 506.358 282.404 L 506.358 282.404 Z  M 532.675 300.771 L 532.675 300.771 L 532.675 300.771 Q 529.008 300.771 526.708 298.363 L 526.708 298.363 L 526.708 298.363 Q 524.408 295.954 524.408 291.921 L 524.408 291.921 L 524.408 291.354 L 524.408 291.354 Q 524.408 288.671 525.433 286.563 L 525.433 286.563 L 525.433 286.563 Q 526.458 284.454 528.3 283.263 L 528.3 283.263 L 528.3 283.263 Q 530.142 282.071 532.292 282.071 L 532.292 282.071 L 532.292 282.071 Q 535.808 282.071 537.758 284.388 L 537.758 284.388 L 537.758 284.388 Q 539.708 286.704 539.708 291.021 L 539.708 291.021 L 539.708 292.304 L 527.492 292.304 L 527.492 292.304 Q 527.558 294.971 529.05 296.613 L 529.05 296.613 L 529.05 296.613 Q 530.542 298.254 532.842 298.254 L 532.842 298.254 L 532.842 298.254 Q 534.475 298.254 535.608 297.588 L 535.608 297.588 L 535.608 297.588 Q 536.742 296.921 537.592 295.821 L 537.592 295.821 L 539.475 297.288 L 539.475 297.288 Q 537.208 300.771 532.675 300.771 Z  M 532.292 284.604 L 532.292 284.604 L 532.292 284.604 Q 530.425 284.604 529.158 285.963 L 529.158 285.963 L 529.158 285.963 Q 527.892 287.321 527.592 289.771 L 527.592 289.771 L 536.625 289.771 L 536.625 289.537 L 536.625 289.537 Q 536.492 287.188 535.358 285.896 L 535.358 285.896 L 535.358 285.896 Q 534.225 284.604 532.292 284.604 Z  M 553.775 295.654 L 553.775 295.654 L 553.775 295.654 Q 553.775 294.404 552.833 293.713 L 552.833 293.713 L 552.833 293.713 Q 551.892 293.021 549.55 292.521 L 549.55 292.521 L 549.55 292.521 Q 547.208 292.021 545.833 291.321 L 545.833 291.321 L 545.833 291.321 Q 544.458 290.621 543.8 289.654 L 543.8 289.654 L 543.8 289.654 Q 543.142 288.688 543.142 287.354 L 543.142 287.354 L 543.142 287.354 Q 543.142 285.138 545.017 283.604 L 545.017 283.604 L 545.017 283.604 Q 546.892 282.071 549.808 282.071 L 549.808 282.071 L 549.808 282.071 Q 552.875 282.071 554.783 283.654 L 554.783 283.654 L 554.783 283.654 Q 556.692 285.238 556.692 287.704 L 556.692 287.704 L 553.592 287.704 L 553.592 287.704 Q 553.592 286.438 552.517 285.521 L 552.517 285.521 L 552.517 285.521 Q 551.442 284.604 549.808 284.604 L 549.808 284.604 L 549.808 284.604 Q 548.125 284.604 547.175 285.338 L 547.175 285.338 L 547.175 285.338 Q 546.225 286.071 546.225 287.254 L 546.225 287.254 L 546.225 287.254 Q 546.225 288.371 547.108 288.938 L 547.108 288.938 L 547.108 288.938 Q 547.992 289.504 550.3 290.021 L 550.3 290.021 L 550.3 290.021 Q 552.608 290.537 554.042 291.254 L 554.042 291.254 L 554.042 291.254 Q 555.475 291.971 556.167 292.979 L 556.167 292.979 L 556.167 292.979 Q 556.858 293.988 556.858 295.438 L 556.858 295.438 L 556.858 295.438 Q 556.858 297.854 554.925 299.313 L 554.925 299.313 L 554.925 299.313 Q 552.992 300.771 549.908 300.771 L 549.908 300.771 L 549.908 300.771 Q 547.742 300.771 546.075 300.004 L 546.075 300.004 L 546.075 300.004 Q 544.408 299.238 543.467 297.863 L 543.467 297.863 L 543.467 297.863 Q 542.525 296.488 542.525 294.888 L 542.525 294.888 L 545.608 294.888 L 545.608 294.888 Q 545.692 296.438 546.85 297.346 L 546.85 297.346 L 546.85 297.346 Q 548.008 298.254 549.908 298.254 L 549.908 298.254 L 549.908 298.254 Q 551.658 298.254 552.717 297.546 L 552.717 297.546 L 552.717 297.546 Q 553.775 296.838 553.775 295.654 Z " fill="rgb(0,0,0)"/></g></g></svg>