<?xml version="1.0" encoding="UTF-8" standalone="no"?><!-- Generator: Gravit.io --><svg xmlns="http://www.w3.org/2000/svg" xmlns:xlink="http://www.w3.org/1999/xlink" style="isolation:isolate" viewBox="0 0 650 487.5" width="650pt" height="487.5pt"><defs><clipPath id="_clipPath_MU3m5d5WCuCCmRXzC8K5N9GC6m5Jgr1B"><rect width="650" height="487.5"/></clipPath></defs><g clip-path="url(#_clipPath_MU3m5d5WCuCCmRXzC8K5N9GC6m5Jgr1B)"><path d=" M 20 343.75 L 60 143.75 L 100 143.75 L 60 343.75 L 20 343.75 Z " fill="rgb(35,116,171)"/><g><path d=" M 132.5 176.542 L 132.5 227.167 L 159.042 227.167 L 159.042 237.208 L 120 237.208 L 120 176.542 L 132.5 176.542 Z  M 186.167 238.042 L 186.167 238.042 L 186.167 238.042 Q 176.25 238.042 170.021 231.958 L 170.021 231.958 L 170.021 231.958 Q 163.792 225.875 163.792 215.75 L 163.792 215.75 L 163.792 214.583 L 163.792 214.583 Q 163.792 207.792 166.417 202.438 L 166.417 202.438 L 166.417 202.438 Q 169.042 197.083 173.854 194.188 L 173.854 194.188 L 173.854 194.188 Q 178.667 191.292 184.833 191.292 L 184.833 191.292 L 184.833 191.292 Q 194.083 191.292 199.396 197.125 L 199.396 197.125 L 199.396 197.125 Q 204.708 202.958 204.708 213.667 L 204.708 213.667 L 204.708 218.583 L 176 218.583 L 176 218.583 Q 176.583 223 179.521 225.667 L 179.521 225.667 L 179.521 225.667 Q 182.458 228.333 186.958 228.333 L 186.958 228.333 L 186.958 228.333 Q 193.917 228.333 197.833 223.292 L 197.833 223.292 L 203.75 229.917 L 203.75 229.917 Q 201.042 233.75 196.417 235.896 L 196.417 235.896 L 196.417 235.896 Q 191.792 238.042 186.167 238.042 Z  M 184.792 201.042 L 184.792 201.042 L 184.792 201.042 Q 181.208 201.042 178.979 203.458 L 178.979 203.458 L 178.979 203.458 Q 176.75 205.875 176.125 210.375 L 176.125 210.375 L 192.875 210.375 L 192.875 209.417 L 192.875 209.417 Q 192.792 205.417 190.708 203.229 L 190.708 203.229 L 190.708 203.229 Q 188.625 201.042 184.792 201.042 Z  M 177.667 186.125 L 185.875 173.208 L 199 173.208 L 187.458 186.125 L 177.667 186.125 Z  M 219.5 192.125 L 227.875 222.5 L 236.25 192.125 L 248.833 192.125 L 233.625 237.208 L 222.125 237.208 L 206.917 192.125 L 219.5 192.125 Z  M 266.833 192.125 L 266.833 237.208 L 254.75 237.208 L 254.75 192.125 L 266.833 192.125 Z  M 254.042 180.458 L 254.042 180.458 L 254.042 180.458 Q 254.042 177.75 255.854 176 L 255.854 176 L 255.854 176 Q 257.667 174.25 260.792 174.25 L 260.792 174.25 L 260.792 174.25 Q 263.875 174.25 265.708 176 L 265.708 176 L 265.708 176 Q 267.542 177.75 267.542 180.458 L 267.542 180.458 L 267.542 180.458 Q 267.542 183.208 265.687 184.958 L 265.687 184.958 L 265.687 184.958 Q 263.833 186.708 260.792 186.708 L 260.792 186.708 L 260.792 186.708 Q 257.75 186.708 255.896 184.958 L 255.896 184.958 L 255.896 184.958 Q 254.042 183.208 254.042 180.458 Z  M 301.167 224.75 L 301.167 224.75 L 301.167 224.75 Q 301.167 222.542 298.979 221.271 L 298.979 221.271 L 298.979 221.271 Q 296.792 220 291.958 219 L 291.958 219 L 291.958 219 Q 275.875 215.625 275.875 205.333 L 275.875 205.333 L 275.875 205.333 Q 275.875 199.333 280.854 195.313 L 280.854 195.313 L 280.854 195.313 Q 285.833 191.292 293.875 191.292 L 293.875 191.292 L 293.875 191.292 Q 302.458 191.292 307.604 195.333 L 307.604 195.333 L 307.604 195.333 Q 312.75 199.375 312.75 205.833 L 312.75 205.833 L 300.708 205.833 L 300.708 205.833 Q 300.708 203.25 299.042 201.563 L 299.042 201.563 L 299.042 201.563 Q 297.375 199.875 293.833 199.875 L 293.833 199.875 L 293.833 199.875 Q 290.792 199.875 289.125 201.25 L 289.125 201.25 L 289.125 201.25 Q 287.458 202.625 287.458 204.75 L 287.458 204.75 L 287.458 204.75 Q 287.458 206.75 289.354 207.979 L 289.354 207.979 L 289.354 207.979 Q 291.25 209.208 295.75 210.104 L 295.75 210.104 L 295.75 210.104 Q 300.25 211 303.333 212.125 L 303.333 212.125 L 303.333 212.125 Q 312.875 215.625 312.875 224.25 L 312.875 224.25 L 312.875 224.25 Q 312.875 230.417 307.583 234.229 L 307.583 234.229 L 307.583 234.229 Q 302.292 238.042 293.917 238.042 L 293.917 238.042 L 293.917 238.042 Q 288.25 238.042 283.854 236.021 L 283.854 236.021 L 283.854 236.021 Q 279.458 234 276.958 230.479 L 276.958 230.479 L 276.958 230.479 Q 274.458 226.958 274.458 222.875 L 274.458 222.875 L 285.875 222.875 L 285.875 222.875 Q 286.042 226.083 288.25 227.792 L 288.25 227.792 L 288.25 227.792 Q 290.458 229.5 294.167 229.5 L 294.167 229.5 L 294.167 229.5 Q 297.625 229.5 299.396 228.188 L 299.396 228.188 L 299.396 228.188 Q 301.167 226.875 301.167 224.75 Z " fill="rgb(0,0,0)"/><circle vector-effect="non-scaling-stroke" cx="144.99999999999997" cy="289.2916666666667" r="25.00000000000002" fill="rgb(15,155,191)"/><path d=" M 189.992 290.142 L 189.992 290.142 L 189.992 290.142 Q 185.875 288.958 184 287.233 L 184 287.233 L 184 287.233 Q 182.125 285.508 182.125 282.975 L 182.125 282.975 L 182.125 282.975 Q 182.125 280.108 184.417 278.233 L 184.417 278.233 L 184.417 278.233 Q 186.708 276.358 190.375 276.358 L 190.375 276.358 L 190.375 276.358 Q 192.875 276.358 194.833 277.325 L 194.833 277.325 L 194.833 277.325 Q 196.792 278.292 197.867 279.992 L 197.867 279.992 L 197.867 279.992 Q 198.942 281.692 198.942 283.708 L 198.942 283.708 L 195.725 283.708 L 195.725 283.708 Q 195.725 281.508 194.325 280.25 L 194.325 280.25 L 194.325 280.25 Q 192.925 278.992 190.375 278.992 L 190.375 278.992 L 190.375 278.992 Q 188.008 278.992 186.683 280.033 L 186.683 280.033 L 186.683 280.033 Q 185.358 281.075 185.358 282.925 L 185.358 282.925 L 185.358 282.925 Q 185.358 284.408 186.617 285.433 L 186.617 285.433 L 186.617 285.433 Q 187.875 286.458 190.9 287.308 L 190.9 287.308 L 190.9 287.308 Q 193.925 288.158 195.633 289.183 L 195.633 289.183 L 195.633 289.183 Q 197.342 290.208 198.167 291.575 L 198.167 291.575 L 198.167 291.575 Q 198.992 292.942 198.992 294.792 L 198.992 294.792 L 198.992 294.792 Q 198.992 297.742 196.692 299.517 L 196.692 299.517 L 196.692 299.517 Q 194.392 301.292 190.542 301.292 L 190.542 301.292 L 190.542 301.292 Q 188.042 301.292 185.875 300.333 L 185.875 300.333 L 185.875 300.333 Q 183.708 299.375 182.533 297.708 L 182.533 297.708 L 182.533 297.708 Q 181.358 296.042 181.358 293.925 L 181.358 293.925 L 184.575 293.925 L 184.575 293.925 Q 184.575 296.125 186.2 297.4 L 186.2 297.4 L 186.2 297.4 Q 187.825 298.675 190.542 298.675 L 190.542 298.675 L 190.542 298.675 Q 193.075 298.675 194.425 297.642 L 194.425 297.642 L 194.425 297.642 Q 195.775 296.608 195.775 294.825 L 195.775 294.825 L 195.775 294.825 Q 195.775 293.042 194.525 292.067 L 194.525 292.067 L 194.525 292.067 Q 193.275 291.092 189.992 290.142 Z  M 219.858 276.692 L 219.858 279.325 L 212.058 279.325 L 212.058 300.958 L 208.875 300.958 L 208.875 279.325 L 201.092 279.325 L 201.092 276.692 L 219.858 276.692 Z  M 226.675 276.692 L 226.675 298.342 L 238.175 298.342 L 238.175 300.958 L 223.458 300.958 L 223.458 276.692 L 226.675 276.692 Z " fill="rgb(0,0,0)"/></g></g></svg>