<?xml version="1.0" encoding="UTF-8" standalone="no"?><!-- Generator: Gravit.io --><svg xmlns="http://www.w3.org/2000/svg" xmlns:xlink="http://www.w3.org/1999/xlink" style="isolation:isolate" viewBox="0 0 650 487.5" width="650pt" height="487.5pt"><defs><clipPath id="_clipPath_kX6hsKOvcBDvWjfMWsk4XED6fcxuEKWL"><rect width="650" height="487.5"/></clipPath></defs><g clip-path="url(#_clipPath_kX6hsKOvcBDvWjfMWsk4XED6fcxuEKWL)"><path d=" M 20 343.75 L 60 143.75 L 100 143.75 L 60 343.75 L 20 343.75 Z " fill="rgb(35,116,171)"/><g><path d=" M 154 221.292 L 154 221.292 L 154 221.292 Q 154 217.75 151.5 215.854 L 151.5 215.854 L 151.5 215.854 Q 149 213.958 142.5 211.854 L 142.5 211.854 L 142.5 211.854 Q 136 209.75 132.208 207.708 L 132.208 207.708 L 132.208 207.708 Q 121.875 202.125 121.875 192.667 L 121.875 192.667 L 121.875 192.667 Q 121.875 187.75 124.646 183.896 L 124.646 183.896 L 124.646 183.896 Q 127.417 180.042 132.604 177.875 L 132.604 177.875 L 132.604 177.875 Q 137.792 175.708 144.25 175.708 L 144.25 175.708 L 144.25 175.708 Q 150.75 175.708 155.833 178.063 L 155.833 178.063 L 155.833 178.063 Q 160.917 180.417 163.729 184.708 L 163.729 184.708 L 163.729 184.708 Q 166.542 189 166.542 194.458 L 166.542 194.458 L 154.042 194.458 L 154.042 194.458 Q 154.042 190.292 151.417 187.979 L 151.417 187.979 L 151.417 187.979 Q 148.792 185.667 144.042 185.667 L 144.042 185.667 L 144.042 185.667 Q 139.458 185.667 136.917 187.604 L 136.917 187.604 L 136.917 187.604 Q 134.375 189.542 134.375 192.708 L 134.375 192.708 L 134.375 192.708 Q 134.375 195.667 137.354 197.667 L 137.354 197.667 L 137.354 197.667 Q 140.333 199.667 146.125 201.417 L 146.125 201.417 L 146.125 201.417 Q 156.792 204.625 161.667 209.375 L 161.667 209.375 L 161.667 209.375 Q 166.542 214.125 166.542 221.208 L 166.542 221.208 L 166.542 221.208 Q 166.542 229.083 160.583 233.563 L 160.583 233.563 L 160.583 233.563 Q 154.625 238.042 144.542 238.042 L 144.542 238.042 L 144.542 238.042 Q 137.542 238.042 131.792 235.479 L 131.792 235.479 L 131.792 235.479 Q 126.042 232.917 123.021 228.458 L 123.021 228.458 L 123.021 228.458 Q 120 224 120 218.125 L 120 218.125 L 132.542 218.125 L 132.542 218.125 Q 132.542 228.167 144.542 228.167 L 144.542 228.167 L 144.542 228.167 Q 149 228.167 151.5 226.354 L 151.5 226.354 L 151.5 226.354 Q 154 224.542 154 221.292 Z  M 185.958 173.208 L 185.958 197.042 L 185.958 197.042 Q 190.75 191.292 198 191.292 L 198 191.292 L 198 191.292 Q 212.667 191.292 212.875 208.333 L 212.875 208.333 L 212.875 237.208 L 200.833 237.208 L 200.833 208.667 L 200.833 208.667 Q 200.833 204.792 199.167 202.938 L 199.167 202.938 L 199.167 202.938 Q 197.5 201.083 193.625 201.083 L 193.625 201.083 L 193.625 201.083 Q 188.333 201.083 185.958 205.167 L 185.958 205.167 L 185.958 237.208 L 173.917 237.208 L 173.917 173.208 L 185.958 173.208 Z  M 242.708 238.042 L 242.708 238.042 L 242.708 238.042 Q 232.792 238.042 226.563 231.958 L 226.563 231.958 L 226.563 231.958 Q 220.333 225.875 220.333 215.75 L 220.333 215.75 L 220.333 214.583 L 220.333 214.583 Q 220.333 207.792 222.958 202.438 L 222.958 202.438 L 222.958 202.438 Q 225.583 197.083 230.396 194.188 L 230.396 194.188 L 230.396 194.188 Q 235.208 191.292 241.375 191.292 L 241.375 191.292 L 241.375 191.292 Q 250.625 191.292 255.938 197.125 L 255.938 197.125 L 255.938 197.125 Q 261.25 202.958 261.25 213.667 L 261.25 213.667 L 261.25 218.583 L 232.542 218.583 L 232.542 218.583 Q 233.125 223 236.063 225.667 L 236.063 225.667 L 236.063 225.667 Q 239 228.333 243.5 228.333 L 243.5 228.333 L 243.5 228.333 Q 250.458 228.333 254.375 223.292 L 254.375 223.292 L 260.292 229.917 L 260.292 229.917 Q 257.583 233.75 252.958 235.896 L 252.958 235.896 L 252.958 235.896 Q 248.333 238.042 242.708 238.042 Z  M 241.333 201.042 L 241.333 201.042 L 241.333 201.042 Q 237.75 201.042 235.521 203.458 L 235.521 203.458 L 235.521 203.458 Q 233.292 205.875 232.667 210.375 L 232.667 210.375 L 249.417 210.375 L 249.417 209.417 L 249.417 209.417 Q 249.333 205.417 247.25 203.229 L 247.25 203.229 L 247.25 203.229 Q 245.167 201.042 241.333 201.042 Z  M 293.583 191.833 L 293.417 203.417 L 293.417 203.417 Q 290.958 203.083 289.083 203.083 L 289.083 203.083 L 289.083 203.083 Q 282.25 203.083 280.125 207.708 L 280.125 207.708 L 280.125 237.208 L 268.083 237.208 L 268.083 192.125 L 279.458 192.125 L 279.792 197.5 L 279.792 197.5 Q 283.417 191.292 289.833 191.292 L 289.833 191.292 L 289.833 191.292 Q 291.833 191.292 293.583 191.833 L 293.583 191.833 Z  M 339.833 214.417 L 339.833 215.083 L 339.833 215.083 Q 339.833 225.917 335.208 231.979 L 335.208 231.979 L 335.208 231.979 Q 330.583 238.042 322.292 238.042 L 322.292 238.042 L 322.292 238.042 Q 314.958 238.042 310.583 232.417 L 310.583 232.417 L 310.042 237.208 L 299.208 237.208 L 299.208 173.208 L 311.25 173.208 L 311.25 196.167 L 311.25 196.167 Q 315.417 191.292 322.208 191.292 L 322.208 191.292 L 322.208 191.292 Q 330.458 191.292 335.146 197.354 L 335.146 197.354 L 335.146 197.354 Q 339.833 203.417 339.833 214.417 L 339.833 214.417 Z  M 327.792 214.208 L 327.792 214.208 L 327.792 214.208 Q 327.792 207.375 325.625 204.229 L 325.625 204.229 L 325.625 204.229 Q 323.458 201.083 319.167 201.083 L 319.167 201.083 L 319.167 201.083 Q 313.417 201.083 311.25 205.792 L 311.25 205.792 L 311.25 223.583 L 311.25 223.583 Q 313.458 228.333 319.25 228.333 L 319.25 228.333 L 319.25 228.333 Q 325.083 228.333 326.917 222.583 L 326.917 222.583 L 326.917 222.583 Q 327.792 219.833 327.792 214.208 Z  M 372.75 191.833 L 372.583 203.417 L 372.583 203.417 Q 370.125 203.083 368.25 203.083 L 368.25 203.083 L 368.25 203.083 Q 361.417 203.083 359.292 207.708 L 359.292 207.708 L 359.292 237.208 L 347.25 237.208 L 347.25 192.125 L 358.625 192.125 L 358.958 197.5 L 358.958 197.5 Q 362.583 191.292 369 191.292 L 369 191.292 L 369 191.292 Q 371 191.292 372.75 191.833 L 372.75 191.833 Z  M 375 214.792 L 375 214.25 L 375 214.25 Q 375 207.542 377.583 202.292 L 377.583 202.292 L 377.583 202.292 Q 380.167 197.042 385.021 194.167 L 385.021 194.167 L 385.021 194.167 Q 389.875 191.292 396.292 191.292 L 396.292 191.292 L 396.292 191.292 Q 405.417 191.292 411.188 196.875 L 411.188 196.875 L 411.188 196.875 Q 416.958 202.458 417.625 212.042 L 417.625 212.042 L 417.708 215.125 L 417.708 215.125 Q 417.708 225.5 411.917 231.771 L 411.917 231.771 L 411.917 231.771 Q 406.125 238.042 396.375 238.042 L 396.375 238.042 L 396.375 238.042 Q 386.625 238.042 380.813 231.792 L 380.813 231.792 L 380.813 231.792 Q 375 225.542 375 214.792 L 375 214.792 Z  M 387.042 215.125 L 387.042 215.125 L 387.042 215.125 Q 387.042 221.542 389.458 224.938 L 389.458 224.938 L 389.458 224.938 Q 391.875 228.333 396.375 228.333 L 396.375 228.333 L 396.375 228.333 Q 400.75 228.333 403.208 224.979 L 403.208 224.979 L 403.208 224.979 Q 405.667 221.625 405.667 214.25 L 405.667 214.25 L 405.667 214.25 Q 405.667 207.958 403.208 204.5 L 403.208 204.5 L 403.208 204.5 Q 400.75 201.042 396.292 201.042 L 396.292 201.042 L 396.292 201.042 Q 391.875 201.042 389.458 204.479 L 389.458 204.479 L 389.458 204.479 Q 387.042 207.917 387.042 215.125 Z  M 423.25 214.792 L 423.25 214.25 L 423.25 214.25 Q 423.25 207.542 425.833 202.292 L 425.833 202.292 L 425.833 202.292 Q 428.417 197.042 433.271 194.167 L 433.271 194.167 L 433.271 194.167 Q 438.125 191.292 444.542 191.292 L 444.542 191.292 L 444.542 191.292 Q 453.667 191.292 459.438 196.875 L 459.438 196.875 L 459.438 196.875 Q 465.208 202.458 465.875 212.042 L 465.875 212.042 L 465.958 215.125 L 465.958 215.125 Q 465.958 225.5 460.167 231.771 L 460.167 231.771 L 460.167 231.771 Q 454.375 238.042 444.625 238.042 L 444.625 238.042 L 444.625 238.042 Q 434.875 238.042 429.063 231.792 L 429.063 231.792 L 429.063 231.792 Q 423.25 225.542 423.25 214.792 L 423.25 214.792 Z  M 435.292 215.125 L 435.292 215.125 L 435.292 215.125 Q 435.292 221.542 437.708 224.938 L 437.708 224.938 L 437.708 224.938 Q 440.125 228.333 444.625 228.333 L 444.625 228.333 L 444.625 228.333 Q 449 228.333 451.458 224.979 L 451.458 224.979 L 451.458 224.979 Q 453.917 221.625 453.917 214.25 L 453.917 214.25 L 453.917 214.25 Q 453.917 207.958 451.458 204.5 L 451.458 204.5 L 451.458 204.5 Q 449 201.042 444.542 201.042 L 444.542 201.042 L 444.542 201.042 Q 440.125 201.042 437.708 204.479 L 437.708 204.479 L 437.708 204.479 Q 435.292 207.917 435.292 215.125 Z  M 501.333 237.208 L 489.75 219.125 L 485.417 223.458 L 485.417 237.208 L 473.375 237.208 L 473.375 173.208 L 485.417 173.208 L 485.417 208.667 L 487.75 205.667 L 499.292 192.125 L 513.75 192.125 L 497.458 210.917 L 515.167 237.208 L 501.333 237.208 Z  M 538.875 238.042 L 538.875 238.042 L 538.875 238.042 Q 528.958 238.042 522.729 231.958 L 522.729 231.958 L 522.729 231.958 Q 516.5 225.875 516.5 215.75 L 516.5 215.75 L 516.5 214.583 L 516.5 214.583 Q 516.5 207.792 519.125 202.438 L 519.125 202.438 L 519.125 202.438 Q 521.75 197.083 526.563 194.188 L 526.563 194.188 L 526.563 194.188 Q 531.375 191.292 537.542 191.292 L 537.542 191.292 L 537.542 191.292 Q 546.792 191.292 552.104 197.125 L 552.104 197.125 L 552.104 197.125 Q 557.417 202.958 557.417 213.667 L 557.417 213.667 L 557.417 218.583 L 528.708 218.583 L 528.708 218.583 Q 529.292 223 532.229 225.667 L 532.229 225.667 L 532.229 225.667 Q 535.167 228.333 539.667 228.333 L 539.667 228.333 L 539.667 228.333 Q 546.625 228.333 550.542 223.292 L 550.542 223.292 L 556.458 229.917 L 556.458 229.917 Q 553.75 233.75 549.125 235.896 L 549.125 235.896 L 549.125 235.896 Q 544.5 238.042 538.875 238.042 Z  M 537.5 201.042 L 537.5 201.042 L 537.5 201.042 Q 533.917 201.042 531.688 203.458 L 531.688 203.458 L 531.688 203.458 Q 529.458 205.875 528.833 210.375 L 528.833 210.375 L 545.583 210.375 L 545.583 209.417 L 545.583 209.417 Q 545.5 205.417 543.417 203.229 L 543.417 203.229 L 543.417 203.229 Q 541.333 201.042 537.5 201.042 Z " fill="rgb(0,0,0)"/><circle vector-effect="non-scaling-stroke" cx="145" cy="289.2916666666667" r="25.000000000000007" fill="rgb(44,81,106)"/><path d=" M 189.992 290.142 L 189.992 290.142 L 189.992 290.142 Q 185.875 288.958 184 287.233 L 184 287.233 L 184 287.233 Q 182.125 285.508 182.125 282.975 L 182.125 282.975 L 182.125 282.975 Q 182.125 280.108 184.417 278.233 L 184.417 278.233 L 184.417 278.233 Q 186.708 276.358 190.375 276.358 L 190.375 276.358 L 190.375 276.358 Q 192.875 276.358 194.833 277.325 L 194.833 277.325 L 194.833 277.325 Q 196.792 278.292 197.867 279.992 L 197.867 279.992 L 197.867 279.992 Q 198.942 281.692 198.942 283.708 L 198.942 283.708 L 195.725 283.708 L 195.725 283.708 Q 195.725 281.508 194.325 280.25 L 194.325 280.25 L 194.325 280.25 Q 192.925 278.992 190.375 278.992 L 190.375 278.992 L 190.375 278.992 Q 188.008 278.992 186.683 280.033 L 186.683 280.033 L 186.683 280.033 Q 185.358 281.075 185.358 282.925 L 185.358 282.925 L 185.358 282.925 Q 185.358 284.408 186.617 285.433 L 186.617 285.433 L 186.617 285.433 Q 187.875 286.458 190.9 287.308 L 190.9 287.308 L 190.9 287.308 Q 193.925 288.158 195.633 289.183 L 195.633 289.183 L 195.633 289.183 Q 197.342 290.208 198.167 291.575 L 198.167 291.575 L 198.167 291.575 Q 198.992 292.942 198.992 294.792 L 198.992 294.792 L 198.992 294.792 Q 198.992 297.742 196.692 299.517 L 196.692 299.517 L 196.692 299.517 Q 194.392 301.292 190.542 301.292 L 190.542 301.292 L 190.542 301.292 Q 188.042 301.292 185.875 300.333 L 185.875 300.333 L 185.875 300.333 Q 183.708 299.375 182.533 297.708 L 182.533 297.708 L 182.533 297.708 Q 181.358 296.042 181.358 293.925 L 181.358 293.925 L 184.575 293.925 L 184.575 293.925 Q 184.575 296.125 186.2 297.4 L 186.2 297.4 L 186.2 297.4 Q 187.825 298.675 190.542 298.675 L 190.542 298.675 L 190.542 298.675 Q 193.075 298.675 194.425 297.642 L 194.425 297.642 L 194.425 297.642 Q 195.775 296.608 195.775 294.825 L 195.775 294.825 L 195.775 294.825 Q 195.775 293.042 194.525 292.067 L 194.525 292.067 L 194.525 292.067 Q 193.275 291.092 189.992 290.142 Z  M 219.858 276.692 L 219.858 279.325 L 212.058 279.325 L 212.058 300.958 L 208.875 300.958 L 208.875 279.325 L 201.092 279.325 L 201.092 276.692 L 219.858 276.692 L 219.858 276.692 Z  M 230.342 290.142 L 230.342 290.142 L 230.342 290.142 Q 226.225 288.958 224.35 287.233 L 224.35 287.233 L 224.35 287.233 Q 222.475 285.508 222.475 282.975 L 222.475 282.975 L 222.475 282.975 Q 222.475 280.108 224.767 278.233 L 224.767 278.233 L 224.767 278.233 Q 227.058 276.358 230.725 276.358 L 230.725 276.358 L 230.725 276.358 Q 233.225 276.358 235.183 277.325 L 235.183 277.325 L 235.183 277.325 Q 237.142 278.292 238.217 279.992 L 238.217 279.992 L 238.217 279.992 Q 239.292 281.692 239.292 283.708 L 239.292 283.708 L 236.075 283.708 L 236.075 283.708 Q 236.075 281.508 234.675 280.25 L 234.675 280.25 L 234.675 280.25 Q 233.275 278.992 230.725 278.992 L 230.725 278.992 L 230.725 278.992 Q 228.358 278.992 227.033 280.033 L 227.033 280.033 L 227.033 280.033 Q 225.708 281.075 225.708 282.925 L 225.708 282.925 L 225.708 282.925 Q 225.708 284.408 226.967 285.433 L 226.967 285.433 L 226.967 285.433 Q 228.225 286.458 231.25 287.308 L 231.25 287.308 L 231.25 287.308 Q 234.275 288.158 235.983 289.183 L 235.983 289.183 L 235.983 289.183 Q 237.692 290.208 238.517 291.575 L 238.517 291.575 L 238.517 291.575 Q 239.342 292.942 239.342 294.792 L 239.342 294.792 L 239.342 294.792 Q 239.342 297.742 237.042 299.517 L 237.042 299.517 L 237.042 299.517 Q 234.742 301.292 230.892 301.292 L 230.892 301.292 L 230.892 301.292 Q 228.392 301.292 226.225 300.333 L 226.225 300.333 L 226.225 300.333 Q 224.058 299.375 222.883 297.708 L 222.883 297.708 L 222.883 297.708 Q 221.708 296.042 221.708 293.925 L 221.708 293.925 L 224.925 293.925 L 224.925 293.925 Q 224.925 296.125 226.55 297.4 L 226.55 297.4 L 226.55 297.4 Q 228.175 298.675 230.892 298.675 L 230.892 298.675 L 230.892 298.675 Q 233.425 298.675 234.775 297.642 L 234.775 297.642 L 234.775 297.642 Q 236.125 296.608 236.125 294.825 L 236.125 294.825 L 236.125 294.825 Q 236.125 293.042 234.875 292.067 L 234.875 292.067 L 234.875 292.067 Q 233.625 291.092 230.342 290.142 Z " fill="rgb(0,0,0)"/></g></g></svg>