<svg xmlns="http://www.w3.org/2000/svg" width="35" height="35" viewBox="0 0 9.26 9.26"><path d="M4.63.046A3.199 3.199 0 001.43 3.247c0 2.4 3.201 5.945 3.201 5.945s3.201-3.544 3.201-5.945a3.199 3.199 0 00-3.2-3.201z" fill="#009a8d" stroke="#fff" stroke-width=".091"/><path d="M4.06 3.929a.163.163 0 01.163.163.163.163 0 01-.163.163.163.163 0 01-.163-.163.163.163 0 01.163-.163m-.244-.978h1.629v.815h-1.63v-.815M5.2 3.93a.163.163 0 01.163.163.163.163 0 01-.163.163.163.163 0 01-.162-.163.163.163 0 01.162-.163m.408.143v-1.12c0-.427-.437-.49-.978-.49-.489 0-.977.061-.977.49v1.12a.427.427 0 00.427.427l-.183.183v.062h.272l.245-.245h.46l.245.245h.244v-.062l-.184-.183c.236 0 .429-.19.429-.427m-.033-2.13c.435.169.684.529.684.987v2.14H3.001V2.93c0-.458.25-.818.684-.988.294-.115.642-.13.945-.13.303 0 .652.015.945.13z" fill="#fff"/></svg>