<svg xmlns="http://www.w3.org/2000/svg" width="35" height="35" viewBox="0 0 9.2604162 9.2604169" version="1.1" id="svg6019"><metadata id="metadata6016"/><g id="layer1" transform="translate(0,-287.73957)"><path style="fill:#009a8d;fill-opacity:1;stroke:#ffffff;stroke-width:0.09146444;stroke-miterlimit:4;stroke-dasharray:none;stroke-opacity:1;paint-order:normal" d="m 4.6302083,287.7853 c -1.7698376,0 -3.2012556,1.43143 -3.2012556,3.20126 0,2.40095 3.2012556,5.9452 3.2012556,5.9452 0,0 3.2012556,-3.54425 3.2012556,-5.9452 0,-1.76983 -1.4314181,-3.20126 -3.2012556,-3.20126 z" id="path7283"/>
    <path d="m 4.6302254,289.55052 c -0.685998,0 -1.371997,0.0858 -1.371997,0.686 v 1.62924 c 0,0.331 0.269254,0.60025 0.600249,0.60025 l -0.25725,0.25725 v 0.0857 h 0.382445 l 0.342998,-0.343 h 0.646554 l 0.342999,0.343 h 0.342999 v -0.0857 l -0.257249,-0.25725 c 0.330994,0 0.600249,-0.26925 0.600249,-0.60025 v -1.62924 c 0,-0.60025 -0.613969,-0.686 -1.371997,-0.686 z m -0.771748,2.57249 c -0.142345,0 -0.25725,-0.1149 -0.25725,-0.25725 0,-0.14234 0.114905,-0.25724 0.25725,-0.25724 0.142344,0 0.257249,0.1149 0.257249,0.25724 0,0.14235 -0.114905,0.25725 -0.257249,0.25725 z m 0.600248,-1.2005 h -0.857498 v -0.68599 h 0.857498 z m 0.342999,0 v -0.68599 h 0.857498 v 0.68599 z m 0.600249,1.2005 c -0.142345,0 -0.257249,-0.1149 -0.257249,-0.25725 0,-0.14234 0.114904,-0.25724 0.257249,-0.25724 0.142345,0 0.257249,0.1149 0.257249,0.25724 0,0.14235 -0.114904,0.25725 -0.257249,0.25725 z"
          id="path1452"
          style="fill:#ffffff;fill-opacity:1;stroke-width:0.17149957"/></g></svg>