<svg xmlns="http://www.w3.org/2000/svg" width="35" height="35" viewBox="0 0 9.26 9.26"><path d="M4.63.046A3.199 3.199 0 001.43 3.247c0 2.4 3.201 5.945 3.201 5.945s3.201-3.544 3.201-5.945a3.199 3.199 0 00-3.2-3.201z" fill="#009a8d" stroke="#fff" stroke-width=".091"/><path d="M5.596 3.158h-.805v-.387l1.468-.245-.038-.238-.88.146a.256.256 0 00.014-.08.241.241 0 00-.242-.242.241.241 0 00-.241.242c0 .056.02.109.054.15l-.135.022v-.172H4.47v.227l-.095.014a.256.256 0 00.015-.08.241.241 0 00-.242-.242.241.241 0 00-.241.242c0 .058.02.109.053.15L3 2.824l.039.238 1.43-.238v.333h-.806a.322.322 0 00-.322.322v.966a.322.322 0 00.322.322h1.932a.322.322 0 00.322-.322V3.48a.322.322 0 00-.322-.322m-1.932.322h.363v.644h-.363V3.48m.604.644V3.48h.724v.644h-.724m1.328 0h-.362V3.48h.362z" fill="#fff"/></svg>