<svg xmlns="http://www.w3.org/2000/svg" width="35" height="35" viewBox="0 0 9.26 9.26"><path d="M4.63.046A3.199 3.199 0 001.43 3.247c0 2.4 3.201 5.945 3.201 5.945s3.201-3.544 3.201-5.945a3.199 3.199 0 00-3.2-3.201z" fill="#009a8d" stroke="#fff" stroke-width=".091"/><path d="M3.742 2.552h1.777v.586l-.889-.29-.888.29m-.306 1.339h.01c.236 0 .444-.13.592-.296.148.166.355.296.592.296s.445-.13.593-.296c.148.166.355.296.592.296h.007l.282-.99a.16.16 0 00-.009-.115.152.152 0 00-.089-.074l-.19-.062v-.684a.296.296 0 00-.297-.297h-.444v-.444h-.89v.444h-.443a.296.296 0 00-.297.297v.684l-.19.062a.152.152 0 00-.09.074.16.16 0 00-.008.114m2.658 1.287c-.206 0-.412-.07-.592-.197a1.019 1.019 0 01-1.185 0c-.18.128-.387.197-.593.197H3.15v.296h.296c.203 0 .406-.051.593-.148.37.193.814.193 1.185 0 .186.097.388.148.592.148h.296v-.296z" fill="#fff"/></svg>