<svg width="35pt" height="35pt" style="isolation:isolate" version="1.1" viewBox="0 0 35 35" xmlns="http://www.w3.org/2000/svg">
 <defs>
  <clipPath id="c">
   <rect width="35" height="35"/>
  </clipPath>
 </defs>
 <g clip-path="url(#c)">
  <mask id="a" x="-200%" y="-200%" width="400%" height="400%">
   <rect x="-200%" y="-200%" width="400%" height="400%" fill="#fff"/>
   <path d="m17.5 0.173c-6.689 0-12.099 5.41-12.099 12.099 0 9.075 12.099 22.47 12.099 22.47s12.099-13.395 12.099-22.47c0-6.689-5.41-12.099-12.099-12.099z"/>
  </mask>
  <path d="m17.5 0.173c-6.689 0-12.099 5.41-12.099 12.099 0 9.075 12.099 22.47 12.099 22.47s12.099-13.395 12.099-22.47c0-6.689-5.41-12.099-12.099-12.099z" fill="#00aeef"/>
  <path d="m17.5 0.173c-6.689 0-12.099 5.41-12.099 12.099 0 9.075 12.099 22.47 12.099 22.47s12.099-13.395 12.099-22.47c0-6.689-5.41-12.099-12.099-12.099z" fill="#00aeef" mask="url(#a)" stroke="#fff" stroke-width=".691" vector-effect="non-scaling-stroke"/>
  <clipPath id="b">
   <path d="m17.5 0.173c-6.689 0-12.099 5.41-12.099 12.099 0 9.075 12.099 22.47 12.099 22.47s12.099-13.395 12.099-22.47c0-6.689-5.41-12.099-12.099-12.099z" fill="#00aeef"/>
   <path d="m17.5 0.173c-6.689 0-12.099 5.41-12.099 12.099 0 9.075 12.099 22.47 12.099 22.47s12.099-13.395 12.099-22.47c0-6.689-5.41-12.099-12.099-12.099z" fill="#00aeef" mask="url(#a)" stroke="#fff" stroke-width=".691" vector-effect="non-scaling-stroke"/>
  </clipPath>
  <g clip-path="url(#b)">
   <path d="m16.809 22h1.382c5.138 0 9.309 2.913 9.309 6.5s-4.171 6.5-9.309 6.5h-1.382c-5.138 0-9.309-2.913-9.309-6.5s4.171-6.5 9.309-6.5z" fill="#DEDC1F"/>
  </g>
  <path d="m13.5 26.6h3.2v-1.6l4.8 2.4h-3.2v1.6l-4.8-2.4z" fill="#00646c"/>
  <path d="m12.315 15.919c0 0.571 0.252 1.083 0.648 1.439v1.154c0 0.356 0.291 0.648 0.648 0.648h0.648c0.357 0 0.648-0.292 0.648-0.648v-0.648h5.186v0.648c0 0.356 0.291 0.648 0.648 0.648h0.648c0.357 0 0.648-0.292 0.648-0.648v-1.154c0.396-0.356 0.648-0.868 0.648-1.439v-6.482c0-2.268-2.32-2.592-5.185-2.592s-5.185 0.324-5.185 2.592v6.482zm2.268 0.648c-0.538 0-0.972-0.434-0.972-0.972s0.434-0.972 0.972-0.972 0.972 0.434 0.972 0.972-0.434 0.972-0.972 0.972zm5.834 0c-0.538 0-0.972-0.434-0.972-0.972s0.434-0.972 0.972-0.972 0.972 0.434 0.972 0.972-0.434 0.972-0.972 0.972zm0.972-3.889h-7.778v-3.241h7.778v3.241z" fill="#fff"/>
 </g>
</svg>
