<svg xmlns="http://www.w3.org/2000/svg" width="35" height="35" viewBox="0 0 9.2604162 9.2604169" version="1.1" id="svg6019"><metadata id="metadata6016"/><g id="layer1" transform="translate(0,-287.73957)"><path style="fill:#9ed1c6;fill-opacity:1;stroke:#000000;stroke-width:0.09146444;stroke-miterlimit:4;stroke-dasharray:none;stroke-opacity:1;paint-order:normal" d="m 4.6302083,287.7853 c -1.7698376,0 -3.2012556,1.43143 -3.2012556,3.20126 0,2.40095 3.2012556,5.9452 3.2012556,5.9452 0,0 3.2012556,-3.54425 3.2012556,-5.9452 0,-1.76983 -1.4314181,-3.20126 -3.2012556,-3.20126 z" id="path7283"/><path style="fill:#000000;fill-opacity:1;stroke:none;stroke-width:0.17149575" id="path959" d="m 3.2582432,291.95151 c 0,0.15092 0.06688,0.2864 0.1714958,0.38072 v 0.30527 c 0,0.0943 0.07717,0.17149 0.1714947,0.17149 h 0.1714968 c 0.09432,0 0.1714947,-0.0772 0.1714947,-0.17149 v -0.1715 h 1.3719671 v 0.1715 c 0,0.0943 0.07717,0.17149 0.1714948,0.17149 h 0.1714958 c 0.09432,0 0.1714967,-0.0772 0.1714967,-0.17149 v -0.30527 c 0.1046119,-0.0943 0.1714957,-0.2298 0.1714957,-0.38072 v -1.71495 c 0,-0.60024 -0.6139552,-0.68598 -1.371967,-0.68598 -0.7580109,0 -1.3719651,0.0858 -1.3719651,0.68598 z m 0.6002342,0.1715 c -0.1423409,0 -0.2572437,-0.1149 -0.2572437,-0.25725 0,-0.14234 0.1149028,-0.25724 0.2572437,-0.25724 0.1423418,0 0.2572435,0.1149 0.2572435,0.25724 0,0.14235 -0.1149017,0.25725 -0.2572435,0.25725 z m 1.5434618,0 c -0.1423408,0 -0.2572437,-0.1149 -0.2572437,-0.25725 0,-0.14234 0.1149029,-0.25724 0.2572437,-0.25724 0.1423418,0 0.2572437,0.1149 0.2572437,0.25724 0,0.14235 -0.1149019,0.25725 -0.2572437,0.25725 z m 0.2572437,-1.02897 H 3.6012337 v -0.85748 h 2.0579492 z"/></g></svg>