<svg xmlns="http://www.w3.org/2000/svg" width="35" height="35" viewBox="0 0 9.2604162 9.2604169" version="1.1" id="svg6019"><metadata id="metadata6016"/><g id="layer1" transform="translate(0,-287.73957)"><path style="fill:#d11212;fill-opacity:1;stroke:#ffffff;stroke-width:0.09146444;stroke-miterlimit:4;stroke-dasharray:none;stroke-opacity:1;paint-order:normal" d="m 4.6302083,287.7853 c -1.7698376,0 -3.2012556,1.43143 -3.2012556,3.20126 0,2.40095 3.2012556,5.9452 3.2012556,5.9452 0,0 3.2012556,-3.54425 3.2012556,-5.9452 0,-1.76983 -1.4314181,-3.20126 -3.2012556,-3.20126 z" id="path7283"/><path id="path957" d="m 4.2185797,289.73919 -0.5487989,0.4116 0.3429994,0.2744 H 3.6697808 c 0,0 -0.411599,0 -0.411599,0.4116 v 1.37199 h 0.6859984 c 0,0 0,-0.27439 0.2743995,-0.27439 h 1.7835956 v -0.4116 h -0.548798 v -0.8232 h 0.548798 v -0.2744 h -1.577796 l 0.342999,-0.2744 -0.5487986,-0.4116 m -0.6859986,0.9604 h 0.6859986 v 0.8232 H 3.5325811 v -0.8232 m 0.9603972,0 h 0.685999 v 0.8232 h -0.685999 v -0.8232 m -0.9603972,1.09759 h 0.1371997 v 0.2744 H 3.5325811 v -0.2744 m 0.6859986,0.4116 v 0.0686 c 0,0.18934 0.1536635,0.343 0.3429986,0.343 0.1372,0 0.259308,-0.081 0.314188,-0.2058 h 0.194823 c 0.05488,0.12485 0.176988,0.2058 0.314188,0.2058 0.189335,0 0.342999,-0.15366 0.342999,-0.343 v -0.0686 z" style="stroke-width:0.13719968;fill:#ffffff;fill-opacity:1;stroke:none"/></g></svg>